<mxfile host="app.diagrams.net" modified="2023-09-08T09:24:27.285Z" agent="Mozilla/5.0 (Windows NT 10.0; Win64; x64) AppleWebKit/537.36 (KHTML, like Gecko) Chrome/116.0.0.0 Safari/537.36" etag="otop3kSviZvzDE4oULTa" version="21.7.2" type="device">
  <diagram name="第 1 页" id="qBUE036Yc-fRDU5c3oDg">
    <mxGraphModel dx="3500" dy="1837" grid="1" gridSize="10" guides="1" tooltips="1" connect="1" arrows="1" fold="1" page="1" pageScale="1" pageWidth="1200" pageHeight="1600" background="#ffffff" math="0" shadow="0">
      <root>
        <mxCell id="0" />
        <mxCell id="1" parent="0" />
        <mxCell id="cGnAWdVKwM5nVpl3sOE8-60" value="&lt;div style=&quot;background-color: rgb(31, 31, 31); line-height: 19px;&quot;&gt;&lt;div style=&quot;color: rgb(204, 204, 204); font-family: Consolas, &amp;quot;Courier New&amp;quot;, monospace; font-size: 14px; font-weight: normal;&quot;&gt;&lt;span style=&quot;color: #569cd6;&quot;&gt;typedef&lt;/span&gt;&lt;span style=&quot;color: #cccccc;&quot;&gt; &lt;/span&gt;&lt;span style=&quot;color: #569cd6;&quot;&gt;struct&lt;/span&gt;&lt;/div&gt;&lt;div style=&quot;color: rgb(204, 204, 204); font-family: Consolas, &amp;quot;Courier New&amp;quot;, monospace; font-size: 14px; font-weight: normal;&quot;&gt;&lt;span style=&quot;color: #cccccc;&quot;&gt;{&lt;/span&gt;&lt;/div&gt;&lt;div style=&quot;color: rgb(204, 204, 204); font-family: Consolas, &amp;quot;Courier New&amp;quot;, monospace; font-size: 14px; font-weight: normal;&quot;&gt;&lt;span style=&quot;color: #cccccc;&quot;&gt;&amp;nbsp; &lt;/span&gt;&lt;span style=&quot;color: #569cd6;&quot;&gt;unsigned&lt;/span&gt;&lt;span style=&quot;color: #cccccc;&quot;&gt; &lt;/span&gt;&lt;span style=&quot;color: #569cd6;&quot;&gt;char&lt;/span&gt;&lt;span style=&quot;color: #cccccc;&quot;&gt; &lt;/span&gt;&lt;span style=&quot;color: #9cdcfe;&quot;&gt;e_ident&lt;/span&gt;&lt;span style=&quot;color: #cccccc;&quot;&gt;[&lt;/span&gt;&lt;span style=&quot;color: #569cd6;&quot;&gt;EI_NIDENT&lt;/span&gt;&lt;span style=&quot;color: #cccccc;&quot;&gt;];&lt;/span&gt;&lt;span style=&quot;color: #6a9955;&quot;&gt; /* 魔数和一些其他标识 */&lt;/span&gt;&lt;/div&gt;&lt;div style=&quot;color: rgb(204, 204, 204); font-family: Consolas, &amp;quot;Courier New&amp;quot;, monospace; font-size: 14px; font-weight: normal;&quot;&gt;&lt;span style=&quot;color: #cccccc;&quot;&gt;&amp;nbsp; &lt;/span&gt;&lt;span style=&quot;color: #4ec9b0;&quot;&gt;Elf64_Half&lt;/span&gt;&lt;span style=&quot;color: #cccccc;&quot;&gt; &amp;nbsp;&lt;/span&gt;&lt;span style=&quot;color: #9cdcfe;&quot;&gt;e_type&lt;/span&gt;&lt;span style=&quot;color: #cccccc;&quot;&gt;;&lt;/span&gt;&lt;span style=&quot;color: #6a9955;&quot;&gt; &amp;nbsp; &amp;nbsp; /* 文件类型 */&lt;/span&gt;&lt;/div&gt;&lt;div style=&quot;color: rgb(204, 204, 204); font-family: Consolas, &amp;quot;Courier New&amp;quot;, monospace; font-size: 14px; font-weight: normal;&quot;&gt;&lt;span style=&quot;color: #cccccc;&quot;&gt;&amp;nbsp; &lt;/span&gt;&lt;span style=&quot;color: #4ec9b0;&quot;&gt;Elf64_Half&lt;/span&gt;&lt;span style=&quot;color: #cccccc;&quot;&gt; &amp;nbsp;&lt;/span&gt;&lt;span style=&quot;color: #9cdcfe;&quot;&gt;e_machine&lt;/span&gt;&lt;span style=&quot;color: #cccccc;&quot;&gt;;&lt;/span&gt;&lt;span style=&quot;color: #6a9955;&quot;&gt; &amp;nbsp; &amp;nbsp;/* 对应机器 */&lt;/span&gt;&lt;/div&gt;&lt;div style=&quot;color: rgb(204, 204, 204); font-family: Consolas, &amp;quot;Courier New&amp;quot;, monospace; font-size: 14px; font-weight: normal;&quot;&gt;&lt;span style=&quot;color: #cccccc;&quot;&gt;&amp;nbsp; &lt;/span&gt;&lt;span style=&quot;color: #4ec9b0;&quot;&gt;Elf64_Word&lt;/span&gt;&lt;span style=&quot;color: #cccccc;&quot;&gt; &amp;nbsp;&lt;/span&gt;&lt;span style=&quot;color: #9cdcfe;&quot;&gt;e_version&lt;/span&gt;&lt;span style=&quot;color: #cccccc;&quot;&gt;;&lt;/span&gt;&lt;span style=&quot;color: #6a9955;&quot;&gt; &amp;nbsp; &amp;nbsp;/* 必须为EV_CURRENT */&lt;/span&gt;&lt;/div&gt;&lt;div style=&quot;color: rgb(204, 204, 204); font-family: Consolas, &amp;quot;Courier New&amp;quot;, monospace; font-size: 14px; font-weight: normal;&quot;&gt;&lt;span style=&quot;color: #cccccc;&quot;&gt;&amp;nbsp; &lt;/span&gt;&lt;span style=&quot;color: #4ec9b0;&quot;&gt;Elf64_Addr&lt;/span&gt;&lt;span style=&quot;color: #cccccc;&quot;&gt; &amp;nbsp;&lt;/span&gt;&lt;span style=&quot;color: #9cdcfe;&quot;&gt;e_entry&lt;/span&gt;&lt;span style=&quot;color: #cccccc;&quot;&gt;;&lt;/span&gt;&lt;span style=&quot;color: #6a9955;&quot;&gt; &amp;nbsp; &amp;nbsp;/* 入口点的VA */&lt;/span&gt;&lt;/div&gt;&lt;div style=&quot;color: rgb(204, 204, 204); font-family: Consolas, &amp;quot;Courier New&amp;quot;, monospace; font-size: 14px; font-weight: normal;&quot;&gt;&lt;span style=&quot;color: #cccccc;&quot;&gt;&amp;nbsp; &lt;/span&gt;&lt;span style=&quot;color: #4ec9b0;&quot;&gt;Elf64_Off&lt;/span&gt;&lt;span style=&quot;color: #cccccc;&quot;&gt; &lt;/span&gt;&lt;span style=&quot;color: #9cdcfe;&quot;&gt;e_phoff&lt;/span&gt;&lt;span style=&quot;color: #cccccc;&quot;&gt;;&lt;/span&gt;&lt;span style=&quot;color: #6a9955;&quot;&gt; &amp;nbsp; &amp;nbsp;/* Program header table 的FOA */&lt;/span&gt;&lt;/div&gt;&lt;div style=&quot;color: rgb(204, 204, 204); font-family: Consolas, &amp;quot;Courier New&amp;quot;, monospace; font-size: 14px; font-weight: normal;&quot;&gt;&lt;span style=&quot;color: #cccccc;&quot;&gt;&amp;nbsp; &lt;/span&gt;&lt;span style=&quot;color: #4ec9b0;&quot;&gt;Elf64_Off&lt;/span&gt;&lt;span style=&quot;color: #cccccc;&quot;&gt; &lt;/span&gt;&lt;span style=&quot;color: #9cdcfe;&quot;&gt;e_shoff&lt;/span&gt;&lt;span style=&quot;color: #cccccc;&quot;&gt;;&lt;/span&gt;&lt;span style=&quot;color: #6a9955;&quot;&gt; &amp;nbsp; &amp;nbsp;/* Section header table 的FOA */&lt;/span&gt;&lt;/div&gt;&lt;div style=&quot;&quot;&gt;&lt;span style=&quot;color: rgb(204, 204, 204); font-family: Consolas, &amp;quot;Courier New&amp;quot;, monospace; font-size: 14px; font-weight: normal;&quot;&gt;&amp;nbsp; &lt;/span&gt;&lt;span style=&quot;color: rgb(78, 201, 176); font-family: Consolas, &amp;quot;Courier New&amp;quot;, monospace; font-size: 14px; font-weight: normal;&quot;&gt;Elf64_Word&lt;/span&gt;&lt;span style=&quot;color: rgb(204, 204, 204); font-family: Consolas, &amp;quot;Courier New&amp;quot;, monospace; font-size: 14px; font-weight: normal;&quot;&gt; &amp;nbsp;&lt;/span&gt;&lt;span style=&quot;color: rgb(156, 220, 254); font-family: Consolas, &amp;quot;Courier New&amp;quot;, monospace; font-size: 14px; font-weight: normal;&quot;&gt;e_flags&lt;/span&gt;&lt;span style=&quot;color: rgb(204, 204, 204); font-family: Consolas, &amp;quot;Courier New&amp;quot;, monospace; font-size: 14px; font-weight: normal;&quot;&gt;;&lt;/span&gt;&lt;font face=&quot;Consolas, Courier New, monospace&quot; color=&quot;#6a9955&quot;&gt; &amp;nbsp; &amp;nbsp;/* 处理器特定的标志*/&lt;/font&gt;&lt;/div&gt;&lt;div style=&quot;&quot;&gt;&lt;span style=&quot;color: rgb(204, 204, 204); font-family: Consolas, &amp;quot;Courier New&amp;quot;, monospace; font-size: 14px; font-weight: normal;&quot;&gt;&amp;nbsp; &lt;/span&gt;&lt;span style=&quot;color: rgb(78, 201, 176); font-family: Consolas, &amp;quot;Courier New&amp;quot;, monospace; font-size: 14px; font-weight: normal;&quot;&gt;Elf64_Half&lt;/span&gt;&lt;span style=&quot;color: rgb(204, 204, 204); font-family: Consolas, &amp;quot;Courier New&amp;quot;, monospace; font-size: 14px; font-weight: normal;&quot;&gt; &amp;nbsp;&lt;/span&gt;&lt;span style=&quot;color: rgb(156, 220, 254); font-family: Consolas, &amp;quot;Courier New&amp;quot;, monospace; font-size: 14px; font-weight: normal;&quot;&gt;e_ehsize&lt;/span&gt;&lt;span style=&quot;color: rgb(204, 204, 204); font-family: Consolas, &amp;quot;Courier New&amp;quot;, monospace; font-size: 14px; font-weight: normal;&quot;&gt;;&lt;/span&gt;&lt;font face=&quot;Consolas, Courier New, monospace&quot; color=&quot;#6a9955&quot;&gt; &amp;nbsp; /* ELF 标头大小（以字节为单位）&amp;nbsp;*/&lt;/font&gt;&lt;/div&gt;&lt;div style=&quot;color: rgb(204, 204, 204); font-family: Consolas, &amp;quot;Courier New&amp;quot;, monospace; font-size: 14px; font-weight: normal;&quot;&gt;&lt;span style=&quot;color: #cccccc;&quot;&gt;&amp;nbsp; &lt;/span&gt;&lt;span style=&quot;color: #4ec9b0;&quot;&gt;Elf64_Half&lt;/span&gt;&lt;span style=&quot;color: #cccccc;&quot;&gt; &amp;nbsp;&lt;/span&gt;&lt;span style=&quot;color: #9cdcfe;&quot;&gt;e_phentsize&lt;/span&gt;&lt;span style=&quot;color: #cccccc;&quot;&gt;;&lt;/span&gt;&lt;span style=&quot;color: #6a9955;&quot;&gt; &amp;nbsp; &amp;nbsp;/* Program header table 大小 */&lt;/span&gt;&lt;/div&gt;&lt;div style=&quot;color: rgb(204, 204, 204); font-family: Consolas, &amp;quot;Courier New&amp;quot;, monospace; font-size: 14px; font-weight: normal;&quot;&gt;&lt;span style=&quot;color: #cccccc;&quot;&gt;&amp;nbsp; &lt;/span&gt;&lt;span style=&quot;color: #4ec9b0;&quot;&gt;Elf64_Half&lt;/span&gt;&lt;span style=&quot;color: #cccccc;&quot;&gt; &amp;nbsp;&lt;/span&gt;&lt;span style=&quot;color: #9cdcfe;&quot;&gt;e_phnum&lt;/span&gt;&lt;span style=&quot;color: #cccccc;&quot;&gt;;&lt;/span&gt;&lt;span style=&quot;color: #6a9955;&quot;&gt; &amp;nbsp; &amp;nbsp;/* Program header table 数量 */&lt;/span&gt;&lt;/div&gt;&lt;div style=&quot;color: rgb(204, 204, 204); font-family: Consolas, &amp;quot;Courier New&amp;quot;, monospace; font-size: 14px; font-weight: normal;&quot;&gt;&lt;span style=&quot;color: #cccccc;&quot;&gt;&amp;nbsp; &lt;/span&gt;&lt;span style=&quot;color: #4ec9b0;&quot;&gt;Elf64_Half&lt;/span&gt;&lt;span style=&quot;color: #cccccc;&quot;&gt; &amp;nbsp;&lt;/span&gt;&lt;span style=&quot;color: #9cdcfe;&quot;&gt;e_shentsize&lt;/span&gt;&lt;span style=&quot;color: #cccccc;&quot;&gt;;&lt;/span&gt;&lt;span style=&quot;color: #6a9955;&quot;&gt; &amp;nbsp; &amp;nbsp;/* Section header table 大小 */&lt;/span&gt;&lt;/div&gt;&lt;div style=&quot;color: rgb(204, 204, 204); font-family: Consolas, &amp;quot;Courier New&amp;quot;, monospace; font-size: 14px; font-weight: normal;&quot;&gt;&lt;span style=&quot;color: #cccccc;&quot;&gt;&amp;nbsp; &lt;/span&gt;&lt;span style=&quot;color: #4ec9b0;&quot;&gt;Elf64_Half&lt;/span&gt;&lt;span style=&quot;color: #cccccc;&quot;&gt; &amp;nbsp;&lt;/span&gt;&lt;span style=&quot;color: #9cdcfe;&quot;&gt;e_shnum&lt;/span&gt;&lt;span style=&quot;color: #cccccc;&quot;&gt;;&lt;/span&gt;&lt;span style=&quot;color: #6a9955;&quot;&gt; &amp;nbsp; &amp;nbsp;/* Section header table 数量 */&lt;/span&gt;&lt;/div&gt;&lt;div style=&quot;color: rgb(204, 204, 204); font-family: Consolas, &amp;quot;Courier New&amp;quot;, monospace; font-size: 14px; font-weight: normal;&quot;&gt;&lt;span style=&quot;color: #cccccc;&quot;&gt;&amp;nbsp; &lt;/span&gt;&lt;span style=&quot;color: #4ec9b0;&quot;&gt;Elf64_Half&lt;/span&gt;&lt;span style=&quot;color: #cccccc;&quot;&gt; &amp;nbsp;&lt;/span&gt;&lt;span style=&quot;color: #9cdcfe;&quot;&gt;e_shstrndx&lt;/span&gt;&lt;span style=&quot;color: #cccccc;&quot;&gt;;&lt;/span&gt;&lt;span style=&quot;color: #6a9955;&quot;&gt; &amp;nbsp; /* Section header 字符串表节的下标 */&lt;/span&gt;&lt;/div&gt;&lt;div style=&quot;color: rgb(204, 204, 204); font-family: Consolas, &amp;quot;Courier New&amp;quot;, monospace; font-size: 14px; font-weight: normal;&quot;&gt;&lt;span style=&quot;color: #cccccc;&quot;&gt;} &lt;/span&gt;&lt;span style=&quot;color: #4ec9b0;&quot;&gt;Elf64_Ehdr&lt;/span&gt;&lt;span style=&quot;color: #cccccc;&quot;&gt;;&lt;/span&gt;&lt;/div&gt;&lt;/div&gt;" style="text;whiteSpace=wrap;html=1;" parent="1" vertex="1">
          <mxGeometry y="470" width="530" height="340" as="geometry" />
        </mxCell>
        <mxCell id="cGnAWdVKwM5nVpl3sOE8-92" value="" style="shape=flexArrow;endArrow=classic;html=1;rounded=0;strokeColor=#6c8ebf;fillColor=#dae8fc;exitX=0.852;exitY=0.147;exitDx=0;exitDy=0;exitPerimeter=0;entryX=0;entryY=0.5;entryDx=0;entryDy=0;entryPerimeter=0;" parent="1" source="cGnAWdVKwM5nVpl3sOE8-60" target="cGnAWdVKwM5nVpl3sOE8-89" edge="1">
          <mxGeometry width="50" height="50" relative="1" as="geometry">
            <mxPoint x="220" y="520" as="sourcePoint" />
            <mxPoint x="600" y="420" as="targetPoint" />
            <Array as="points">
              <mxPoint x="540" y="520" />
              <mxPoint x="540" y="155" />
            </Array>
          </mxGeometry>
        </mxCell>
        <mxCell id="cGnAWdVKwM5nVpl3sOE8-93" value="" style="shape=flexArrow;endArrow=classic;html=1;rounded=0;strokeColor=#6c8ebf;fillColor=#dae8fc;exitX=0.593;exitY=0.206;exitDx=0;exitDy=0;exitPerimeter=0;entryX=0;entryY=0.5;entryDx=0;entryDy=0;" parent="1" source="cGnAWdVKwM5nVpl3sOE8-60" target="cGnAWdVKwM5nVpl3sOE8-91" edge="1">
          <mxGeometry width="50" height="50" relative="1" as="geometry">
            <mxPoint x="51" y="541" as="sourcePoint" />
            <mxPoint x="441" y="441" as="targetPoint" />
            <Array as="points">
              <mxPoint x="560" y="540" />
              <mxPoint x="560" y="419" />
            </Array>
          </mxGeometry>
        </mxCell>
        <mxCell id="cGnAWdVKwM5nVpl3sOE8-91" value="&lt;div style=&quot;background-color: rgb(31, 31, 31); font-family: Consolas, &amp;quot;Courier New&amp;quot;, monospace; font-weight: normal; font-size: 14px; line-height: 19px;&quot;&gt;&lt;br&gt;&lt;div style=&quot;color: rgb(204, 204, 204);&quot;&gt;&lt;span style=&quot;color: #c586c0;&quot;&gt;#define&lt;/span&gt;&lt;span style=&quot;color: #569cd6;&quot;&gt; &lt;/span&gt;&lt;span style=&quot;color: #569cd6;&quot;&gt;ET_NONE&lt;/span&gt;&lt;span style=&quot;color: #569cd6;&quot;&gt; &amp;nbsp; &lt;/span&gt;&lt;span style=&quot;color: #b5cea8;&quot;&gt;0&lt;/span&gt;&lt;span style=&quot;color: #6a9955;&quot;&gt; &amp;nbsp; /* 无文件类型 */&lt;/span&gt;&lt;/div&gt;&lt;div style=&quot;color: rgb(204, 204, 204);&quot;&gt;&lt;span style=&quot;color: #c586c0;&quot;&gt;#define&lt;/span&gt;&lt;span style=&quot;color: #569cd6;&quot;&gt; &lt;/span&gt;&lt;span style=&quot;color: #569cd6;&quot;&gt;ET_REL&lt;/span&gt;&lt;span style=&quot;color: #569cd6;&quot;&gt; &amp;nbsp; &amp;nbsp;&lt;/span&gt;&lt;span style=&quot;color: #b5cea8;&quot;&gt;1&lt;/span&gt;&lt;span style=&quot;color: #6a9955;&quot;&gt; &amp;nbsp; /* 可重定位文件 */&lt;/span&gt;&lt;/div&gt;&lt;div style=&quot;color: rgb(204, 204, 204);&quot;&gt;&lt;span style=&quot;color: #c586c0;&quot;&gt;#define&lt;/span&gt;&lt;span style=&quot;color: #569cd6;&quot;&gt; &lt;/span&gt;&lt;span style=&quot;color: #569cd6;&quot;&gt;ET_EXEC&lt;/span&gt;&lt;span style=&quot;color: #569cd6;&quot;&gt; &amp;nbsp; &lt;/span&gt;&lt;span style=&quot;color: #b5cea8;&quot;&gt;2&lt;/span&gt;&lt;span style=&quot;color: #6a9955;&quot;&gt; &amp;nbsp; /* 可执行文件 */&lt;/span&gt;&lt;/div&gt;&lt;div style=&quot;color: rgb(204, 204, 204);&quot;&gt;&lt;span style=&quot;color: #c586c0;&quot;&gt;#define&lt;/span&gt;&lt;span style=&quot;color: #569cd6;&quot;&gt; &lt;/span&gt;&lt;span style=&quot;color: #569cd6;&quot;&gt;ET_DYN&lt;/span&gt;&lt;span style=&quot;color: #569cd6;&quot;&gt; &amp;nbsp; &amp;nbsp;&lt;/span&gt;&lt;span style=&quot;color: #b5cea8;&quot;&gt;3&lt;/span&gt;&lt;span style=&quot;color: #6a9955;&quot;&gt; &amp;nbsp; /* 共享数据文件 */&lt;/span&gt;&lt;/div&gt;&lt;div style=&quot;color: rgb(204, 204, 204);&quot;&gt;&lt;span style=&quot;color: #c586c0;&quot;&gt;#define&lt;/span&gt;&lt;span style=&quot;color: #569cd6;&quot;&gt; &lt;/span&gt;&lt;span style=&quot;color: #569cd6;&quot;&gt;ET_CORE&lt;/span&gt;&lt;span style=&quot;color: #569cd6;&quot;&gt; &amp;nbsp; &lt;/span&gt;&lt;span style=&quot;color: #b5cea8;&quot;&gt;4&lt;/span&gt;&lt;span style=&quot;color: #6a9955;&quot;&gt; &amp;nbsp; /* 内核文件 */&lt;/span&gt;&lt;/div&gt;&lt;div style=&quot;&quot;&gt;&lt;span style=&quot;color: rgb(197, 134, 192);&quot;&gt;#define&lt;/span&gt;&lt;span style=&quot;color: rgb(86, 156, 214);&quot;&gt; &lt;/span&gt;&lt;span style=&quot;color: rgb(86, 156, 214);&quot;&gt;ET_&lt;/span&gt;&lt;font color=&quot;#6a9955&quot;&gt;XXX&lt;/font&gt;&lt;/div&gt;&lt;/div&gt;" style="text;whiteSpace=wrap;html=1;" parent="1" vertex="1">
          <mxGeometry x="600" y="348.29" width="310" height="141.71" as="geometry" />
        </mxCell>
        <mxCell id="cGnAWdVKwM5nVpl3sOE8-96" value="&lt;div style=&quot;color: rgb(204, 204, 204); background-color: rgb(31, 31, 31); font-family: Consolas, &amp;quot;Courier New&amp;quot;, monospace; font-weight: normal; font-size: 14px; line-height: 19px;&quot;&gt;&lt;div&gt;&lt;span style=&quot;color: #c586c0;&quot;&gt;#define&lt;/span&gt;&lt;span style=&quot;color: #569cd6;&quot;&gt; &lt;/span&gt;&lt;span style=&quot;color: #569cd6;&quot;&gt;EM_NONE&lt;/span&gt;&lt;span style=&quot;color: #569cd6;&quot;&gt; &amp;nbsp; &amp;nbsp;&lt;/span&gt;&lt;span style=&quot;color: #b5cea8;&quot;&gt;0&lt;/span&gt;&lt;span style=&quot;color: #6a9955;&quot;&gt; &amp;nbsp;/* No machine */&lt;/span&gt;&lt;/div&gt;&lt;div&gt;&lt;span style=&quot;color: #c586c0;&quot;&gt;#define&lt;/span&gt;&lt;span style=&quot;color: #569cd6;&quot;&gt; &lt;/span&gt;&lt;span style=&quot;color: #569cd6;&quot;&gt;EM_M32&lt;/span&gt;&lt;span style=&quot;color: #569cd6;&quot;&gt; &amp;nbsp; &amp;nbsp; &lt;/span&gt;&lt;span style=&quot;color: #b5cea8;&quot;&gt;1&lt;/span&gt;&lt;span style=&quot;color: #6a9955;&quot;&gt; &amp;nbsp;/* AT&amp;amp;T WE 32100 */&lt;/span&gt;&lt;/div&gt;&lt;div&gt;&lt;span style=&quot;color: #c586c0;&quot;&gt;#define&lt;/span&gt;&lt;span style=&quot;color: #569cd6;&quot;&gt; &lt;/span&gt;&lt;span style=&quot;color: #569cd6;&quot;&gt;EM_SPARC&lt;/span&gt;&lt;span style=&quot;color: #569cd6;&quot;&gt; &amp;nbsp; &lt;/span&gt;&lt;span style=&quot;color: #b5cea8;&quot;&gt;2&lt;/span&gt;&lt;span style=&quot;color: #6a9955;&quot;&gt; &amp;nbsp;/* SUN SPARC */&lt;/span&gt;&lt;/div&gt;&lt;div&gt;&lt;span style=&quot;color: #c586c0;&quot;&gt;#define&lt;/span&gt;&lt;span style=&quot;color: #569cd6;&quot;&gt; &lt;/span&gt;&lt;span style=&quot;color: #569cd6;&quot;&gt;EM_386&lt;/span&gt;&lt;span style=&quot;color: #569cd6;&quot;&gt; &amp;nbsp; &amp;nbsp; &lt;/span&gt;&lt;span style=&quot;color: #b5cea8;&quot;&gt;3&lt;/span&gt;&lt;span style=&quot;color: #6a9955;&quot;&gt; &amp;nbsp;/* Intel 80386 */&lt;/span&gt;&lt;/div&gt;&lt;div&gt;&lt;span style=&quot;color: #c586c0;&quot;&gt;#define&lt;/span&gt;&lt;span style=&quot;color: #569cd6;&quot;&gt; &lt;/span&gt;&lt;span style=&quot;color: #569cd6;&quot;&gt;EM_68K&lt;/span&gt;&lt;span style=&quot;color: #569cd6;&quot;&gt; &amp;nbsp; &amp;nbsp; &lt;/span&gt;&lt;span style=&quot;color: #b5cea8;&quot;&gt;4&lt;/span&gt;&lt;span style=&quot;color: #6a9955;&quot;&gt; &amp;nbsp;/* Motorola m68k family */&lt;/span&gt;&lt;/div&gt;&lt;div&gt;&lt;span style=&quot;color: #c586c0;&quot;&gt;#define&lt;/span&gt;&lt;span style=&quot;color: #569cd6;&quot;&gt; &lt;/span&gt;&lt;span style=&quot;color: #569cd6;&quot;&gt;EM_88K&lt;/span&gt;&lt;span style=&quot;color: #569cd6;&quot;&gt; &amp;nbsp; &amp;nbsp; &lt;/span&gt;&lt;span style=&quot;color: #b5cea8;&quot;&gt;5&lt;/span&gt;&lt;span style=&quot;color: #6a9955;&quot;&gt; &amp;nbsp;/* Motorola m88k family */&lt;/span&gt;&lt;/div&gt;&lt;div&gt;&lt;span style=&quot;color: #c586c0;&quot;&gt;#define&lt;/span&gt;&lt;span style=&quot;color: #569cd6;&quot;&gt; &lt;/span&gt;&lt;span style=&quot;color: #569cd6;&quot;&gt;EM_IAMCU&lt;/span&gt;&lt;span style=&quot;color: #569cd6;&quot;&gt; &amp;nbsp; &lt;/span&gt;&lt;span style=&quot;color: #b5cea8;&quot;&gt;6&lt;/span&gt;&lt;span style=&quot;color: #6a9955;&quot;&gt; &amp;nbsp;/* Intel MCU */&lt;/span&gt;&lt;/div&gt;&lt;div&gt;&lt;span style=&quot;color: #c586c0;&quot;&gt;#define&lt;/span&gt;&lt;span style=&quot;color: #569cd6;&quot;&gt; &lt;/span&gt;&lt;span style=&quot;color: #569cd6;&quot;&gt;EM_860&lt;/span&gt;&lt;span style=&quot;color: #569cd6;&quot;&gt; &amp;nbsp; &amp;nbsp; &lt;/span&gt;&lt;span style=&quot;color: #b5cea8;&quot;&gt;7&lt;/span&gt;&lt;span style=&quot;color: #6a9955;&quot;&gt; &amp;nbsp;/* Intel 80860 */&lt;/span&gt;&lt;/div&gt;&lt;div&gt;&lt;span style=&quot;color: #c586c0;&quot;&gt;#define&lt;/span&gt;&lt;span style=&quot;color: #569cd6;&quot;&gt; &lt;/span&gt;&lt;span style=&quot;color: #569cd6;&quot;&gt;EM_MIPS&lt;/span&gt;&lt;span style=&quot;color: #569cd6;&quot;&gt; &amp;nbsp; &amp;nbsp;&lt;/span&gt;&lt;span style=&quot;color: #b5cea8;&quot;&gt;8&lt;/span&gt;&lt;span style=&quot;color: #6a9955;&quot;&gt; &amp;nbsp;/* MIPS R3000 big-endian */&lt;/span&gt;&lt;/div&gt;&lt;div&gt;&lt;span style=&quot;color: #c586c0;&quot;&gt;#define&lt;/span&gt;&lt;span style=&quot;color: #569cd6;&quot;&gt; &lt;/span&gt;&lt;span style=&quot;color: #569cd6;&quot;&gt;EM_XXX&lt;/span&gt;&lt;/div&gt;&lt;/div&gt;" style="text;whiteSpace=wrap;html=1;" parent="1" vertex="1">
          <mxGeometry x="600" y="525" width="380" height="205" as="geometry" />
        </mxCell>
        <mxCell id="cGnAWdVKwM5nVpl3sOE8-97" value="" style="shape=flexArrow;endArrow=classic;html=1;rounded=0;strokeColor=#6c8ebf;fillColor=#dae8fc;exitX=0.611;exitY=0.268;exitDx=0;exitDy=0;exitPerimeter=0;entryX=0;entryY=0.5;entryDx=0;entryDy=0;" parent="1" source="cGnAWdVKwM5nVpl3sOE8-60" target="cGnAWdVKwM5nVpl3sOE8-96" edge="1">
          <mxGeometry width="50" height="50" relative="1" as="geometry">
            <mxPoint x="50" y="562" as="sourcePoint" />
            <mxPoint x="599" y="440" as="targetPoint" />
            <Array as="points">
              <mxPoint x="560" y="561" />
              <mxPoint x="560" y="628" />
            </Array>
          </mxGeometry>
        </mxCell>
        <mxCell id="cGnAWdVKwM5nVpl3sOE8-99" value="&lt;div style=&quot;color: rgb(204, 204, 204); background-color: rgb(31, 31, 31); font-family: Consolas, &amp;quot;Courier New&amp;quot;, monospace; font-weight: normal; font-size: 14px; line-height: 19px;&quot;&gt;&lt;div&gt;&lt;div style=&quot;line-height: 19px;&quot;&gt;&lt;div style=&quot;line-height: 19px;&quot;&gt;&lt;div&gt;#define&lt;span style=&quot;color: #569cd6;&quot;&gt; &lt;/span&gt;&lt;span style=&quot;color: #569cd6;&quot;&gt;EF_ARM_RELEXEC&lt;/span&gt;&lt;span style=&quot;color: #569cd6;&quot;&gt; &amp;nbsp; &amp;nbsp;&lt;/span&gt;&lt;span style=&quot;color: #b5cea8;&quot;&gt;0x01&lt;/span&gt;&lt;/div&gt;&lt;div&gt;&lt;span style=&quot;color: #c586c0;&quot;&gt;#define&lt;/span&gt;&lt;span style=&quot;color: #569cd6;&quot;&gt; &lt;/span&gt;&lt;span style=&quot;color: #569cd6;&quot;&gt;EF_ARM_HASENTRY&lt;/span&gt;&lt;span style=&quot;color: #569cd6;&quot;&gt; &amp;nbsp; &lt;/span&gt;&lt;span style=&quot;color: #b5cea8;&quot;&gt;0x02&lt;/span&gt;&lt;/div&gt;&lt;div&gt;&lt;span style=&quot;color: #c586c0;&quot;&gt;#define&lt;/span&gt;&lt;span style=&quot;color: #569cd6;&quot;&gt; &lt;/span&gt;&lt;span style=&quot;color: #569cd6;&quot;&gt;EF_ARM_INTERWORK&lt;/span&gt;&lt;span style=&quot;color: #569cd6;&quot;&gt; &amp;nbsp;&lt;/span&gt;&lt;span style=&quot;color: #b5cea8;&quot;&gt;0x04&lt;/span&gt;&lt;/div&gt;&lt;div&gt;&lt;div style=&quot;line-height: 19px;&quot;&gt;&lt;div&gt;#define&lt;span style=&quot;color: #569cd6;&quot;&gt; &lt;/span&gt;&lt;span style=&quot;color: #569cd6;&quot;&gt;EF_MIPS_PIC&lt;/span&gt;&lt;span style=&quot;color: #569cd6;&quot;&gt; &amp;nbsp; &lt;/span&gt;&lt;span style=&quot;color: #b5cea8;&quot;&gt;2&lt;/span&gt;&lt;span style=&quot;color: #6a9955;&quot;&gt; &amp;nbsp; &amp;nbsp; /* Contains PIC code. &amp;nbsp;*/&lt;/span&gt;&lt;/div&gt;&lt;div&gt;&lt;span style=&quot;color: #c586c0;&quot;&gt;#define&lt;/span&gt;&lt;span style=&quot;color: #569cd6;&quot;&gt; &lt;/span&gt;&lt;span style=&quot;color: #569cd6;&quot;&gt;EF_MIPS_CPIC&lt;/span&gt;&lt;span style=&quot;color: #569cd6;&quot;&gt; &amp;nbsp; &amp;nbsp;&lt;/span&gt;&lt;span style=&quot;color: #b5cea8;&quot;&gt;4&lt;/span&gt;&lt;span style=&quot;color: #6a9955;&quot;&gt; &amp;nbsp; &amp;nbsp; /* Uses PIC calling sequence. &amp;nbsp;*/&lt;/span&gt;&lt;/div&gt;&lt;div&gt;&lt;span style=&quot;color: #c586c0;&quot;&gt;#define&lt;/span&gt;&lt;span style=&quot;color: #569cd6;&quot;&gt; &lt;/span&gt;&lt;span style=&quot;color: #569cd6;&quot;&gt;EF_MIPS_XGOT&lt;/span&gt;&lt;span style=&quot;color: #569cd6;&quot;&gt; &amp;nbsp; &amp;nbsp;&lt;/span&gt;&lt;span style=&quot;color: #b5cea8;&quot;&gt;8&lt;/span&gt;&lt;/div&gt;&lt;/div&gt;&lt;/div&gt;&lt;/div&gt;&lt;/div&gt;&lt;/div&gt;&lt;div&gt;&lt;span style=&quot;color: #c586c0;&quot;&gt;#define&lt;/span&gt;&lt;span style=&quot;color: #569cd6;&quot;&gt; &lt;/span&gt;&lt;span style=&quot;color: #569cd6;&quot;&gt;EF_[ARCH]_XXX&lt;/span&gt;&lt;/div&gt;&lt;/div&gt;" style="text;whiteSpace=wrap;html=1;" parent="1" vertex="1">
          <mxGeometry x="600" y="740" width="490" height="140" as="geometry" />
        </mxCell>
        <mxCell id="cGnAWdVKwM5nVpl3sOE8-100" value="" style="shape=flexArrow;endArrow=classic;html=1;rounded=0;strokeColor=#6c8ebf;fillColor=#dae8fc;entryX=0;entryY=0;entryDx=0;entryDy=0;exitX=0.63;exitY=0.553;exitDx=0;exitDy=0;exitPerimeter=0;" parent="1" source="cGnAWdVKwM5nVpl3sOE8-60" target="cGnAWdVKwM5nVpl3sOE8-99" edge="1">
          <mxGeometry width="50" height="50" relative="1" as="geometry">
            <mxPoint x="114" y="658" as="sourcePoint" />
            <mxPoint x="595" y="725" as="targetPoint" />
            <Array as="points">
              <mxPoint x="560" y="658" />
              <mxPoint x="560" y="740" />
            </Array>
          </mxGeometry>
        </mxCell>
        <mxCell id="cGnAWdVKwM5nVpl3sOE8-103" value="&lt;div style=&quot;color: rgb(204, 204, 204); background-color: rgb(31, 31, 31); font-family: Consolas, &amp;quot;Courier New&amp;quot;, monospace; font-weight: normal; font-size: 14px; line-height: 19px;&quot;&gt;&lt;div&gt;&lt;span style=&quot;color: #569cd6;&quot;&gt;typedef&lt;/span&gt;&lt;span style=&quot;color: #cccccc;&quot;&gt; &lt;/span&gt;&lt;span style=&quot;color: #569cd6;&quot;&gt;struct&lt;/span&gt;&lt;/div&gt;&lt;div&gt;&lt;span style=&quot;color: #cccccc;&quot;&gt;{&lt;/span&gt;&lt;/div&gt;&lt;div&gt;&lt;span style=&quot;color: #cccccc;&quot;&gt;&amp;nbsp; &lt;/span&gt;&lt;span style=&quot;color: #4ec9b0;&quot;&gt;Elf64_Word&lt;/span&gt;&lt;span style=&quot;color: #cccccc;&quot;&gt; &amp;nbsp;&lt;/span&gt;&lt;span style=&quot;color: #9cdcfe;&quot;&gt;p_type&lt;/span&gt;&lt;span style=&quot;color: #cccccc;&quot;&gt;;&lt;/span&gt;&lt;span style=&quot;color: #6a9955;&quot;&gt; &amp;nbsp; &amp;nbsp; /* 段类型 */&lt;/span&gt;&lt;/div&gt;&lt;div&gt;&lt;span style=&quot;color: #cccccc;&quot;&gt;&amp;nbsp; &lt;/span&gt;&lt;span style=&quot;color: #4ec9b0;&quot;&gt;Elf64_Word&lt;/span&gt;&lt;span style=&quot;color: #cccccc;&quot;&gt; &amp;nbsp;&lt;/span&gt;&lt;span style=&quot;color: #9cdcfe;&quot;&gt;p_flags&lt;/span&gt;&lt;span style=&quot;color: #cccccc;&quot;&gt;;&lt;/span&gt;&lt;span style=&quot;color: #6a9955;&quot;&gt; &amp;nbsp; &amp;nbsp;/* 段标志 */&lt;/span&gt;&lt;/div&gt;&lt;div&gt;&lt;span style=&quot;color: #cccccc;&quot;&gt;&amp;nbsp; &lt;/span&gt;&lt;span style=&quot;color: #4ec9b0;&quot;&gt;Elf64_Off&lt;/span&gt;&lt;span style=&quot;color: #cccccc;&quot;&gt; &lt;/span&gt;&lt;span style=&quot;color: #9cdcfe;&quot;&gt;p_offset&lt;/span&gt;&lt;span style=&quot;color: #cccccc;&quot;&gt;;&lt;/span&gt;&lt;span style=&quot;color: #6a9955;&quot;&gt;&amp;nbsp; &amp;nbsp; &amp;nbsp;/* 段的FOA */&lt;/span&gt;&lt;/div&gt;&lt;div&gt;&lt;span style=&quot;color: #cccccc;&quot;&gt;&amp;nbsp; &lt;/span&gt;&lt;span style=&quot;color: #4ec9b0;&quot;&gt;Elf64_Addr&lt;/span&gt;&lt;span style=&quot;color: #cccccc;&quot;&gt; &amp;nbsp;&lt;/span&gt;&lt;span style=&quot;color: #9cdcfe;&quot;&gt;p_vaddr&lt;/span&gt;&lt;span style=&quot;color: #cccccc;&quot;&gt;;&lt;/span&gt;&lt;span style=&quot;color: #6a9955;&quot;&gt; &amp;nbsp; &amp;nbsp;/* 段的VA */&lt;/span&gt;&lt;/div&gt;&lt;div&gt;&lt;span style=&quot;color: #cccccc;&quot;&gt;&amp;nbsp; &lt;/span&gt;&lt;span style=&quot;color: #4ec9b0;&quot;&gt;Elf64_Addr&lt;/span&gt;&lt;span style=&quot;color: #cccccc;&quot;&gt; &amp;nbsp;&lt;/span&gt;&lt;span style=&quot;color: #9cdcfe;&quot;&gt;p_paddr&lt;/span&gt;&lt;span style=&quot;color: #cccccc;&quot;&gt;;&lt;/span&gt;&lt;span style=&quot;color: #6a9955;&quot;&gt; &amp;nbsp; &amp;nbsp;/* 段的物理地址 */&lt;/span&gt;&lt;/div&gt;&lt;div&gt;&lt;span style=&quot;color: #cccccc;&quot;&gt;&amp;nbsp; &lt;/span&gt;&lt;span style=&quot;color: #4ec9b0;&quot;&gt;Elf64_Xword&lt;/span&gt;&lt;span style=&quot;color: #cccccc;&quot;&gt; &lt;/span&gt;&lt;span style=&quot;color: #9cdcfe;&quot;&gt;p_filesz&lt;/span&gt;&lt;span style=&quot;color: #cccccc;&quot;&gt;;&lt;/span&gt;&lt;span style=&quot;color: #6a9955;&quot;&gt; &amp;nbsp; /* 段在文件中的大小 */&lt;/span&gt;&lt;/div&gt;&lt;div&gt;&lt;span style=&quot;color: #cccccc;&quot;&gt;&amp;nbsp; &lt;/span&gt;&lt;span style=&quot;color: #4ec9b0;&quot;&gt;Elf64_Xword&lt;/span&gt;&lt;span style=&quot;color: #cccccc;&quot;&gt; &lt;/span&gt;&lt;span style=&quot;color: #9cdcfe;&quot;&gt;p_memsz&lt;/span&gt;&lt;span style=&quot;color: #cccccc;&quot;&gt;;&lt;/span&gt;&lt;span style=&quot;color: #6a9955;&quot;&gt; &amp;nbsp; &amp;nbsp;/* 段在内存中的大小 */&lt;/span&gt;&lt;/div&gt;&lt;div&gt;&lt;span style=&quot;color: #cccccc;&quot;&gt;&amp;nbsp; &lt;/span&gt;&lt;span style=&quot;color: #4ec9b0;&quot;&gt;Elf64_Xword&lt;/span&gt;&lt;span style=&quot;color: #cccccc;&quot;&gt; &lt;/span&gt;&lt;span style=&quot;color: #9cdcfe;&quot;&gt;p_align&lt;/span&gt;&lt;span style=&quot;color: #cccccc;&quot;&gt;;&lt;/span&gt; &amp;nbsp; &amp;nbsp;/*&amp;nbsp;&lt;span style=&quot;color: rgb(106, 153, 85);&quot;&gt;段&lt;/span&gt;&lt;span style=&quot;color: #6a9955;&quot;&gt;的内存对齐 */&lt;/span&gt;&lt;/div&gt;&lt;div&gt;&lt;span style=&quot;color: #cccccc;&quot;&gt;} &lt;/span&gt;&lt;span style=&quot;color: #4ec9b0;&quot;&gt;Elf64_Phdr&lt;/span&gt;&lt;span style=&quot;color: #cccccc;&quot;&gt;;&lt;/span&gt;&lt;/div&gt;&lt;/div&gt;" style="text;whiteSpace=wrap;html=1;" parent="1" vertex="1">
          <mxGeometry x="590" y="930" width="370" height="220" as="geometry" />
        </mxCell>
        <mxCell id="cGnAWdVKwM5nVpl3sOE8-104" value="" style="shape=flexArrow;endArrow=classic;html=1;rounded=0;strokeColor=#d6b656;fillColor=#fff2cc;exitX=0.815;exitY=0.441;exitDx=0;exitDy=0;exitPerimeter=0;entryX=0.5;entryY=0;entryDx=0;entryDy=0;" parent="1" source="cGnAWdVKwM5nVpl3sOE8-60" target="cGnAWdVKwM5nVpl3sOE8-103" edge="1">
          <mxGeometry width="50" height="50" relative="1" as="geometry">
            <mxPoint x="460" y="620" as="sourcePoint" />
            <mxPoint x="490" y="940" as="targetPoint" />
            <Array as="points">
              <mxPoint x="530" y="620" />
              <mxPoint x="530" y="900" />
              <mxPoint x="775" y="900" />
            </Array>
          </mxGeometry>
        </mxCell>
        <mxCell id="cGnAWdVKwM5nVpl3sOE8-131" value="FOA" style="edgeLabel;html=1;align=center;verticalAlign=middle;resizable=0;points=[];" parent="cGnAWdVKwM5nVpl3sOE8-104" vertex="1" connectable="0">
          <mxGeometry x="-0.8439" y="1" relative="1" as="geometry">
            <mxPoint as="offset" />
          </mxGeometry>
        </mxCell>
        <mxCell id="cGnAWdVKwM5nVpl3sOE8-105" value="&lt;div style=&quot;background-color: rgb(31, 31, 31); line-height: 19px;&quot;&gt;&lt;div style=&quot;color: rgb(204, 204, 204); font-family: Consolas, &amp;quot;Courier New&amp;quot;, monospace; font-size: 14px; font-weight: normal;&quot;&gt;&lt;span style=&quot;color: #569cd6;&quot;&gt;typedef&lt;/span&gt;&lt;span style=&quot;color: #cccccc;&quot;&gt; &lt;/span&gt;&lt;span style=&quot;color: #569cd6;&quot;&gt;struct&lt;/span&gt;&lt;/div&gt;&lt;div style=&quot;color: rgb(204, 204, 204); font-family: Consolas, &amp;quot;Courier New&amp;quot;, monospace; font-size: 14px; font-weight: normal;&quot;&gt;&lt;span style=&quot;color: #cccccc;&quot;&gt;{&lt;/span&gt;&lt;/div&gt;&lt;div style=&quot;color: rgb(204, 204, 204); font-family: Consolas, &amp;quot;Courier New&amp;quot;, monospace; font-size: 14px; font-weight: normal;&quot;&gt;&lt;span style=&quot;color: #cccccc;&quot;&gt;&amp;nbsp; &lt;/span&gt;&lt;span style=&quot;color: #4ec9b0;&quot;&gt;Elf64_Word&lt;/span&gt;&lt;span style=&quot;color: #cccccc;&quot;&gt; &amp;nbsp;&lt;/span&gt;&lt;span style=&quot;color: #9cdcfe;&quot;&gt;sh_name&lt;/span&gt;&lt;span style=&quot;color: #cccccc;&quot;&gt;;&lt;/span&gt;&lt;span style=&quot;color: #6a9955;&quot;&gt; &amp;nbsp; &amp;nbsp;/* 节名称 (string tbl index) */&lt;/span&gt;&lt;/div&gt;&lt;div style=&quot;color: rgb(204, 204, 204); font-family: Consolas, &amp;quot;Courier New&amp;quot;, monospace; font-size: 14px; font-weight: normal;&quot;&gt;&lt;span style=&quot;color: #cccccc;&quot;&gt;&amp;nbsp; &lt;/span&gt;&lt;span style=&quot;color: #4ec9b0;&quot;&gt;Elf64_Word&lt;/span&gt;&lt;span style=&quot;color: #cccccc;&quot;&gt; &amp;nbsp;&lt;/span&gt;&lt;span style=&quot;color: #9cdcfe;&quot;&gt;sh_type&lt;/span&gt;&lt;span style=&quot;color: #cccccc;&quot;&gt;;&lt;/span&gt;&lt;span style=&quot;color: #6a9955;&quot;&gt; &amp;nbsp; &amp;nbsp;/* 节类型 */&lt;/span&gt;&lt;/div&gt;&lt;div style=&quot;color: rgb(204, 204, 204); font-family: Consolas, &amp;quot;Courier New&amp;quot;, monospace; font-size: 14px; font-weight: normal;&quot;&gt;&lt;span style=&quot;color: #cccccc;&quot;&gt;&amp;nbsp; &lt;/span&gt;&lt;span style=&quot;color: #4ec9b0;&quot;&gt;Elf64_Xword&lt;/span&gt;&lt;span style=&quot;color: #cccccc;&quot;&gt; &lt;/span&gt;&lt;span style=&quot;color: #9cdcfe;&quot;&gt;sh_flags&lt;/span&gt;&lt;span style=&quot;color: #cccccc;&quot;&gt;;&lt;/span&gt;&lt;span style=&quot;color: #6a9955;&quot;&gt; &amp;nbsp; /* 节标志 */&lt;/span&gt;&lt;/div&gt;&lt;div style=&quot;color: rgb(204, 204, 204); font-family: Consolas, &amp;quot;Courier New&amp;quot;, monospace; font-size: 14px; font-weight: normal;&quot;&gt;&lt;span style=&quot;color: #cccccc;&quot;&gt;&amp;nbsp; &lt;/span&gt;&lt;span style=&quot;color: #4ec9b0;&quot;&gt;Elf64_Addr&lt;/span&gt;&lt;span style=&quot;color: #cccccc;&quot;&gt; &amp;nbsp;&lt;/span&gt;&lt;span style=&quot;color: #9cdcfe;&quot;&gt;sh_addr&lt;/span&gt;&lt;span style=&quot;color: #cccccc;&quot;&gt;;&lt;/span&gt;&lt;span style=&quot;color: #6a9955;&quot;&gt; &amp;nbsp; &amp;nbsp;/* 节的VA */&lt;/span&gt;&lt;/div&gt;&lt;div style=&quot;color: rgb(204, 204, 204); font-family: Consolas, &amp;quot;Courier New&amp;quot;, monospace; font-size: 14px; font-weight: normal;&quot;&gt;&lt;span style=&quot;color: #cccccc;&quot;&gt;&amp;nbsp; &lt;/span&gt;&lt;span style=&quot;color: #4ec9b0;&quot;&gt;Elf64_Off&lt;/span&gt;&lt;span style=&quot;color: #cccccc;&quot;&gt; &lt;/span&gt;&lt;span style=&quot;color: #9cdcfe;&quot;&gt;sh_offset&lt;/span&gt;&lt;span style=&quot;color: #cccccc;&quot;&gt;;&lt;/span&gt;&lt;span style=&quot;color: #6a9955;&quot;&gt; &amp;nbsp; &amp;nbsp;/* 节的FOA */&lt;/span&gt;&lt;/div&gt;&lt;div style=&quot;color: rgb(204, 204, 204); font-family: Consolas, &amp;quot;Courier New&amp;quot;, monospace; font-size: 14px; font-weight: normal;&quot;&gt;&lt;span style=&quot;color: #cccccc;&quot;&gt;&amp;nbsp; &lt;/span&gt;&lt;span style=&quot;color: #4ec9b0;&quot;&gt;Elf64_Xword&lt;/span&gt;&lt;span style=&quot;color: #cccccc;&quot;&gt; &lt;/span&gt;&lt;span style=&quot;color: #9cdcfe;&quot;&gt;sh_size&lt;/span&gt;&lt;span style=&quot;color: #cccccc;&quot;&gt;;&lt;/span&gt;&lt;span style=&quot;color: #6a9955;&quot;&gt; &amp;nbsp; &amp;nbsp;/* 节的大小(以字节为单位) */&lt;/span&gt;&lt;/div&gt;&lt;div style=&quot;&quot;&gt;&lt;span style=&quot;color: rgb(204, 204, 204); font-family: Consolas, &amp;quot;Courier New&amp;quot;, monospace; font-size: 14px; font-weight: normal;&quot;&gt;&amp;nbsp; &lt;/span&gt;&lt;span style=&quot;color: rgb(78, 201, 176); font-family: Consolas, &amp;quot;Courier New&amp;quot;, monospace; font-size: 14px; font-weight: normal;&quot;&gt;Elf64_Word&lt;/span&gt;&lt;span style=&quot;color: rgb(204, 204, 204); font-family: Consolas, &amp;quot;Courier New&amp;quot;, monospace; font-size: 14px; font-weight: normal;&quot;&gt; &amp;nbsp;&lt;/span&gt;&lt;span style=&quot;color: rgb(156, 220, 254); font-family: Consolas, &amp;quot;Courier New&amp;quot;, monospace; font-size: 14px; font-weight: normal;&quot;&gt;sh_link&lt;/span&gt;&lt;span style=&quot;color: rgb(204, 204, 204); font-family: Consolas, &amp;quot;Courier New&amp;quot;, monospace; font-size: 14px; font-weight: normal;&quot;&gt;;&lt;/span&gt;&lt;font face=&quot;Consolas, Courier New, monospace&quot; color=&quot;#6a9955&quot;&gt; &amp;nbsp; &amp;nbsp;/* 链接到另一个节 */&lt;/font&gt;&lt;/div&gt;&lt;div style=&quot;&quot;&gt;&lt;span style=&quot;color: rgb(204, 204, 204); font-family: Consolas, &amp;quot;Courier New&amp;quot;, monospace; font-size: 14px; font-weight: normal;&quot;&gt;&amp;nbsp; &lt;/span&gt;&lt;span style=&quot;color: rgb(78, 201, 176); font-family: Consolas, &amp;quot;Courier New&amp;quot;, monospace; font-size: 14px; font-weight: normal;&quot;&gt;Elf64_Word&lt;/span&gt;&lt;span style=&quot;color: rgb(204, 204, 204); font-family: Consolas, &amp;quot;Courier New&amp;quot;, monospace; font-size: 14px; font-weight: normal;&quot;&gt; &amp;nbsp;&lt;/span&gt;&lt;span style=&quot;color: rgb(156, 220, 254); font-family: Consolas, &amp;quot;Courier New&amp;quot;, monospace; font-size: 14px; font-weight: normal;&quot;&gt;sh_info&lt;/span&gt;&lt;span style=&quot;color: rgb(204, 204, 204); font-family: Consolas, &amp;quot;Courier New&amp;quot;, monospace; font-size: 14px; font-weight: normal;&quot;&gt;;&lt;/span&gt;&lt;font face=&quot;Consolas, Courier New, monospace&quot; color=&quot;#6a9955&quot;&gt; &amp;nbsp; &amp;nbsp;/* 附加节信息(取决于节类型) */&lt;/font&gt;&lt;/div&gt;&lt;div style=&quot;color: rgb(204, 204, 204); font-family: Consolas, &amp;quot;Courier New&amp;quot;, monospace; font-size: 14px; font-weight: normal;&quot;&gt;&lt;span style=&quot;color: #cccccc;&quot;&gt;&amp;nbsp; &lt;/span&gt;&lt;span style=&quot;color: #4ec9b0;&quot;&gt;Elf64_Xword&lt;/span&gt;&lt;span style=&quot;color: #cccccc;&quot;&gt; &lt;/span&gt;&lt;span style=&quot;color: #9cdcfe;&quot;&gt;sh_addralign&lt;/span&gt;&lt;span style=&quot;color: #cccccc;&quot;&gt;;&lt;/span&gt;&lt;span style=&quot;color: #6a9955;&quot;&gt; &amp;nbsp; /* 节内存对齐 */&lt;/span&gt;&lt;/div&gt;&lt;div style=&quot;&quot;&gt;&lt;span style=&quot;color: rgb(204, 204, 204); font-family: Consolas, &amp;quot;Courier New&amp;quot;, monospace; font-size: 14px; font-weight: normal;&quot;&gt;&amp;nbsp; &lt;/span&gt;&lt;span style=&quot;color: rgb(78, 201, 176); font-family: Consolas, &amp;quot;Courier New&amp;quot;, monospace; font-size: 14px; font-weight: normal;&quot;&gt;Elf64_Xword&lt;/span&gt;&lt;span style=&quot;color: rgb(204, 204, 204); font-family: Consolas, &amp;quot;Courier New&amp;quot;, monospace; font-size: 14px; font-weight: normal;&quot;&gt; &lt;/span&gt;&lt;span style=&quot;color: rgb(156, 220, 254); font-family: Consolas, &amp;quot;Courier New&amp;quot;, monospace; font-size: 14px; font-weight: normal;&quot;&gt;sh_entsize&lt;/span&gt;&lt;span style=&quot;color: rgb(204, 204, 204); font-family: Consolas, &amp;quot;Courier New&amp;quot;, monospace; font-size: 14px; font-weight: normal;&quot;&gt;;&lt;/span&gt;&lt;font face=&quot;Consolas, Courier New, monospace&quot; color=&quot;#6a9955&quot;&gt; &amp;nbsp; /* 如果节包含表，则每个条目大小&amp;nbsp;*/&lt;/font&gt;&lt;/div&gt;&lt;div style=&quot;color: rgb(204, 204, 204); font-family: Consolas, &amp;quot;Courier New&amp;quot;, monospace; font-size: 14px; font-weight: normal;&quot;&gt;&lt;span style=&quot;color: #cccccc;&quot;&gt;} &lt;/span&gt;&lt;span style=&quot;color: #4ec9b0;&quot;&gt;Elf64_Shdr&lt;/span&gt;&lt;span style=&quot;color: #cccccc;&quot;&gt;;&lt;/span&gt;&lt;/div&gt;&lt;/div&gt;" style="text;whiteSpace=wrap;html=1;" parent="1" vertex="1">
          <mxGeometry x="590" y="1190" width="440" height="260" as="geometry" />
        </mxCell>
        <mxCell id="cGnAWdVKwM5nVpl3sOE8-106" value="" style="shape=flexArrow;endArrow=classic;html=1;rounded=0;strokeColor=#d6b656;fillColor=#fff2cc;exitX=0.815;exitY=0.5;exitDx=0;exitDy=0;exitPerimeter=0;entryX=0.5;entryY=0;entryDx=0;entryDy=0;" parent="1" source="cGnAWdVKwM5nVpl3sOE8-60" target="cGnAWdVKwM5nVpl3sOE8-105" edge="1">
          <mxGeometry width="50" height="50" relative="1" as="geometry">
            <mxPoint x="450" y="640" as="sourcePoint" />
            <mxPoint x="820" y="950" as="targetPoint" />
            <Array as="points">
              <mxPoint x="500" y="640" />
              <mxPoint x="500" y="1160" />
              <mxPoint x="810" y="1160" />
            </Array>
          </mxGeometry>
        </mxCell>
        <mxCell id="cGnAWdVKwM5nVpl3sOE8-132" value="FOA" style="edgeLabel;html=1;align=center;verticalAlign=middle;resizable=0;points=[];" parent="cGnAWdVKwM5nVpl3sOE8-106" vertex="1" connectable="0">
          <mxGeometry x="-0.9189" relative="1" as="geometry">
            <mxPoint x="-20" as="offset" />
          </mxGeometry>
        </mxCell>
        <mxCell id="cGnAWdVKwM5nVpl3sOE8-107" value="&lt;div style=&quot;background-color: rgb(31, 31, 31); line-height: 19px;&quot;&gt;&lt;div style=&quot;color: rgb(204, 204, 204); font-family: Consolas, &amp;quot;Courier New&amp;quot;, monospace; font-size: 14px; font-weight: normal;&quot;&gt;&lt;span style=&quot;color: rgb(197, 134, 192);&quot;&gt;#define&lt;/span&gt;&lt;span style=&quot;color: rgb(86, 156, 214);&quot;&gt; &lt;/span&gt;&lt;span style=&quot;color: rgb(86, 156, 214);&quot;&gt;PT_NULL&lt;/span&gt;&lt;span style=&quot;color: rgb(86, 156, 214);&quot;&gt; &amp;nbsp; &lt;/span&gt;&lt;span style=&quot;color: rgb(181, 206, 168);&quot;&gt;0&lt;/span&gt;&lt;span style=&quot;color: rgb(106, 153, 85);&quot;&gt; &amp;nbsp; /* Program header table entry unused */&lt;/span&gt;&lt;br&gt;&lt;/div&gt;&lt;div style=&quot;&quot;&gt;&lt;span style=&quot;color: rgb(197, 134, 192); font-family: Consolas, &amp;quot;Courier New&amp;quot;, monospace; font-size: 14px; font-weight: normal;&quot;&gt;#define&lt;/span&gt;&lt;span style=&quot;color: rgb(86, 156, 214); font-family: Consolas, &amp;quot;Courier New&amp;quot;, monospace; font-size: 14px; font-weight: normal;&quot;&gt; &lt;/span&gt;&lt;span style=&quot;color: rgb(86, 156, 214); font-family: Consolas, &amp;quot;Courier New&amp;quot;, monospace; font-size: 14px; font-weight: normal;&quot;&gt;PT_LOAD&lt;/span&gt;&lt;span style=&quot;color: rgb(86, 156, 214); font-family: Consolas, &amp;quot;Courier New&amp;quot;, monospace; font-size: 14px; font-weight: normal;&quot;&gt; &amp;nbsp; &lt;/span&gt;&lt;span style=&quot;color: rgb(181, 206, 168); font-family: Consolas, &amp;quot;Courier New&amp;quot;, monospace; font-size: 14px; font-weight: normal;&quot;&gt;1&lt;/span&gt;&lt;font face=&quot;Consolas, Courier New, monospace&quot; color=&quot;#6a9955&quot;&gt; &amp;nbsp; /* 可加载程序段&amp;nbsp;*/&lt;/font&gt;&lt;/div&gt;&lt;div style=&quot;&quot;&gt;&lt;span style=&quot;color: rgb(197, 134, 192); font-family: Consolas, &amp;quot;Courier New&amp;quot;, monospace; font-size: 14px; font-weight: normal;&quot;&gt;#define&lt;/span&gt;&lt;span style=&quot;color: rgb(86, 156, 214); font-family: Consolas, &amp;quot;Courier New&amp;quot;, monospace; font-size: 14px; font-weight: normal;&quot;&gt; &lt;/span&gt;&lt;span style=&quot;color: rgb(86, 156, 214); font-family: Consolas, &amp;quot;Courier New&amp;quot;, monospace; font-size: 14px; font-weight: normal;&quot;&gt;PT_DYNAMIC&lt;/span&gt;&lt;span style=&quot;color: rgb(86, 156, 214); font-family: Consolas, &amp;quot;Courier New&amp;quot;, monospace; font-size: 14px; font-weight: normal;&quot;&gt; &amp;nbsp;&lt;/span&gt;&lt;span style=&quot;color: rgb(181, 206, 168); font-family: Consolas, &amp;quot;Courier New&amp;quot;, monospace; font-size: 14px; font-weight: normal;&quot;&gt;2&lt;/span&gt;&lt;font face=&quot;Consolas, Courier New, monospace&quot; color=&quot;#6a9955&quot;&gt; &amp;nbsp; /* 动态链接信息&amp;nbsp;*/&lt;/font&gt;&lt;/div&gt;&lt;div style=&quot;&quot;&gt;&lt;span style=&quot;color: rgb(197, 134, 192); font-family: Consolas, &amp;quot;Courier New&amp;quot;, monospace; font-size: 14px; font-weight: normal;&quot;&gt;#define&lt;/span&gt;&lt;span style=&quot;color: rgb(86, 156, 214); font-family: Consolas, &amp;quot;Courier New&amp;quot;, monospace; font-size: 14px; font-weight: normal;&quot;&gt; &lt;/span&gt;&lt;span style=&quot;color: rgb(86, 156, 214); font-family: Consolas, &amp;quot;Courier New&amp;quot;, monospace; font-size: 14px; font-weight: normal;&quot;&gt;PT_INTERP&lt;/span&gt;&lt;span style=&quot;color: rgb(86, 156, 214); font-family: Consolas, &amp;quot;Courier New&amp;quot;, monospace; font-size: 14px; font-weight: normal;&quot;&gt; &lt;/span&gt;&lt;span style=&quot;color: rgb(181, 206, 168); font-family: Consolas, &amp;quot;Courier New&amp;quot;, monospace; font-size: 14px; font-weight: normal;&quot;&gt;3&lt;/span&gt;&lt;font face=&quot;Consolas, Courier New, monospace&quot; color=&quot;#6a9955&quot;&gt; &amp;nbsp; /* 程序解释器&amp;nbsp;*/&lt;/font&gt;&lt;/div&gt;&lt;div style=&quot;&quot;&gt;&lt;span style=&quot;color: rgb(197, 134, 192); font-family: Consolas, &amp;quot;Courier New&amp;quot;, monospace; font-size: 14px; font-weight: normal;&quot;&gt;#define&lt;/span&gt;&lt;span style=&quot;color: rgb(86, 156, 214); font-family: Consolas, &amp;quot;Courier New&amp;quot;, monospace; font-size: 14px; font-weight: normal;&quot;&gt; &lt;/span&gt;&lt;span style=&quot;color: rgb(86, 156, 214); font-family: Consolas, &amp;quot;Courier New&amp;quot;, monospace; font-size: 14px; font-weight: normal;&quot;&gt;PT_NOTE&lt;/span&gt;&lt;span style=&quot;color: rgb(86, 156, 214); font-family: Consolas, &amp;quot;Courier New&amp;quot;, monospace; font-size: 14px; font-weight: normal;&quot;&gt; &amp;nbsp; &lt;/span&gt;&lt;span style=&quot;color: rgb(181, 206, 168); font-family: Consolas, &amp;quot;Courier New&amp;quot;, monospace; font-size: 14px; font-weight: normal;&quot;&gt;4&lt;/span&gt;&lt;font face=&quot;Consolas, Courier New, monospace&quot; color=&quot;#6a9955&quot;&gt; &amp;nbsp; /* 辅助信息&amp;nbsp;*/&lt;/font&gt;&lt;/div&gt;&lt;div style=&quot;color: rgb(204, 204, 204); font-family: Consolas, &amp;quot;Courier New&amp;quot;, monospace; font-size: 14px; font-weight: normal;&quot;&gt;&lt;span style=&quot;color: #c586c0;&quot;&gt;#define&lt;/span&gt;&lt;span style=&quot;color: #569cd6;&quot;&gt; &lt;/span&gt;&lt;span style=&quot;color: #569cd6;&quot;&gt;PT_SHLIB&lt;/span&gt;&lt;span style=&quot;color: #569cd6;&quot;&gt; &amp;nbsp;&lt;/span&gt;&lt;span style=&quot;color: #b5cea8;&quot;&gt;5&lt;/span&gt;&lt;span style=&quot;color: #6a9955;&quot;&gt; &amp;nbsp; /* Reserved */&lt;/span&gt;&lt;/div&gt;&lt;div style=&quot;&quot;&gt;&lt;span style=&quot;color: rgb(197, 134, 192); font-family: Consolas, &amp;quot;Courier New&amp;quot;, monospace; font-size: 14px; font-weight: normal;&quot;&gt;#define&lt;/span&gt;&lt;span style=&quot;color: rgb(86, 156, 214); font-family: Consolas, &amp;quot;Courier New&amp;quot;, monospace; font-size: 14px; font-weight: normal;&quot;&gt; &lt;/span&gt;&lt;span style=&quot;color: rgb(86, 156, 214); font-family: Consolas, &amp;quot;Courier New&amp;quot;, monospace; font-size: 14px; font-weight: normal;&quot;&gt;PT_PHDR&lt;/span&gt;&lt;span style=&quot;color: rgb(86, 156, 214); font-family: Consolas, &amp;quot;Courier New&amp;quot;, monospace; font-size: 14px; font-weight: normal;&quot;&gt; &amp;nbsp; &lt;/span&gt;&lt;span style=&quot;color: rgb(181, 206, 168); font-family: Consolas, &amp;quot;Courier New&amp;quot;, monospace; font-size: 14px; font-weight: normal;&quot;&gt;6&lt;/span&gt;&lt;font face=&quot;Consolas, Courier New, monospace&quot; color=&quot;#6a9955&quot;&gt; &amp;nbsp; /* 头表本身 */&lt;/font&gt;&lt;/div&gt;&lt;div style=&quot;&quot;&gt;&lt;span style=&quot;color: rgb(197, 134, 192); font-family: Consolas, &amp;quot;Courier New&amp;quot;, monospace; font-size: 14px; font-weight: normal;&quot;&gt;#define&lt;/span&gt;&lt;span style=&quot;color: rgb(86, 156, 214); font-family: Consolas, &amp;quot;Courier New&amp;quot;, monospace; font-size: 14px; font-weight: normal;&quot;&gt; &lt;/span&gt;&lt;span style=&quot;color: rgb(86, 156, 214); font-family: Consolas, &amp;quot;Courier New&amp;quot;, monospace; font-size: 14px; font-weight: normal;&quot;&gt;PT_TLS&lt;/span&gt;&lt;span style=&quot;color: rgb(86, 156, 214); font-family: Consolas, &amp;quot;Courier New&amp;quot;, monospace; font-size: 14px; font-weight: normal;&quot;&gt; &amp;nbsp; &amp;nbsp;&lt;/span&gt;&lt;span style=&quot;color: rgb(181, 206, 168); font-family: Consolas, &amp;quot;Courier New&amp;quot;, monospace; font-size: 14px; font-weight: normal;&quot;&gt;7&lt;/span&gt;&lt;font face=&quot;Consolas, Courier New, monospace&quot; color=&quot;#6a9955&quot;&gt; &amp;nbsp; /* 线程本地存储段&amp;nbsp;*/&lt;/font&gt;&lt;/div&gt;&lt;div style=&quot;color: rgb(204, 204, 204); font-family: Consolas, &amp;quot;Courier New&amp;quot;, monospace; font-size: 14px; font-weight: normal;&quot;&gt;#define&lt;span style=&quot;border-color: var(--border-color); color: rgb(86, 156, 214);&quot;&gt;&amp;nbsp;&lt;/span&gt;&lt;span style=&quot;border-color: var(--border-color); color: rgb(86, 156, 214);&quot;&gt;PT_XXX&lt;/span&gt;&lt;/div&gt;&lt;/div&gt;" style="text;whiteSpace=wrap;html=1;" parent="1" vertex="1">
          <mxGeometry x="1240" y="100" width="480" height="180" as="geometry" />
        </mxCell>
        <mxCell id="cGnAWdVKwM5nVpl3sOE8-108" value="" style="shape=flexArrow;endArrow=classic;html=1;rounded=0;strokeColor=#6c8ebf;fillColor=#dae8fc;entryX=0;entryY=0.5;entryDx=0;entryDy=0;" parent="1" target="cGnAWdVKwM5nVpl3sOE8-107" edge="1">
          <mxGeometry width="50" height="50" relative="1" as="geometry">
            <mxPoint x="880" y="985" as="sourcePoint" />
            <mxPoint x="1208" y="1067" as="targetPoint" />
            <Array as="points">
              <mxPoint x="1110" y="985" />
              <mxPoint x="1110" y="190" />
            </Array>
          </mxGeometry>
        </mxCell>
        <mxCell id="cGnAWdVKwM5nVpl3sOE8-109" value="&lt;div style=&quot;background-color: rgb(31, 31, 31); line-height: 19px;&quot;&gt;&lt;div style=&quot;color: rgb(204, 204, 204); font-family: Consolas, &amp;quot;Courier New&amp;quot;, monospace; font-size: 14px; font-weight: normal;&quot;&gt;&lt;span style=&quot;color: #c586c0;&quot;&gt;#define&lt;/span&gt;&lt;span style=&quot;color: #569cd6;&quot;&gt; &lt;/span&gt;&lt;span style=&quot;color: #569cd6;&quot;&gt;PF_X&lt;/span&gt;&lt;span style=&quot;color: #569cd6;&quot;&gt; &amp;nbsp; &amp;nbsp;(1 &amp;lt;&amp;lt; 0)&lt;/span&gt;&lt;span style=&quot;color: #6a9955;&quot;&gt; &amp;nbsp;/* 段可执行 */&lt;/span&gt;&lt;/div&gt;&lt;div style=&quot;color: rgb(204, 204, 204); font-family: Consolas, &amp;quot;Courier New&amp;quot;, monospace; font-size: 14px; font-weight: normal;&quot;&gt;&lt;span style=&quot;color: #c586c0;&quot;&gt;#define&lt;/span&gt;&lt;span style=&quot;color: #569cd6;&quot;&gt; &lt;/span&gt;&lt;span style=&quot;color: #569cd6;&quot;&gt;PF_W&lt;/span&gt;&lt;span style=&quot;color: #569cd6;&quot;&gt; &amp;nbsp; &amp;nbsp;(1 &amp;lt;&amp;lt; 1)&lt;/span&gt;&lt;span style=&quot;color: #6a9955;&quot;&gt; &amp;nbsp;/* 段可写 */&lt;/span&gt;&lt;/div&gt;&lt;div style=&quot;color: rgb(204, 204, 204); font-family: Consolas, &amp;quot;Courier New&amp;quot;, monospace; font-size: 14px; font-weight: normal;&quot;&gt;&lt;span style=&quot;color: #c586c0;&quot;&gt;#define&lt;/span&gt;&lt;span style=&quot;color: #569cd6;&quot;&gt; &lt;/span&gt;&lt;span style=&quot;color: #569cd6;&quot;&gt;PF_R&lt;/span&gt;&lt;span style=&quot;color: #569cd6;&quot;&gt; &amp;nbsp; &amp;nbsp;(1 &amp;lt;&amp;lt; 2)&lt;/span&gt;&lt;span style=&quot;color: #6a9955;&quot;&gt; &amp;nbsp;/* 段可读 */&lt;/span&gt;&lt;/div&gt;&lt;div style=&quot;&quot;&gt;&lt;span style=&quot;color: rgb(197, 134, 192); font-family: Consolas, &amp;quot;Courier New&amp;quot;, monospace; font-size: 14px; font-weight: normal;&quot;&gt;#define&lt;/span&gt;&lt;span style=&quot;color: rgb(86, 156, 214); font-family: Consolas, &amp;quot;Courier New&amp;quot;, monospace; font-size: 14px; font-weight: normal;&quot;&gt; &lt;/span&gt;&lt;span style=&quot;color: rgb(86, 156, 214); font-family: Consolas, &amp;quot;Courier New&amp;quot;, monospace; font-size: 14px; font-weight: normal;&quot;&gt;PF_MASKOS&lt;/span&gt;&lt;span style=&quot;color: rgb(86, 156, 214); font-family: Consolas, &amp;quot;Courier New&amp;quot;, monospace; font-size: 14px; font-weight: normal;&quot;&gt; &lt;/span&gt;&lt;span style=&quot;color: rgb(181, 206, 168); font-family: Consolas, &amp;quot;Courier New&amp;quot;, monospace; font-size: 14px; font-weight: normal;&quot;&gt;0x0ff00000&lt;/span&gt;&lt;font face=&quot;Consolas, Courier New, monospace&quot; color=&quot;#6a9955&quot;&gt; &amp;nbsp;/* 特定于操作系统 PF_[OS]_XXX */&lt;/font&gt;&lt;/div&gt;&lt;div style=&quot;color: rgb(204, 204, 204); font-family: Consolas, &amp;quot;Courier New&amp;quot;, monospace; font-size: 14px; font-weight: normal;&quot;&gt;&lt;span style=&quot;color: #c586c0;&quot;&gt;#define&lt;/span&gt;&lt;span style=&quot;color: #569cd6;&quot;&gt; &lt;/span&gt;&lt;span style=&quot;color: #569cd6;&quot;&gt;PF_MASKPROC&lt;/span&gt;&lt;span style=&quot;color: #569cd6;&quot;&gt; &lt;/span&gt;&lt;span style=&quot;color: #b5cea8;&quot;&gt;0xf0000000&lt;/span&gt; &amp;nbsp;/*&amp;nbsp;&lt;span style=&quot;color: rgb(106, 153, 85); font-size: 12px;&quot;&gt;特定于处理器&lt;/span&gt;&amp;nbsp;&lt;span style=&quot;color: rgb(106, 153, 85); font-size: 12px;&quot;&gt;PF_[ARCH]_XXX&lt;/span&gt;&lt;span style=&quot;color: rgb(106, 153, 85);&quot;&gt;&amp;nbsp;*/&lt;/span&gt;&lt;/div&gt;&lt;/div&gt;" style="text;whiteSpace=wrap;html=1;" parent="1" vertex="1">
          <mxGeometry x="1240" y="320" width="470" height="120" as="geometry" />
        </mxCell>
        <mxCell id="cGnAWdVKwM5nVpl3sOE8-110" value="" style="shape=flexArrow;endArrow=classic;html=1;rounded=0;strokeColor=#6c8ebf;fillColor=#dae8fc;entryX=0;entryY=0.25;entryDx=0;entryDy=0;exitX=0.784;exitY=0.318;exitDx=0;exitDy=0;exitPerimeter=0;" parent="1" source="cGnAWdVKwM5nVpl3sOE8-103" target="cGnAWdVKwM5nVpl3sOE8-109" edge="1">
          <mxGeometry width="50" height="50" relative="1" as="geometry">
            <mxPoint x="890" y="1000" as="sourcePoint" />
            <mxPoint x="1200" y="820" as="targetPoint" />
            <Array as="points">
              <mxPoint x="1130" y="1000" />
              <mxPoint x="1130" y="350" />
            </Array>
          </mxGeometry>
        </mxCell>
        <mxCell id="cGnAWdVKwM5nVpl3sOE8-112" value="" style="group;fillColor=#d5e8d4;strokeColor=#82b366;" parent="1" vertex="1" connectable="0">
          <mxGeometry x="600" width="410" height="310" as="geometry" />
        </mxCell>
        <mxCell id="cGnAWdVKwM5nVpl3sOE8-61" value="&lt;div style=&quot;color: rgb(204, 204, 204); background-color: rgb(31, 31, 31); font-family: Consolas, &amp;quot;Courier New&amp;quot;, monospace; font-weight: normal; font-size: 14px; line-height: 19px;&quot;&gt;&lt;div&gt;&lt;span style=&quot;color: #c586c0;&quot;&gt;#define&lt;/span&gt;&lt;span style=&quot;color: #569cd6;&quot;&gt; &lt;/span&gt;&lt;span style=&quot;color: #569cd6;&quot;&gt;ELFMAG&lt;/span&gt;&lt;span style=&quot;color: #569cd6;&quot;&gt; &amp;nbsp; &amp;nbsp;&lt;/span&gt;&lt;span style=&quot;color: #ce9178;&quot;&gt;&quot;&lt;/span&gt;&lt;span style=&quot;color: #d7ba7d;&quot;&gt;\177&lt;/span&gt;&lt;span style=&quot;color: #ce9178;&quot;&gt;ELF&quot;&amp;nbsp;&lt;/span&gt;/* 魔数 */&lt;/div&gt;&lt;div&gt;&lt;span style=&quot;color: #c586c0;&quot;&gt;#define&lt;/span&gt;&lt;span style=&quot;color: #569cd6;&quot;&gt; &lt;/span&gt;&lt;span style=&quot;color: #569cd6;&quot;&gt;SELFMAG&lt;/span&gt;&lt;span style=&quot;color: #569cd6;&quot;&gt; &amp;nbsp; &lt;/span&gt;&lt;span style=&quot;color: #b5cea8;&quot;&gt;4&lt;/span&gt;&lt;/div&gt;&lt;/div&gt;" style="text;whiteSpace=wrap;html=1;" parent="cGnAWdVKwM5nVpl3sOE8-112" vertex="1">
          <mxGeometry x="10.529999999999973" y="10.24" width="299.47" height="51.22" as="geometry" />
        </mxCell>
        <mxCell id="cGnAWdVKwM5nVpl3sOE8-62" value="&lt;div style=&quot;color: rgb(204, 204, 204); background-color: rgb(31, 31, 31); font-family: Consolas, &amp;quot;Courier New&amp;quot;, monospace; font-weight: normal; font-size: 14px; line-height: 19px;&quot;&gt;&lt;div&gt;&lt;span style=&quot;color: #c586c0;&quot;&gt;#define&lt;/span&gt;&lt;span style=&quot;color: #569cd6;&quot;&gt; &lt;/span&gt;&lt;span style=&quot;color: #569cd6;&quot;&gt;EI_CLASS&lt;/span&gt;&lt;span style=&quot;color: #569cd6;&quot;&gt; &amp;nbsp;&lt;/span&gt;&lt;span style=&quot;color: #b5cea8;&quot;&gt;4&lt;/span&gt;&lt;span style=&quot;color: #6a9955;&quot;&gt; &amp;nbsp; /* 文件位数 */&lt;/span&gt;&lt;/div&gt;&lt;div&gt;&lt;span style=&quot;color: #c586c0;&quot;&gt;#define&lt;/span&gt;&lt;span style=&quot;color: #569cd6;&quot;&gt; &lt;/span&gt;&lt;span style=&quot;color: #569cd6;&quot;&gt;ELFCLASSXXX&lt;/span&gt;&lt;/div&gt;&lt;/div&gt;" style="text;whiteSpace=wrap;html=1;" parent="cGnAWdVKwM5nVpl3sOE8-112" vertex="1">
          <mxGeometry x="10.529999999999973" y="51.22" width="279.47" height="51.22" as="geometry" />
        </mxCell>
        <mxCell id="cGnAWdVKwM5nVpl3sOE8-63" value="&lt;div style=&quot;color: rgb(204, 204, 204); background-color: rgb(31, 31, 31); font-family: Consolas, &amp;quot;Courier New&amp;quot;, monospace; font-weight: normal; font-size: 14px; line-height: 19px;&quot;&gt;&lt;div&gt;&lt;span style=&quot;color: #c586c0;&quot;&gt;#define&lt;/span&gt;&lt;span style=&quot;color: #569cd6;&quot;&gt; &lt;/span&gt;&lt;span style=&quot;color: #569cd6;&quot;&gt;EI_DATA&lt;/span&gt;&lt;span style=&quot;color: #569cd6;&quot;&gt; &amp;nbsp; &lt;/span&gt;&lt;span style=&quot;color: #b5cea8;&quot;&gt;5&lt;/span&gt;&lt;span style=&quot;color: #6a9955;&quot;&gt; &amp;nbsp; /* 大小端 */&lt;/span&gt;&lt;/div&gt;&lt;div&gt;&lt;span style=&quot;color: #c586c0;&quot;&gt;#define&lt;/span&gt;&lt;span style=&quot;color: #569cd6;&quot;&gt; &lt;/span&gt;&lt;span style=&quot;color: #569cd6;&quot;&gt;ELFDATAXXX&lt;/span&gt;&lt;/div&gt;&lt;/div&gt;" style="text;whiteSpace=wrap;html=1;" parent="cGnAWdVKwM5nVpl3sOE8-112" vertex="1">
          <mxGeometry x="10.529999999999973" y="92.2" width="269.47" height="51.22" as="geometry" />
        </mxCell>
        <mxCell id="cGnAWdVKwM5nVpl3sOE8-74" value="&lt;div style=&quot;color: rgb(204, 204, 204); background-color: rgb(31, 31, 31); font-family: Consolas, &amp;quot;Courier New&amp;quot;, monospace; font-weight: normal; font-size: 14px; line-height: 19px;&quot;&gt;&lt;div&gt;&lt;span style=&quot;color: #c586c0;&quot;&gt;#define&lt;/span&gt;&lt;span style=&quot;color: #569cd6;&quot;&gt; &lt;/span&gt;&lt;span style=&quot;color: #569cd6;&quot;&gt;EI_VERSION&lt;/span&gt;&lt;span style=&quot;color: #569cd6;&quot;&gt; &amp;nbsp;&lt;/span&gt;&lt;span style=&quot;color: #b5cea8;&quot;&gt;6&lt;/span&gt; &amp;nbsp; /* 数值必须是&lt;span style=&quot;color: rgb(106, 153, 85);&quot;&gt;EV_CURRENT&lt;/span&gt;&lt;span style=&quot;color: rgb(106, 153, 85);&quot;&gt;&amp;nbsp;*/&lt;/span&gt;&lt;/div&gt;&lt;div&gt;&lt;div style=&quot;line-height: 19px;&quot;&gt;&lt;div&gt;#define&lt;span style=&quot;color: #569cd6;&quot;&gt; &lt;/span&gt;&lt;span style=&quot;color: #569cd6;&quot;&gt;EV_XXX&lt;/span&gt;&lt;/div&gt;&lt;/div&gt;&lt;/div&gt;&lt;/div&gt;" style="text;whiteSpace=wrap;html=1;" parent="cGnAWdVKwM5nVpl3sOE8-112" vertex="1">
          <mxGeometry x="10.529999999999973" y="133.17" width="389.47" height="46.83" as="geometry" />
        </mxCell>
        <mxCell id="cGnAWdVKwM5nVpl3sOE8-78" value="&lt;div style=&quot;color: rgb(204, 204, 204); background-color: rgb(31, 31, 31); font-family: Consolas, &amp;quot;Courier New&amp;quot;, monospace; font-weight: normal; font-size: 14px; line-height: 19px;&quot;&gt;&lt;div&gt;&lt;span style=&quot;color: #c586c0;&quot;&gt;#define&lt;/span&gt;&lt;span style=&quot;color: #569cd6;&quot;&gt; &lt;/span&gt;&lt;span style=&quot;color: #569cd6;&quot;&gt;EI_OSABI&lt;/span&gt;&lt;span style=&quot;color: #569cd6;&quot;&gt; &amp;nbsp;&lt;/span&gt;&lt;span style=&quot;color: #b5cea8;&quot;&gt;7&lt;/span&gt;&lt;span style=&quot;color: #6a9955;&quot;&gt; &amp;nbsp; /* 系统ABI&amp;nbsp;&lt;/span&gt;&lt;span style=&quot;color: rgb(106, 153, 85);&quot;&gt;ID */&lt;/span&gt;&lt;/div&gt;&lt;div&gt;&lt;span style=&quot;color: #c586c0;&quot;&gt;#define&lt;/span&gt;&lt;span style=&quot;color: #569cd6;&quot;&gt; &lt;/span&gt;&lt;span style=&quot;color: #569cd6;&quot;&gt;ELFOSABI_XXX&lt;/span&gt;&lt;/div&gt;&lt;/div&gt;" style="text;whiteSpace=wrap;html=1;" parent="cGnAWdVKwM5nVpl3sOE8-112" vertex="1">
          <mxGeometry x="10.529999999999973" y="180" width="299.47" height="51.22" as="geometry" />
        </mxCell>
        <mxCell id="cGnAWdVKwM5nVpl3sOE8-83" value="&lt;div style=&quot;color: rgb(204, 204, 204); background-color: rgb(31, 31, 31); font-family: Consolas, &amp;quot;Courier New&amp;quot;, monospace; font-weight: normal; font-size: 14px; line-height: 19px;&quot;&gt;&lt;div&gt;&lt;span style=&quot;color: #c586c0;&quot;&gt;#define&lt;/span&gt;&lt;span style=&quot;color: #569cd6;&quot;&gt; &lt;/span&gt;&lt;span style=&quot;color: #569cd6;&quot;&gt;EI_ABIVERSION&lt;/span&gt;&lt;span style=&quot;color: #569cd6;&quot;&gt; &lt;/span&gt;&lt;span style=&quot;color: #b5cea8;&quot;&gt;8&lt;/span&gt;&lt;span style=&quot;color: #6a9955;&quot;&gt; &amp;nbsp; /* ABI 版本号 */&lt;/span&gt;&lt;/div&gt;&lt;br&gt;&lt;div&gt;&lt;span style=&quot;color: #c586c0;&quot;&gt;#define&lt;/span&gt;&lt;span style=&quot;color: #569cd6;&quot;&gt; &lt;/span&gt;&lt;span style=&quot;color: #569cd6;&quot;&gt;EI_PAD&lt;/span&gt;&lt;span style=&quot;color: #569cd6;&quot;&gt; &amp;nbsp; &amp;nbsp;&lt;/span&gt;&lt;span style=&quot;color: #b5cea8;&quot;&gt;9&lt;/span&gt;&lt;span style=&quot;color: #6a9955;&quot;&gt; &amp;nbsp; /* 无用的填充字符 */&lt;/span&gt;&lt;/div&gt;&lt;/div&gt;" style="text;whiteSpace=wrap;html=1;" parent="cGnAWdVKwM5nVpl3sOE8-112" vertex="1">
          <mxGeometry x="10.529999999999973" y="231.22" width="329.47" height="71.71" as="geometry" />
        </mxCell>
        <mxCell id="cGnAWdVKwM5nVpl3sOE8-89" value="" style="verticalLabelPosition=bottom;verticalAlign=top;html=1;shape=mxgraph.basic.frame;dx=10;whiteSpace=wrap;fillColor=#dae8fc;strokeColor=#6c8ebf;" parent="cGnAWdVKwM5nVpl3sOE8-112" vertex="1">
          <mxGeometry width="410" height="310" as="geometry" />
        </mxCell>
        <mxCell id="cGnAWdVKwM5nVpl3sOE8-98" value="" style="shape=flexArrow;endArrow=classic;html=1;rounded=0;strokeColor=#6c8ebf;fillColor=#dae8fc;exitX=0.722;exitY=0.324;exitDx=0;exitDy=0;exitPerimeter=0;entryX=0.05;entryY=1;entryDx=0;entryDy=0;entryPerimeter=0;" parent="1" source="cGnAWdVKwM5nVpl3sOE8-60" target="cGnAWdVKwM5nVpl3sOE8-74" edge="1">
          <mxGeometry width="50" height="50" relative="1" as="geometry">
            <mxPoint x="96" y="581" as="sourcePoint" />
            <mxPoint x="596" y="647" as="targetPoint" />
            <Array as="points">
              <mxPoint x="500" y="580" />
              <mxPoint x="500" y="220" />
              <mxPoint x="590" y="220" />
            </Array>
          </mxGeometry>
        </mxCell>
        <mxCell id="cGnAWdVKwM5nVpl3sOE8-133" value="" style="shape=flexArrow;endArrow=classic;html=1;rounded=0;fillColor=#fff2cc;strokeColor=#d6b656;" parent="1" source="cGnAWdVKwM5nVpl3sOE8-136" edge="1">
          <mxGeometry width="50" height="50" relative="1" as="geometry">
            <mxPoint x="380" y="990" as="sourcePoint" />
            <mxPoint x="380" y="1030" as="targetPoint" />
            <Array as="points" />
          </mxGeometry>
        </mxCell>
        <mxCell id="cGnAWdVKwM5nVpl3sOE8-139" value="FOA" style="edgeLabel;html=1;align=center;verticalAlign=middle;resizable=0;points=[];" parent="cGnAWdVKwM5nVpl3sOE8-133" vertex="1" connectable="0">
          <mxGeometry x="-0.3696" y="-3" relative="1" as="geometry">
            <mxPoint as="offset" />
          </mxGeometry>
        </mxCell>
        <mxCell id="cGnAWdVKwM5nVpl3sOE8-136" value="Elf64_Shdr[e_shstrndx].sh_offset" style="text;html=1;strokeColor=#6c8ebf;fillColor=#dae8fc;align=center;verticalAlign=middle;whiteSpace=wrap;rounded=0;" parent="1" vertex="1">
          <mxGeometry x="295" y="928" width="170" height="30" as="geometry" />
        </mxCell>
        <mxCell id="cGnAWdVKwM5nVpl3sOE8-140" value="节字符串表内存" style="rounded=0;whiteSpace=wrap;html=1;" parent="1" vertex="1">
          <mxGeometry x="320" y="1031" width="120" height="60" as="geometry" />
        </mxCell>
        <mxCell id="cGnAWdVKwM5nVpl3sOE8-141" value="" style="endArrow=classic;html=1;rounded=0;dashed=1;entryX=1;entryY=0.5;entryDx=0;entryDy=0;exitX=0.038;exitY=0.192;exitDx=0;exitDy=0;exitPerimeter=0;fillColor=#dae8fc;strokeColor=#6c8ebf;strokeWidth=3;" parent="1" source="cGnAWdVKwM5nVpl3sOE8-105" target="cGnAWdVKwM5nVpl3sOE8-140" edge="1">
          <mxGeometry width="50" height="50" relative="1" as="geometry">
            <mxPoint x="180" y="1260" as="sourcePoint" />
            <mxPoint x="230" y="1210" as="targetPoint" />
            <Array as="points">
              <mxPoint x="480" y="1240" />
              <mxPoint x="480" y="1061" />
            </Array>
          </mxGeometry>
        </mxCell>
        <mxCell id="cGnAWdVKwM5nVpl3sOE8-143" value="下标" style="edgeLabel;html=1;align=center;verticalAlign=middle;resizable=0;points=[];" parent="cGnAWdVKwM5nVpl3sOE8-141" vertex="1" connectable="0">
          <mxGeometry x="0.1891" relative="1" as="geometry">
            <mxPoint as="offset" />
          </mxGeometry>
        </mxCell>
        <mxCell id="ifZyqwG-hICFNkMZj-hm-2" value="&lt;div style=&quot;background-color: rgb(31, 31, 31); line-height: 19px; font-weight: normal; font-size: 14px; font-family: Consolas, &amp;quot;Courier New&amp;quot;, monospace; color: rgb(204, 204, 204);&quot;&gt;&lt;div style=&quot;color: rgb(204, 204, 204); font-family: Consolas, &amp;quot;Courier New&amp;quot;, monospace; font-size: 14px; font-weight: normal;&quot;&gt;&lt;span style=&quot;color: rgb(197, 134, 192);&quot;&gt;#define&lt;/span&gt;&lt;span style=&quot;color: rgb(86, 156, 214);&quot;&gt; &lt;/span&gt;&lt;span style=&quot;color: rgb(86, 156, 214);&quot;&gt;SHT_NULL&lt;/span&gt;&lt;span style=&quot;color: rgb(86, 156, 214);&quot;&gt; &amp;nbsp; &amp;nbsp;&lt;/span&gt;&lt;span style=&quot;color: rgb(181, 206, 168);&quot;&gt;0&lt;/span&gt;&lt;span style=&quot;color: rgb(106, 153, 85);&quot;&gt; &amp;nbsp; /* Section header table entry unused */&lt;/span&gt;&lt;br&gt;&lt;/div&gt;&lt;div style=&quot;color: rgb(204, 204, 204); font-family: Consolas, &amp;quot;Courier New&amp;quot;, monospace; font-size: 14px; font-weight: normal;&quot;&gt;&lt;span style=&quot;color: #c586c0;&quot;&gt;#define&lt;/span&gt;&lt;span style=&quot;color: #569cd6;&quot;&gt; &lt;/span&gt;&lt;span style=&quot;color: #569cd6;&quot;&gt;SHT_PROGBITS&lt;/span&gt;&lt;span style=&quot;color: #569cd6;&quot;&gt; &amp;nbsp; &amp;nbsp;&lt;/span&gt;&lt;span style=&quot;color: #b5cea8;&quot;&gt;1&lt;/span&gt;&lt;span style=&quot;color: #6a9955;&quot;&gt; &amp;nbsp; /* Program data */&lt;/span&gt;&lt;/div&gt;&lt;div style=&quot;color: rgb(204, 204, 204); font-family: Consolas, &amp;quot;Courier New&amp;quot;, monospace; font-size: 14px; font-weight: normal;&quot;&gt;&lt;span style=&quot;color: #c586c0;&quot;&gt;#define&lt;/span&gt;&lt;span style=&quot;color: #569cd6;&quot;&gt; &lt;/span&gt;&lt;span style=&quot;color: #569cd6;&quot;&gt;SHT_SYMTAB&lt;/span&gt;&lt;span style=&quot;color: #569cd6;&quot;&gt; &amp;nbsp; &amp;nbsp;&lt;/span&gt;&lt;span style=&quot;color: #b5cea8;&quot;&gt;2&lt;/span&gt;&lt;span style=&quot;color: #6a9955;&quot;&gt; &amp;nbsp; /* 符号表 */&lt;/span&gt;&lt;/div&gt;&lt;div style=&quot;color: rgb(204, 204, 204); font-family: Consolas, &amp;quot;Courier New&amp;quot;, monospace; font-size: 14px; font-weight: normal;&quot;&gt;&lt;span style=&quot;color: #c586c0;&quot;&gt;#define&lt;/span&gt;&lt;span style=&quot;color: #569cd6;&quot;&gt; &lt;/span&gt;&lt;span style=&quot;color: #569cd6;&quot;&gt;SHT_STRTAB&lt;/span&gt;&lt;span style=&quot;color: #569cd6;&quot;&gt; &amp;nbsp; &amp;nbsp;&lt;/span&gt;&lt;span style=&quot;color: #b5cea8;&quot;&gt;3&lt;/span&gt;&lt;span style=&quot;color: #6a9955;&quot;&gt; &amp;nbsp; /* 字符串表 */&lt;/span&gt;&lt;/div&gt;&lt;div style=&quot;color: rgb(204, 204, 204); font-family: Consolas, &amp;quot;Courier New&amp;quot;, monospace; font-size: 14px; font-weight: normal;&quot;&gt;&lt;span style=&quot;color: rgb(197, 134, 192); font-family: Consolas, &amp;quot;Courier New&amp;quot;, monospace; font-size: 14px; font-weight: normal;&quot;&gt;#define&lt;/span&gt;&lt;span style=&quot;color: rgb(86, 156, 214); font-family: Consolas, &amp;quot;Courier New&amp;quot;, monospace; font-size: 14px; font-weight: normal;&quot;&gt; &lt;/span&gt;&lt;span style=&quot;color: rgb(86, 156, 214); font-family: Consolas, &amp;quot;Courier New&amp;quot;, monospace; font-size: 14px; font-weight: normal;&quot;&gt;SHT_RELA&lt;/span&gt;&lt;span style=&quot;color: rgb(86, 156, 214); font-family: Consolas, &amp;quot;Courier New&amp;quot;, monospace; font-size: 14px; font-weight: normal;&quot;&gt; &amp;nbsp; &amp;nbsp;&lt;/span&gt;&lt;span style=&quot;color: rgb(181, 206, 168); font-family: Consolas, &amp;quot;Courier New&amp;quot;, monospace; font-size: 14px; font-weight: normal;&quot;&gt;4&lt;/span&gt;&lt;font face=&quot;Consolas, Courier New, monospace&quot; color=&quot;#6a9955&quot;&gt; &amp;nbsp; /*&amp;nbsp;&lt;/font&gt;重定位加数节&lt;font face=&quot;Consolas, Courier New, monospace&quot; color=&quot;#6a9955&quot;&gt;&amp;nbsp;*/&lt;/font&gt;&lt;/div&gt;&lt;div style=&quot;color: rgb(204, 204, 204); font-family: Consolas, &amp;quot;Courier New&amp;quot;, monospace; font-size: 14px; font-weight: normal;&quot;&gt;&lt;span style=&quot;color: #c586c0;&quot;&gt;#define&lt;/span&gt;&lt;span style=&quot;color: #569cd6;&quot;&gt; &lt;/span&gt;&lt;span style=&quot;color: #569cd6;&quot;&gt;SHT_HASH&lt;/span&gt;&lt;span style=&quot;color: #569cd6;&quot;&gt; &amp;nbsp; &amp;nbsp;&lt;/span&gt;&lt;span style=&quot;color: #b5cea8;&quot;&gt;5&lt;/span&gt;&lt;span style=&quot;color: #6a9955;&quot;&gt; &amp;nbsp; /* 符号哈希表 */&lt;/span&gt;&lt;/div&gt;&lt;div style=&quot;color: rgb(204, 204, 204); font-family: Consolas, &amp;quot;Courier New&amp;quot;, monospace; font-size: 14px; font-weight: normal;&quot;&gt;&lt;span style=&quot;color: rgb(197, 134, 192); font-family: Consolas, &amp;quot;Courier New&amp;quot;, monospace; font-size: 14px; font-weight: normal;&quot;&gt;#define&lt;/span&gt;&lt;span style=&quot;color: rgb(86, 156, 214); font-family: Consolas, &amp;quot;Courier New&amp;quot;, monospace; font-size: 14px; font-weight: normal;&quot;&gt; &lt;/span&gt;&lt;span style=&quot;color: rgb(86, 156, 214); font-family: Consolas, &amp;quot;Courier New&amp;quot;, monospace; font-size: 14px; font-weight: normal;&quot;&gt;SHT_DYNAMIC&lt;/span&gt;&lt;span style=&quot;color: rgb(86, 156, 214); font-family: Consolas, &amp;quot;Courier New&amp;quot;, monospace; font-size: 14px; font-weight: normal;&quot;&gt; &amp;nbsp; &lt;/span&gt;&lt;span style=&quot;color: rgb(181, 206, 168); font-family: Consolas, &amp;quot;Courier New&amp;quot;, monospace; font-size: 14px; font-weight: normal;&quot;&gt;6&lt;/span&gt;&lt;font face=&quot;Consolas, Courier New, monospace&quot; color=&quot;#6a9955&quot;&gt; &amp;nbsp; /* 动态链接信息&amp;nbsp;*/&lt;/font&gt;&lt;/div&gt;&lt;div style=&quot;color: rgb(204, 204, 204); font-family: Consolas, &amp;quot;Courier New&amp;quot;, monospace; font-size: 14px; font-weight: normal;&quot;&gt;&lt;span style=&quot;color: #c586c0;&quot;&gt;#define&lt;/span&gt;&lt;span style=&quot;color: #569cd6;&quot;&gt; &lt;/span&gt;&lt;span style=&quot;color: #569cd6;&quot;&gt;SHT_NOTE&lt;/span&gt;&lt;span style=&quot;color: #569cd6;&quot;&gt; &amp;nbsp; &amp;nbsp;&lt;/span&gt;&lt;span style=&quot;color: #b5cea8;&quot;&gt;7&lt;/span&gt;&lt;span style=&quot;color: #6a9955;&quot;&gt; &amp;nbsp; /* Notes */&lt;/span&gt;&lt;/div&gt;&lt;div style=&quot;color: rgb(204, 204, 204); font-family: Consolas, &amp;quot;Courier New&amp;quot;, monospace; font-size: 14px; font-weight: normal;&quot;&gt;&lt;span style=&quot;color: #c586c0;&quot;&gt;#define&lt;/span&gt;&lt;span style=&quot;color: #569cd6;&quot;&gt; &lt;/span&gt;&lt;span style=&quot;color: #569cd6;&quot;&gt;SHT_NOBITS&lt;/span&gt;&lt;span style=&quot;color: #569cd6;&quot;&gt; &amp;nbsp; &amp;nbsp;&lt;/span&gt;&lt;span style=&quot;color: #b5cea8;&quot;&gt;8&lt;/span&gt;&lt;span style=&quot;color: #6a9955;&quot;&gt; &amp;nbsp; /* Program space with no data (bss) */&lt;/span&gt;&lt;/div&gt;&lt;div style=&quot;color: rgb(204, 204, 204); font-family: Consolas, &amp;quot;Courier New&amp;quot;, monospace; font-size: 14px; font-weight: normal;&quot;&gt;&lt;span style=&quot;color: #c586c0;&quot;&gt;#define&lt;/span&gt;&lt;span style=&quot;color: #569cd6;&quot;&gt; &lt;/span&gt;&lt;span style=&quot;color: #569cd6;&quot;&gt;SHT_REL&lt;/span&gt;&lt;span style=&quot;color: #569cd6;&quot;&gt; &amp;nbsp; &amp;nbsp; &lt;/span&gt;&lt;span style=&quot;color: #b5cea8;&quot;&gt;9&lt;/span&gt; &amp;nbsp; /*&amp;nbsp;重定位无加数节&lt;span style=&quot;color: #6a9955;&quot;&gt;&amp;nbsp;*/&lt;/span&gt;&lt;/div&gt;&lt;div style=&quot;color: rgb(204, 204, 204); font-family: Consolas, &amp;quot;Courier New&amp;quot;, monospace; font-size: 14px; font-weight: normal;&quot;&gt;&lt;span style=&quot;color: #c586c0;&quot;&gt;#define&lt;/span&gt;&lt;span style=&quot;color: #569cd6;&quot;&gt; &lt;/span&gt;&lt;span style=&quot;color: #569cd6;&quot;&gt;SHT_SHLIB&lt;/span&gt;&lt;span style=&quot;color: #569cd6;&quot;&gt; &amp;nbsp; &lt;/span&gt;&lt;span style=&quot;color: #b5cea8;&quot;&gt;10&lt;/span&gt;&lt;span style=&quot;color: #6a9955;&quot;&gt; &amp;nbsp; &amp;nbsp;/* Reserved */&lt;/span&gt;&lt;/div&gt;&lt;div style=&quot;color: rgb(204, 204, 204); font-family: Consolas, &amp;quot;Courier New&amp;quot;, monospace; font-size: 14px; font-weight: normal;&quot;&gt;&lt;span style=&quot;color: rgb(197, 134, 192); font-family: Consolas, &amp;quot;Courier New&amp;quot;, monospace; font-size: 14px; font-weight: normal;&quot;&gt;#define&lt;/span&gt;&lt;span style=&quot;color: rgb(86, 156, 214); font-family: Consolas, &amp;quot;Courier New&amp;quot;, monospace; font-size: 14px; font-weight: normal;&quot;&gt; &lt;/span&gt;&lt;span style=&quot;color: rgb(86, 156, 214); font-family: Consolas, &amp;quot;Courier New&amp;quot;, monospace; font-size: 14px; font-weight: normal;&quot;&gt;SHT_DYNSYM&lt;/span&gt;&lt;span style=&quot;color: rgb(86, 156, 214); font-family: Consolas, &amp;quot;Courier New&amp;quot;, monospace; font-size: 14px; font-weight: normal;&quot;&gt; &amp;nbsp; &amp;nbsp;&lt;/span&gt;&lt;span style=&quot;color: rgb(181, 206, 168); font-family: Consolas, &amp;quot;Courier New&amp;quot;, monospace; font-size: 14px; font-weight: normal;&quot;&gt;11&lt;/span&gt;&lt;font face=&quot;Consolas, Courier New, monospace&quot; color=&quot;#6a9955&quot;&gt; &amp;nbsp; &amp;nbsp;/* 动态链接器符号表&amp;nbsp;*/&lt;/font&gt;&lt;/div&gt;&lt;div style=&quot;color: rgb(204, 204, 204); font-family: Consolas, &amp;quot;Courier New&amp;quot;, monospace; font-size: 14px; font-weight: normal;&quot;&gt;&lt;span style=&quot;color: rgb(197, 134, 192); font-family: Consolas, &amp;quot;Courier New&amp;quot;, monospace; font-size: 14px; font-weight: normal;&quot;&gt;#define&lt;/span&gt;&lt;span style=&quot;color: rgb(86, 156, 214); font-family: Consolas, &amp;quot;Courier New&amp;quot;, monospace; font-size: 14px; font-weight: normal;&quot;&gt; &lt;/span&gt;&lt;span style=&quot;color: rgb(86, 156, 214); font-family: Consolas, &amp;quot;Courier New&amp;quot;, monospace; font-size: 14px; font-weight: normal;&quot;&gt;SHT_INIT_ARRAY&lt;/span&gt;&lt;span style=&quot;color: rgb(86, 156, 214); font-family: Consolas, &amp;quot;Courier New&amp;quot;, monospace; font-size: 14px; font-weight: normal;&quot;&gt; &amp;nbsp; &amp;nbsp;&lt;/span&gt;&lt;span style=&quot;color: rgb(181, 206, 168); font-family: Consolas, &amp;quot;Courier New&amp;quot;, monospace; font-size: 14px; font-weight: normal;&quot;&gt;14&lt;/span&gt;&lt;font face=&quot;Consolas, Courier New, monospace&quot; color=&quot;#6a9955&quot;&gt; &amp;nbsp; &amp;nbsp;/* 构造函数数组&amp;nbsp;*/&lt;/font&gt;&lt;/div&gt;&lt;div style=&quot;color: rgb(204, 204, 204); font-family: Consolas, &amp;quot;Courier New&amp;quot;, monospace; font-size: 14px; font-weight: normal;&quot;&gt;&lt;span style=&quot;color: rgb(197, 134, 192); font-family: Consolas, &amp;quot;Courier New&amp;quot;, monospace; font-size: 14px; font-weight: normal;&quot;&gt;#define&lt;/span&gt;&lt;span style=&quot;color: rgb(86, 156, 214); font-family: Consolas, &amp;quot;Courier New&amp;quot;, monospace; font-size: 14px; font-weight: normal;&quot;&gt; &lt;/span&gt;&lt;span style=&quot;color: rgb(86, 156, 214); font-family: Consolas, &amp;quot;Courier New&amp;quot;, monospace; font-size: 14px; font-weight: normal;&quot;&gt;SHT_FINI_ARRAY&lt;/span&gt;&lt;span style=&quot;color: rgb(86, 156, 214); font-family: Consolas, &amp;quot;Courier New&amp;quot;, monospace; font-size: 14px; font-weight: normal;&quot;&gt; &amp;nbsp; &amp;nbsp;&lt;/span&gt;&lt;span style=&quot;color: rgb(181, 206, 168); font-family: Consolas, &amp;quot;Courier New&amp;quot;, monospace; font-size: 14px; font-weight: normal;&quot;&gt;15&lt;/span&gt;&lt;font face=&quot;Consolas, Courier New, monospace&quot; color=&quot;#6a9955&quot;&gt; &amp;nbsp; &amp;nbsp;/* 析构函数数组&amp;nbsp;*/&lt;/font&gt;&lt;/div&gt;&lt;div style=&quot;color: rgb(204, 204, 204); font-family: Consolas, &amp;quot;Courier New&amp;quot;, monospace; font-size: 14px; font-weight: normal;&quot;&gt;&lt;span style=&quot;color: rgb(197, 134, 192); font-family: Consolas, &amp;quot;Courier New&amp;quot;, monospace; font-size: 14px; font-weight: normal;&quot;&gt;#define&lt;/span&gt;&lt;span style=&quot;color: rgb(86, 156, 214); font-family: Consolas, &amp;quot;Courier New&amp;quot;, monospace; font-size: 14px; font-weight: normal;&quot;&gt; &lt;/span&gt;&lt;span style=&quot;color: rgb(86, 156, 214); font-family: Consolas, &amp;quot;Courier New&amp;quot;, monospace; font-size: 14px; font-weight: normal;&quot;&gt;SHT_PREINIT_ARRAY&lt;/span&gt;&lt;span style=&quot;color: rgb(86, 156, 214); font-family: Consolas, &amp;quot;Courier New&amp;quot;, monospace; font-size: 14px; font-weight: normal;&quot;&gt; &lt;/span&gt;&lt;span style=&quot;color: rgb(181, 206, 168); font-family: Consolas, &amp;quot;Courier New&amp;quot;, monospace; font-size: 14px; font-weight: normal;&quot;&gt;16&lt;/span&gt;&lt;font face=&quot;Consolas, Courier New, monospace&quot; color=&quot;#6a9955&quot;&gt; &amp;nbsp; &amp;nbsp;/* 预构造函数数组&amp;nbsp;*/&lt;/font&gt;&lt;/div&gt;&lt;div style=&quot;color: rgb(204, 204, 204); font-family: Consolas, &amp;quot;Courier New&amp;quot;, monospace; font-size: 14px; font-weight: normal;&quot;&gt;&lt;span style=&quot;color: rgb(197, 134, 192); font-family: Consolas, &amp;quot;Courier New&amp;quot;, monospace; font-size: 14px; font-weight: normal;&quot;&gt;#define&lt;/span&gt;&lt;span style=&quot;color: rgb(86, 156, 214); font-family: Consolas, &amp;quot;Courier New&amp;quot;, monospace; font-size: 14px; font-weight: normal;&quot;&gt; &lt;/span&gt;&lt;span style=&quot;color: rgb(86, 156, 214); font-family: Consolas, &amp;quot;Courier New&amp;quot;, monospace; font-size: 14px; font-weight: normal;&quot;&gt;SHT_GROUP&lt;/span&gt;&lt;span style=&quot;color: rgb(86, 156, 214); font-family: Consolas, &amp;quot;Courier New&amp;quot;, monospace; font-size: 14px; font-weight: normal;&quot;&gt; &amp;nbsp; &lt;/span&gt;&lt;span style=&quot;color: rgb(181, 206, 168); font-family: Consolas, &amp;quot;Courier New&amp;quot;, monospace; font-size: 14px; font-weight: normal;&quot;&gt;17&lt;/span&gt;&lt;font face=&quot;Consolas, Courier New, monospace&quot; color=&quot;#6a9955&quot;&gt; &amp;nbsp; &amp;nbsp;/* 节组&amp;nbsp;*/&lt;/font&gt;&lt;/div&gt;&lt;div style=&quot;color: rgb(204, 204, 204); font-family: Consolas, &amp;quot;Courier New&amp;quot;, monospace; font-size: 14px; font-weight: normal;&quot;&gt;&lt;span style=&quot;color: rgb(197, 134, 192); font-family: Consolas, &amp;quot;Courier New&amp;quot;, monospace; font-size: 14px; font-weight: normal;&quot;&gt;#define&lt;/span&gt;&lt;span style=&quot;color: rgb(86, 156, 214); font-family: Consolas, &amp;quot;Courier New&amp;quot;, monospace; font-size: 14px; font-weight: normal;&quot;&gt; &lt;/span&gt;&lt;span style=&quot;color: rgb(86, 156, 214); font-family: Consolas, &amp;quot;Courier New&amp;quot;, monospace; font-size: 14px; font-weight: normal;&quot;&gt;SHT_SYMTAB_SHNDX&lt;/span&gt;&lt;span style=&quot;color: rgb(86, 156, 214); font-family: Consolas, &amp;quot;Courier New&amp;quot;, monospace; font-size: 14px; font-weight: normal;&quot;&gt; &amp;nbsp;&lt;/span&gt;&lt;span style=&quot;color: rgb(181, 206, 168); font-family: Consolas, &amp;quot;Courier New&amp;quot;, monospace; font-size: 14px; font-weight: normal;&quot;&gt;18&lt;/span&gt;&lt;font face=&quot;Consolas, Courier New, monospace&quot; color=&quot;#6a9955&quot;&gt; &amp;nbsp; &amp;nbsp;/* 扩展节索引&amp;nbsp;*/&lt;/font&gt;&lt;/div&gt;&lt;div style=&quot;color: rgb(204, 204, 204); font-family: Consolas, &amp;quot;Courier New&amp;quot;, monospace; font-size: 14px; font-weight: normal;&quot;&gt;&lt;span style=&quot;color: rgb(197, 134, 192); font-family: Consolas, &amp;quot;Courier New&amp;quot;, monospace; font-size: 14px; font-weight: normal;&quot;&gt;#define&lt;/span&gt;&lt;span style=&quot;color: rgb(86, 156, 214); font-family: Consolas, &amp;quot;Courier New&amp;quot;, monospace; font-size: 14px; font-weight: normal;&quot;&gt; &lt;/span&gt;&lt;span style=&quot;color: rgb(86, 156, 214); font-family: Consolas, &amp;quot;Courier New&amp;quot;, monospace; font-size: 14px; font-weight: normal;&quot;&gt;SHT_RELR&lt;/span&gt;&lt;span style=&quot;color: rgb(86, 156, 214); font-family: Consolas, &amp;quot;Courier New&amp;quot;, monospace; font-size: 14px; font-weight: normal;&quot;&gt; &amp;nbsp; &amp;nbsp;&lt;/span&gt;&lt;span style=&quot;color: rgb(181, 206, 168); font-family: Consolas, &amp;quot;Courier New&amp;quot;, monospace; font-size: 14px; font-weight: normal;&quot;&gt;19&lt;/span&gt;&lt;font face=&quot;Consolas, Courier New, monospace&quot; color=&quot;#6a9955&quot;&gt; &amp;nbsp; &amp;nbsp; &amp;nbsp; &amp;nbsp; &amp;nbsp; &amp;nbsp;/* RELR 相对重定位节 */&lt;/font&gt;&lt;/div&gt;&lt;div style=&quot;color: rgb(204, 204, 204); font-family: Consolas, &amp;quot;Courier New&amp;quot;, monospace; font-size: 14px; font-weight: normal;&quot;&gt;#define&lt;span style=&quot;border-color: var(--border-color); color: rgb(86, 156, 214);&quot;&gt;&amp;nbsp;&lt;/span&gt;&lt;span style=&quot;border-color: var(--border-color); color: rgb(86, 156, 214);&quot;&gt;SHT_XXX&lt;/span&gt;&lt;font face=&quot;Consolas, Courier New, monospace&quot; color=&quot;#6a9955&quot;&gt;&lt;br&gt;&lt;/font&gt;&lt;/div&gt;&lt;/div&gt;" style="text;whiteSpace=wrap;html=1;" parent="1" vertex="1">
          <mxGeometry x="1240" y="860" width="500" height="370" as="geometry" />
        </mxCell>
        <mxCell id="ifZyqwG-hICFNkMZj-hm-3" value="" style="shape=flexArrow;endArrow=classic;html=1;rounded=0;strokeColor=#6c8ebf;fillColor=#dae8fc;entryX=-0.004;entryY=0.062;entryDx=0;entryDy=0;entryPerimeter=0;" parent="1" target="ifZyqwG-hICFNkMZj-hm-2" edge="1">
          <mxGeometry width="50" height="50" relative="1" as="geometry">
            <mxPoint x="890" y="1266" as="sourcePoint" />
            <mxPoint x="1230" y="540" as="targetPoint" />
            <Array as="points">
              <mxPoint x="1150" y="1266" />
              <mxPoint x="1150" y="883" />
            </Array>
          </mxGeometry>
        </mxCell>
        <mxCell id="ifZyqwG-hICFNkMZj-hm-4" value="&lt;div style=&quot;background-color: rgb(31, 31, 31); line-height: 19px;&quot;&gt;&lt;div style=&quot;color: rgb(204, 204, 204); font-family: Consolas, &amp;quot;Courier New&amp;quot;, monospace; font-size: 14px; font-weight: normal;&quot;&gt;&lt;span style=&quot;color: #c586c0;&quot;&gt;#define&lt;/span&gt;&lt;span style=&quot;color: #569cd6;&quot;&gt; &lt;/span&gt;&lt;span style=&quot;color: #569cd6;&quot;&gt;SHF_WRITE&lt;/span&gt;&lt;span style=&quot;color: #569cd6;&quot;&gt; &amp;nbsp; &amp;nbsp; &amp;nbsp;(1 &amp;lt;&amp;lt; 0)&lt;/span&gt;&lt;span style=&quot;color: #6a9955;&quot;&gt; /* 可写 */&lt;/span&gt;&lt;/div&gt;&lt;div style=&quot;color: rgb(204, 204, 204); font-family: Consolas, &amp;quot;Courier New&amp;quot;, monospace; font-size: 14px; font-weight: normal;&quot;&gt;&lt;span style=&quot;color: #c586c0;&quot;&gt;#define&lt;/span&gt;&lt;span style=&quot;color: #569cd6;&quot;&gt; &lt;/span&gt;&lt;span style=&quot;color: #569cd6;&quot;&gt;SHF_ALLOC&lt;/span&gt;&lt;span style=&quot;color: #569cd6;&quot;&gt; &amp;nbsp; &amp;nbsp; &amp;nbsp;(1 &amp;lt;&amp;lt; 1)&lt;/span&gt;&lt;span style=&quot;color: #6a9955;&quot;&gt; /* 需要在执行时被映射到内存 */&lt;/span&gt;&lt;/div&gt;&lt;div style=&quot;color: rgb(204, 204, 204); font-family: Consolas, &amp;quot;Courier New&amp;quot;, monospace; font-size: 14px; font-weight: normal;&quot;&gt;&lt;span style=&quot;color: #c586c0;&quot;&gt;#define&lt;/span&gt;&lt;span style=&quot;color: #569cd6;&quot;&gt; &lt;/span&gt;&lt;span style=&quot;color: #569cd6;&quot;&gt;SHF_EXECINSTR&lt;/span&gt;&lt;span style=&quot;color: #569cd6;&quot;&gt; &amp;nbsp; &amp;nbsp; &amp;nbsp;(1 &amp;lt;&amp;lt; 2)&lt;/span&gt;&lt;span style=&quot;color: #6a9955;&quot;&gt; /* 可执行 */&lt;/span&gt;&lt;/div&gt;&lt;div style=&quot;color: rgb(204, 204, 204); font-family: Consolas, &amp;quot;Courier New&amp;quot;, monospace; font-size: 14px; font-weight: normal;&quot;&gt;&lt;span style=&quot;color: rgb(197, 134, 192); font-family: Consolas, &amp;quot;Courier New&amp;quot;, monospace; font-size: 14px; font-weight: normal;&quot;&gt;#define&lt;/span&gt;&lt;span style=&quot;color: rgb(86, 156, 214); font-family: Consolas, &amp;quot;Courier New&amp;quot;, monospace; font-size: 14px; font-weight: normal;&quot;&gt; &lt;/span&gt;&lt;span style=&quot;color: rgb(86, 156, 214); font-family: Consolas, &amp;quot;Courier New&amp;quot;, monospace; font-size: 14px; font-weight: normal;&quot;&gt;SHF_MERGE&lt;/span&gt;&lt;span style=&quot;color: rgb(86, 156, 214); font-family: Consolas, &amp;quot;Courier New&amp;quot;, monospace; font-size: 14px; font-weight: normal;&quot;&gt; &amp;nbsp; &amp;nbsp; &amp;nbsp;(1 &amp;lt;&amp;lt; 4)&lt;/span&gt;&lt;font face=&quot;Consolas, Courier New, monospace&quot; color=&quot;#6a9955&quot;&gt; /* 可能会被合并&amp;nbsp;*/&lt;/font&gt;&lt;/div&gt;&lt;div style=&quot;color: rgb(204, 204, 204); font-family: Consolas, &amp;quot;Courier New&amp;quot;, monospace; font-size: 14px; font-weight: normal;&quot;&gt;&lt;span style=&quot;color: #c586c0;&quot;&gt;#define&lt;/span&gt;&lt;span style=&quot;color: #569cd6;&quot;&gt; &lt;/span&gt;&lt;span style=&quot;color: #569cd6;&quot;&gt;SHF_STRINGS&lt;/span&gt;&lt;span style=&quot;color: #569cd6;&quot;&gt; &amp;nbsp; &amp;nbsp; &amp;nbsp;(1 &amp;lt;&amp;lt; 5)&lt;/span&gt;&lt;span style=&quot;color: #6a9955;&quot;&gt; /* 包含一些空结尾的字符串 */&lt;/span&gt;&lt;/div&gt;&lt;div style=&quot;color: rgb(204, 204, 204); font-family: Consolas, &amp;quot;Courier New&amp;quot;, monospace; font-size: 14px; font-weight: normal;&quot;&gt;&lt;span style=&quot;color: rgb(197, 134, 192); font-family: Consolas, &amp;quot;Courier New&amp;quot;, monospace; font-size: 14px; font-weight: normal;&quot;&gt;#define&lt;/span&gt;&lt;span style=&quot;color: rgb(86, 156, 214); font-family: Consolas, &amp;quot;Courier New&amp;quot;, monospace; font-size: 14px; font-weight: normal;&quot;&gt; &lt;/span&gt;&lt;span style=&quot;color: rgb(86, 156, 214); font-family: Consolas, &amp;quot;Courier New&amp;quot;, monospace; font-size: 14px; font-weight: normal;&quot;&gt;SHF_INFO_LINK&lt;/span&gt;&lt;span style=&quot;color: rgb(86, 156, 214); font-family: Consolas, &amp;quot;Courier New&amp;quot;, monospace; font-size: 14px; font-weight: normal;&quot;&gt; &amp;nbsp; &amp;nbsp; &amp;nbsp;(1 &amp;lt;&amp;lt; 6)&lt;/span&gt;&lt;font face=&quot;Consolas, Courier New, monospace&quot; color=&quot;#6a9955&quot;&gt; /* ‘&lt;/font&gt;Elf64_Shdr.&lt;span style=&quot;color: rgb(106, 153, 85);&quot;&gt;sh_info’包含SHT索引&amp;nbsp;*/&lt;/span&gt;&lt;/div&gt;&lt;div style=&quot;color: rgb(204, 204, 204); font-family: Consolas, &amp;quot;Courier New&amp;quot;, monospace; font-size: 14px; font-weight: normal;&quot;&gt;&lt;span style=&quot;color: rgb(197, 134, 192); font-family: Consolas, &amp;quot;Courier New&amp;quot;, monospace; font-size: 14px; font-weight: normal;&quot;&gt;#define&lt;/span&gt;&lt;span style=&quot;color: rgb(86, 156, 214); font-family: Consolas, &amp;quot;Courier New&amp;quot;, monospace; font-size: 14px; font-weight: normal;&quot;&gt; &lt;/span&gt;&lt;span style=&quot;color: rgb(86, 156, 214); font-family: Consolas, &amp;quot;Courier New&amp;quot;, monospace; font-size: 14px; font-weight: normal;&quot;&gt;SHF_LINK_ORDER&lt;/span&gt;&lt;span style=&quot;color: rgb(86, 156, 214); font-family: Consolas, &amp;quot;Courier New&amp;quot;, monospace; font-size: 14px; font-weight: normal;&quot;&gt; &amp;nbsp; &amp;nbsp; &amp;nbsp; (1 &amp;lt;&amp;lt; 7)&lt;/span&gt;&lt;font face=&quot;Consolas, Courier New, monospace&quot; color=&quot;#6a9955&quot;&gt; /* 合并后保留顺序&amp;nbsp;*/&lt;/font&gt;&lt;/div&gt;&lt;div style=&quot;color: rgb(204, 204, 204); font-family: Consolas, &amp;quot;Courier New&amp;quot;, monospace; font-size: 14px; font-weight: normal;&quot;&gt;&lt;span style=&quot;color: rgb(197, 134, 192); font-family: Consolas, &amp;quot;Courier New&amp;quot;, monospace; font-size: 14px; font-weight: normal;&quot;&gt;#define&lt;/span&gt;&lt;span style=&quot;color: rgb(86, 156, 214); font-family: Consolas, &amp;quot;Courier New&amp;quot;, monospace; font-size: 14px; font-weight: normal;&quot;&gt; &lt;/span&gt;&lt;span style=&quot;color: rgb(86, 156, 214); font-family: Consolas, &amp;quot;Courier New&amp;quot;, monospace; font-size: 14px; font-weight: normal;&quot;&gt;SHF_OS_NONCONFORMING&lt;/span&gt;&lt;span style=&quot;color: rgb(86, 156, 214); font-family: Consolas, &amp;quot;Courier New&amp;quot;, monospace; font-size: 14px; font-weight: normal;&quot;&gt; (1 &amp;lt;&amp;lt; 8)&lt;/span&gt;&lt;span style=&quot;color: rgb(106, 153, 85); font-family: Consolas, &amp;quot;Courier New&amp;quot;, monospace; font-size: 14px; font-weight: normal;&quot;&gt; /*&amp;nbsp;&lt;/span&gt;&lt;font face=&quot;Consolas, Courier New, monospace&quot; color=&quot;#6a9955&quot;&gt;需要非标准操作系统特定处理&lt;/font&gt;&lt;span style=&quot;color: rgb(204, 204, 204); font-family: Consolas, &amp;quot;Courier New&amp;quot;, monospace; font-size: 14px; font-weight: normal;&quot;&gt;&amp;nbsp;&lt;/span&gt;*/&lt;/div&gt;&lt;div style=&quot;color: rgb(204, 204, 204); font-family: Consolas, &amp;quot;Courier New&amp;quot;, monospace; font-size: 14px; font-weight: normal;&quot;&gt;&lt;span style=&quot;color: rgb(197, 134, 192); font-family: Consolas, &amp;quot;Courier New&amp;quot;, monospace; font-size: 14px; font-weight: normal;&quot;&gt;#define&lt;/span&gt;&lt;span style=&quot;color: rgb(86, 156, 214); font-family: Consolas, &amp;quot;Courier New&amp;quot;, monospace; font-size: 14px; font-weight: normal;&quot;&gt; &lt;/span&gt;&lt;span style=&quot;color: rgb(86, 156, 214); font-family: Consolas, &amp;quot;Courier New&amp;quot;, monospace; font-size: 14px; font-weight: normal;&quot;&gt;SHF_GROUP&lt;/span&gt;&lt;span style=&quot;color: rgb(86, 156, 214); font-family: Consolas, &amp;quot;Courier New&amp;quot;, monospace; font-size: 14px; font-weight: normal;&quot;&gt; &amp;nbsp; &amp;nbsp; &amp;nbsp;(1 &amp;lt;&amp;lt; 9)&lt;/span&gt;&lt;font face=&quot;Consolas, Courier New, monospace&quot; color=&quot;#6a9955&quot;&gt; /* 节是一个组的成员. &amp;nbsp;*/&lt;/font&gt;&lt;/div&gt;&lt;div style=&quot;color: rgb(204, 204, 204); font-family: Consolas, &amp;quot;Courier New&amp;quot;, monospace; font-size: 14px; font-weight: normal;&quot;&gt;&lt;span style=&quot;color: rgb(197, 134, 192); font-family: Consolas, &amp;quot;Courier New&amp;quot;, monospace; font-size: 14px; font-weight: normal;&quot;&gt;#define&lt;/span&gt;&lt;span style=&quot;color: rgb(86, 156, 214); font-family: Consolas, &amp;quot;Courier New&amp;quot;, monospace; font-size: 14px; font-weight: normal;&quot;&gt; &lt;/span&gt;&lt;span style=&quot;color: rgb(86, 156, 214); font-family: Consolas, &amp;quot;Courier New&amp;quot;, monospace; font-size: 14px; font-weight: normal;&quot;&gt;SHF_TLS&lt;/span&gt;&lt;span style=&quot;color: rgb(86, 156, 214); font-family: Consolas, &amp;quot;Courier New&amp;quot;, monospace; font-size: 14px; font-weight: normal;&quot;&gt; &amp;nbsp; &amp;nbsp; &amp;nbsp; &amp;nbsp;(1 &amp;lt;&amp;lt; 10)&lt;/span&gt;&lt;font face=&quot;Consolas, Courier New, monospace&quot; color=&quot;#6a9955&quot;&gt; &amp;nbsp;/* 保存线程本地数据的节. &amp;nbsp;*/&lt;/font&gt;&lt;/div&gt;&lt;div style=&quot;color: rgb(204, 204, 204); font-family: Consolas, &amp;quot;Courier New&amp;quot;, monospace; font-size: 14px; font-weight: normal;&quot;&gt;&lt;span style=&quot;color: rgb(197, 134, 192); font-family: Consolas, &amp;quot;Courier New&amp;quot;, monospace; font-size: 14px; font-weight: normal;&quot;&gt;#define&lt;/span&gt;&lt;span style=&quot;color: rgb(86, 156, 214); font-family: Consolas, &amp;quot;Courier New&amp;quot;, monospace; font-size: 14px; font-weight: normal;&quot;&gt; &lt;/span&gt;&lt;span style=&quot;color: rgb(86, 156, 214); font-family: Consolas, &amp;quot;Courier New&amp;quot;, monospace; font-size: 14px; font-weight: normal;&quot;&gt;SHF_COMPRESSED&lt;/span&gt;&lt;span style=&quot;color: rgb(86, 156, 214); font-family: Consolas, &amp;quot;Courier New&amp;quot;, monospace; font-size: 14px; font-weight: normal;&quot;&gt; &amp;nbsp; &amp;nbsp; &amp;nbsp; (1 &amp;lt;&amp;lt; 11)&lt;/span&gt;&lt;font face=&quot;Consolas, Courier New, monospace&quot; color=&quot;#6a9955&quot;&gt; &amp;nbsp;/* 包含压缩数据的部分. */&lt;/font&gt;&lt;/div&gt;&lt;div style=&quot;color: rgb(204, 204, 204); font-family: Consolas, &amp;quot;Courier New&amp;quot;, monospace; font-size: 14px; font-weight: normal;&quot;&gt;&lt;span style=&quot;color: rgb(197, 134, 192); font-family: Consolas, &amp;quot;Courier New&amp;quot;, monospace; font-size: 14px; font-weight: normal;&quot;&gt;#define&lt;/span&gt;&lt;span style=&quot;color: rgb(86, 156, 214); font-family: Consolas, &amp;quot;Courier New&amp;quot;, monospace; font-size: 14px; font-weight: normal;&quot;&gt; &lt;/span&gt;&lt;span style=&quot;color: rgb(86, 156, 214); font-family: Consolas, &amp;quot;Courier New&amp;quot;, monospace; font-size: 14px; font-weight: normal;&quot;&gt;SHF_MASKOS&lt;/span&gt;&lt;span style=&quot;color: rgb(86, 156, 214); font-family: Consolas, &amp;quot;Courier New&amp;quot;, monospace; font-size: 14px; font-weight: normal;&quot;&gt; &amp;nbsp; &amp;nbsp; &amp;nbsp; &lt;/span&gt;&lt;span style=&quot;color: rgb(181, 206, 168); font-family: Consolas, &amp;quot;Courier New&amp;quot;, monospace; font-size: 14px; font-weight: normal;&quot;&gt;0x0ff00000&lt;/span&gt;&lt;font face=&quot;Consolas, Courier New, monospace&quot; color=&quot;#6a9955&quot;&gt; /* 特定于操作系统. &amp;nbsp;*/&lt;/font&gt;&lt;/div&gt;&lt;div style=&quot;color: rgb(204, 204, 204); font-family: Consolas, &amp;quot;Courier New&amp;quot;, monospace; font-size: 14px; font-weight: normal;&quot;&gt;&lt;span style=&quot;color: #c586c0;&quot;&gt;#define&lt;/span&gt;&lt;span style=&quot;color: #569cd6;&quot;&gt; &lt;/span&gt;&lt;span style=&quot;color: #569cd6;&quot;&gt;SHF_MASKPROC&lt;/span&gt;&lt;span style=&quot;color: #569cd6;&quot;&gt; &amp;nbsp; &amp;nbsp; &amp;nbsp; &lt;/span&gt;&lt;span style=&quot;color: #b5cea8;&quot;&gt;0xf0000000&lt;/span&gt;&lt;span style=&quot;color: #6a9955;&quot;&gt; /* 特定于处理器 */&lt;/span&gt;&lt;/div&gt;&lt;div style=&quot;color: rgb(204, 204, 204); font-family: Consolas, &amp;quot;Courier New&amp;quot;, monospace; font-size: 14px; font-weight: normal;&quot;&gt;&lt;span style=&quot;color: rgb(197, 134, 192); font-family: Consolas, &amp;quot;Courier New&amp;quot;, monospace; font-size: 14px; font-weight: normal;&quot;&gt;#define&lt;/span&gt;&lt;span style=&quot;color: rgb(86, 156, 214); font-family: Consolas, &amp;quot;Courier New&amp;quot;, monospace; font-size: 14px; font-weight: normal;&quot;&gt; &lt;/span&gt;&lt;span style=&quot;color: rgb(86, 156, 214); font-family: Consolas, &amp;quot;Courier New&amp;quot;, monospace; font-size: 14px; font-weight: normal;&quot;&gt;SHF_GNU_RETAIN&lt;/span&gt;&lt;span style=&quot;color: rgb(86, 156, 214); font-family: Consolas, &amp;quot;Courier New&amp;quot;, monospace; font-size: 14px; font-weight: normal;&quot;&gt; &amp;nbsp; &amp;nbsp; &amp;nbsp; (1 &amp;lt;&amp;lt; 21)&lt;/span&gt;&lt;font face=&quot;Consolas, Courier New, monospace&quot; color=&quot;#6a9955&quot;&gt; &amp;nbsp;/* 不被链接器GC. &amp;nbsp;*/&lt;/font&gt;&lt;/div&gt;&lt;div style=&quot;color: rgb(204, 204, 204); font-family: Consolas, &amp;quot;Courier New&amp;quot;, monospace; font-size: 14px; font-weight: normal;&quot;&gt;&lt;span style=&quot;color: #c586c0;&quot;&gt;#define&lt;/span&gt;&lt;span style=&quot;color: #569cd6;&quot;&gt; &lt;/span&gt;&lt;span style=&quot;color: #569cd6;&quot;&gt;SHF_ORDERED&lt;/span&gt;&lt;span style=&quot;color: #569cd6;&quot;&gt; &amp;nbsp; &amp;nbsp; &amp;nbsp;(1 &amp;lt;&amp;lt; 30)&lt;/span&gt;&lt;span style=&quot;color: #6a9955;&quot;&gt; &amp;nbsp;/* 特殊的排序要求&lt;/span&gt;. &amp;nbsp;&lt;span style=&quot;color: rgb(244, 71, 71);&quot;&gt;*/&lt;/span&gt;&lt;/div&gt;&lt;div style=&quot;&quot;&gt;&lt;span style=&quot;color: rgb(197, 134, 192); font-family: Consolas, &amp;quot;Courier New&amp;quot;, monospace; font-size: 14px; font-weight: normal;&quot;&gt;#define&lt;/span&gt;&lt;span style=&quot;color: rgb(86, 156, 214); font-family: Consolas, &amp;quot;Courier New&amp;quot;, monospace; font-size: 14px; font-weight: normal;&quot;&gt; &lt;/span&gt;&lt;span style=&quot;color: rgb(86, 156, 214); font-family: Consolas, &amp;quot;Courier New&amp;quot;, monospace; font-size: 14px; font-weight: normal;&quot;&gt;SHF_EXCLUDE&lt;/span&gt;&lt;span style=&quot;color: rgb(86, 156, 214); font-family: Consolas, &amp;quot;Courier New&amp;quot;, monospace; font-size: 14px; font-weight: normal;&quot;&gt; &amp;nbsp; &amp;nbsp; &amp;nbsp;(1U &amp;lt;&amp;lt; 31)&lt;/span&gt;&lt;span style=&quot;color: rgb(106, 153, 85); font-family: Consolas, &amp;quot;Courier New&amp;quot;, monospace; font-size: 14px; font-weight: normal;&quot;&gt; /*&amp;nbsp;&lt;/span&gt;&lt;font face=&quot;Consolas, Courier New, monospace&quot; color=&quot;#6a9955&quot;&gt;除非节被引用或分配，否则节被排除 (Solaris)。&lt;/font&gt;&lt;span style=&quot;color: rgb(244, 71, 71); font-family: Consolas, &amp;quot;Courier New&amp;quot;, monospace; font-size: 14px; font-weight: normal;&quot;&gt;*/&lt;/span&gt;&lt;/div&gt;&lt;/div&gt;" style="text;whiteSpace=wrap;html=1;" parent="1" vertex="1">
          <mxGeometry x="1240" y="1260" width="590" height="330" as="geometry" />
        </mxCell>
        <mxCell id="ifZyqwG-hICFNkMZj-hm-5" value="" style="shape=flexArrow;endArrow=classic;html=1;rounded=0;strokeColor=#6c8ebf;fillColor=#dae8fc;entryX=0.005;entryY=0.068;entryDx=0;entryDy=0;exitX=0.682;exitY=0.346;exitDx=0;exitDy=0;exitPerimeter=0;entryPerimeter=0;" parent="1" source="cGnAWdVKwM5nVpl3sOE8-105" target="ifZyqwG-hICFNkMZj-hm-4" edge="1">
          <mxGeometry width="50" height="50" relative="1" as="geometry">
            <mxPoint x="970" y="1282" as="sourcePoint" />
            <mxPoint x="1333" y="1199" as="targetPoint" />
            <Array as="points" />
          </mxGeometry>
        </mxCell>
        <mxCell id="ifZyqwG-hICFNkMZj-hm-6" value="" style="endArrow=classic;html=1;rounded=0;exitX=0.023;exitY=0.654;exitDx=0;exitDy=0;exitPerimeter=0;entryX=0;entryY=0.115;entryDx=0;entryDy=0;entryPerimeter=0;fillColor=#dae8fc;strokeColor=#6c8ebf;dashed=1;strokeWidth=3;" parent="1" source="cGnAWdVKwM5nVpl3sOE8-105" target="cGnAWdVKwM5nVpl3sOE8-105" edge="1">
          <mxGeometry width="50" height="50" relative="1" as="geometry">
            <mxPoint x="440" y="1360" as="sourcePoint" />
            <mxPoint x="570" y="1220" as="targetPoint" />
            <Array as="points">
              <mxPoint x="570" y="1360" />
              <mxPoint x="570" y="1220" />
            </Array>
          </mxGeometry>
        </mxCell>
        <mxCell id="ifZyqwG-hICFNkMZj-hm-7" value="下标" style="edgeLabel;html=1;align=center;verticalAlign=middle;resizable=0;points=[];" parent="ifZyqwG-hICFNkMZj-hm-6" vertex="1" connectable="0">
          <mxGeometry x="0.0655" y="-1" relative="1" as="geometry">
            <mxPoint as="offset" />
          </mxGeometry>
        </mxCell>
        <mxCell id="mXNCd9asIf8t3rm5nd_7-26" style="edgeStyle=orthogonalEdgeStyle;rounded=0;orthogonalLoop=1;jettySize=auto;html=1;entryX=0;entryY=0.5;entryDx=0;entryDy=0;dashed=1;fillColor=#dae8fc;strokeColor=#6c8ebf;exitX=0.5;exitY=1;exitDx=0;exitDy=0;strokeWidth=3;" parent="1" source="mXNCd9asIf8t3rm5nd_7-14" target="mXNCd9asIf8t3rm5nd_7-21" edge="1">
          <mxGeometry relative="1" as="geometry">
            <mxPoint x="1120" y="1600" as="sourcePoint" />
            <Array as="points">
              <mxPoint x="1120" y="1600" />
              <mxPoint x="20" y="1600" />
              <mxPoint x="20" y="943" />
            </Array>
          </mxGeometry>
        </mxCell>
        <mxCell id="mXNCd9asIf8t3rm5nd_7-27" value="Symtab段下标" style="edgeLabel;html=1;align=center;verticalAlign=middle;resizable=0;points=[];" parent="mXNCd9asIf8t3rm5nd_7-26" vertex="1" connectable="0">
          <mxGeometry x="0.6567" y="1" relative="1" as="geometry">
            <mxPoint x="431" y="361" as="offset" />
          </mxGeometry>
        </mxCell>
        <mxCell id="ifZyqwG-hICFNkMZj-hm-8" value="&lt;div style=&quot;background-color: rgb(31, 31, 31); line-height: 19px; font-weight: normal; font-size: 14px; font-family: Consolas, &amp;quot;Courier New&amp;quot;, monospace; color: rgb(204, 204, 204);&quot;&gt;&lt;div style=&quot;color: rgb(204, 204, 204); font-family: Consolas, &amp;quot;Courier New&amp;quot;, monospace; font-size: 14px; font-weight: normal;&quot;&gt;&lt;span style=&quot;color: #569cd6;&quot;&gt;typedef&lt;/span&gt;&lt;span style=&quot;color: #cccccc;&quot;&gt; &lt;/span&gt;&lt;span style=&quot;color: #569cd6;&quot;&gt;struct&lt;/span&gt;&lt;/div&gt;&lt;div style=&quot;color: rgb(204, 204, 204); font-family: Consolas, &amp;quot;Courier New&amp;quot;, monospace; font-size: 14px; font-weight: normal;&quot;&gt;&lt;span style=&quot;color: #cccccc;&quot;&gt;{&lt;/span&gt;&lt;/div&gt;&lt;div style=&quot;color: rgb(204, 204, 204); font-family: Consolas, &amp;quot;Courier New&amp;quot;, monospace; font-size: 14px; font-weight: normal;&quot;&gt;&lt;span style=&quot;color: #cccccc;&quot;&gt;&amp;nbsp; &lt;/span&gt;&lt;span style=&quot;color: #4ec9b0;&quot;&gt;Elf64_Word&lt;/span&gt;&lt;span style=&quot;color: #cccccc;&quot;&gt; &amp;nbsp;&lt;/span&gt;&lt;span style=&quot;color: #9cdcfe;&quot;&gt;st_name&lt;/span&gt;&lt;span style=&quot;color: #cccccc;&quot;&gt;;&lt;/span&gt;&lt;span style=&quot;color: #6a9955;&quot;&gt; &amp;nbsp; &amp;nbsp;/* 符号名称 (string tbl index) */&lt;/span&gt;&lt;/div&gt;&lt;div style=&quot;color: rgb(204, 204, 204); font-family: Consolas, &amp;quot;Courier New&amp;quot;, monospace; font-size: 14px; font-weight: normal;&quot;&gt;&lt;span style=&quot;color: #cccccc;&quot;&gt;&amp;nbsp; &lt;/span&gt;&lt;span style=&quot;color: #569cd6;&quot;&gt;unsigned&lt;/span&gt;&lt;span style=&quot;color: #cccccc;&quot;&gt; &lt;/span&gt;&lt;span style=&quot;color: #569cd6;&quot;&gt;char&lt;/span&gt;&lt;span style=&quot;color: #cccccc;&quot;&gt; &lt;/span&gt;&lt;span style=&quot;color: #9cdcfe;&quot;&gt;st_info&lt;/span&gt;&lt;span style=&quot;color: #cccccc;&quot;&gt;;&lt;/span&gt;&lt;span style=&quot;color: #6a9955;&quot;&gt; &amp;nbsp; &amp;nbsp;/* 符号类型与绑定 */&lt;/span&gt;&lt;/div&gt;&lt;div style=&quot;color: rgb(204, 204, 204); font-family: Consolas, &amp;quot;Courier New&amp;quot;, monospace; font-size: 14px; font-weight: normal;&quot;&gt;&lt;span style=&quot;color: rgb(204, 204, 204); font-family: Consolas, &amp;quot;Courier New&amp;quot;, monospace; font-size: 14px; font-weight: normal;&quot;&gt;&amp;nbsp; &lt;/span&gt;&lt;span style=&quot;color: rgb(86, 156, 214); font-family: Consolas, &amp;quot;Courier New&amp;quot;, monospace; font-size: 14px; font-weight: normal;&quot;&gt;unsigned&lt;/span&gt;&lt;span style=&quot;color: rgb(204, 204, 204); font-family: Consolas, &amp;quot;Courier New&amp;quot;, monospace; font-size: 14px; font-weight: normal;&quot;&gt; &lt;/span&gt;&lt;span style=&quot;color: rgb(86, 156, 214); font-family: Consolas, &amp;quot;Courier New&amp;quot;, monospace; font-size: 14px; font-weight: normal;&quot;&gt;char&lt;/span&gt;&lt;span style=&quot;color: rgb(204, 204, 204); font-family: Consolas, &amp;quot;Courier New&amp;quot;, monospace; font-size: 14px; font-weight: normal;&quot;&gt; &lt;/span&gt;&lt;span style=&quot;color: rgb(156, 220, 254); font-family: Consolas, &amp;quot;Courier New&amp;quot;, monospace; font-size: 14px; font-weight: normal;&quot;&gt;st_other&lt;/span&gt;&lt;span style=&quot;color: rgb(204, 204, 204); font-family: Consolas, &amp;quot;Courier New&amp;quot;, monospace; font-size: 14px; font-weight: normal;&quot;&gt;;&lt;/span&gt;&lt;font face=&quot;Consolas, Courier New, monospace&quot; color=&quot;#6a9955&quot;&gt; &amp;nbsp; /* 符号可见性&amp;nbsp;*/&lt;/font&gt;&lt;/div&gt;&lt;div style=&quot;color: rgb(204, 204, 204); font-family: Consolas, &amp;quot;Courier New&amp;quot;, monospace; font-size: 14px; font-weight: normal;&quot;&gt;&lt;span style=&quot;color: #cccccc;&quot;&gt;&amp;nbsp; &lt;/span&gt;&lt;span style=&quot;color: #4ec9b0;&quot;&gt;Elf64_Section&lt;/span&gt;&lt;span style=&quot;color: #cccccc;&quot;&gt; &lt;/span&gt;&lt;span style=&quot;color: #9cdcfe;&quot;&gt;st_shndx&lt;/span&gt;&lt;span style=&quot;color: #cccccc;&quot;&gt;;&lt;/span&gt;&lt;span style=&quot;color: #6a9955;&quot;&gt; &amp;nbsp; /* 节下标 */&lt;/span&gt;&lt;/div&gt;&lt;div style=&quot;color: rgb(204, 204, 204); font-family: Consolas, &amp;quot;Courier New&amp;quot;, monospace; font-size: 14px; font-weight: normal;&quot;&gt;&lt;span style=&quot;color: rgb(204, 204, 204); font-family: Consolas, &amp;quot;Courier New&amp;quot;, monospace; font-size: 14px; font-weight: normal;&quot;&gt;&amp;nbsp; &lt;/span&gt;&lt;span style=&quot;color: rgb(78, 201, 176); font-family: Consolas, &amp;quot;Courier New&amp;quot;, monospace; font-size: 14px; font-weight: normal;&quot;&gt;Elf64_Addr&lt;/span&gt;&lt;span style=&quot;color: rgb(204, 204, 204); font-family: Consolas, &amp;quot;Courier New&amp;quot;, monospace; font-size: 14px; font-weight: normal;&quot;&gt; &amp;nbsp;&lt;/span&gt;&lt;span style=&quot;color: rgb(156, 220, 254); font-family: Consolas, &amp;quot;Courier New&amp;quot;, monospace; font-size: 14px; font-weight: normal;&quot;&gt;st_value&lt;/span&gt;&lt;span style=&quot;color: rgb(204, 204, 204); font-family: Consolas, &amp;quot;Courier New&amp;quot;, monospace; font-size: 14px; font-weight: normal;&quot;&gt;;&lt;/span&gt;&lt;font face=&quot;Consolas, Courier New, monospace&quot; color=&quot;#6a9955&quot;&gt; &amp;nbsp; /* 符号值&amp;nbsp;*/&lt;/font&gt;&lt;/div&gt;&lt;div style=&quot;&quot;&gt;&lt;span style=&quot;color: rgb(204, 204, 204); font-family: Consolas, &amp;quot;Courier New&amp;quot;, monospace; font-size: 14px; font-weight: normal;&quot;&gt;&amp;nbsp; &lt;/span&gt;&lt;span style=&quot;color: rgb(78, 201, 176); font-family: Consolas, &amp;quot;Courier New&amp;quot;, monospace; font-size: 14px; font-weight: normal;&quot;&gt;Elf64_Xword&lt;/span&gt;&lt;span style=&quot;color: rgb(204, 204, 204); font-family: Consolas, &amp;quot;Courier New&amp;quot;, monospace; font-size: 14px; font-weight: normal;&quot;&gt; &lt;/span&gt;&lt;span style=&quot;color: rgb(156, 220, 254); font-family: Consolas, &amp;quot;Courier New&amp;quot;, monospace; font-size: 14px; font-weight: normal;&quot;&gt;st_size&lt;/span&gt;&lt;span style=&quot;color: rgb(204, 204, 204); font-family: Consolas, &amp;quot;Courier New&amp;quot;, monospace; font-size: 14px; font-weight: normal;&quot;&gt;;&lt;/span&gt;&lt;font face=&quot;Consolas, Courier New, monospace&quot; color=&quot;#6a9955&quot;&gt; &amp;nbsp; &amp;nbsp;/* 符号大小&amp;nbsp;*/&lt;/font&gt;&lt;/div&gt;&lt;div style=&quot;color: rgb(204, 204, 204); font-family: Consolas, &amp;quot;Courier New&amp;quot;, monospace; font-size: 14px; font-weight: normal;&quot;&gt;&lt;span style=&quot;color: #cccccc;&quot;&gt;} &lt;/span&gt;&lt;span style=&quot;color: #4ec9b0;&quot;&gt;Elf64_Sym&lt;/span&gt;&lt;span style=&quot;color: #cccccc;&quot;&gt;;&lt;/span&gt;&lt;/div&gt;&lt;/div&gt;" style="text;whiteSpace=wrap;html=1;" parent="1" vertex="1">
          <mxGeometry x="1240" y="1650" width="460" height="180" as="geometry" />
        </mxCell>
        <mxCell id="MZaVHfts3UngnJGP14QF-5" value="" style="shape=flexArrow;endArrow=classic;html=1;rounded=0;strokeColor=#6c8ebf;fillColor=#dae8fc;exitX=0.5;exitY=1;exitDx=0;exitDy=0;entryX=0;entryY=0.073;entryDx=0;entryDy=0;entryPerimeter=0;" parent="1" source="mXNCd9asIf8t3rm5nd_7-14" target="ifZyqwG-hICFNkMZj-hm-8" edge="1">
          <mxGeometry width="50" height="50" relative="1" as="geometry">
            <mxPoint x="891" y="1300" as="sourcePoint" />
            <mxPoint x="250" y="1710" as="targetPoint" />
            <Array as="points">
              <mxPoint x="1120" y="1663" />
            </Array>
          </mxGeometry>
        </mxCell>
        <mxCell id="mXNCd9asIf8t3rm5nd_7-55" value="Y" style="edgeLabel;html=1;align=center;verticalAlign=middle;resizable=0;points=[];" parent="MZaVHfts3UngnJGP14QF-5" vertex="1" connectable="0">
          <mxGeometry x="-0.6508" y="2" relative="1" as="geometry">
            <mxPoint x="-2" as="offset" />
          </mxGeometry>
        </mxCell>
        <mxCell id="mXNCd9asIf8t3rm5nd_7-1" value="&lt;div style=&quot;background-color: rgb(31, 31, 31); line-height: 19px; font-weight: normal; font-size: 14px; font-family: Consolas, &amp;quot;Courier New&amp;quot;, monospace; color: rgb(204, 204, 204);&quot;&gt;&lt;div style=&quot;color: rgb(204, 204, 204); font-family: Consolas, &amp;quot;Courier New&amp;quot;, monospace; font-size: 14px; font-weight: normal;&quot;&gt;&lt;span style=&quot;color: rgb(197, 134, 192); font-family: Consolas, &amp;quot;Courier New&amp;quot;, monospace; font-size: 14px; font-weight: normal;&quot;&gt;#define&lt;/span&gt;&lt;span style=&quot;color: rgb(86, 156, 214); font-family: Consolas, &amp;quot;Courier New&amp;quot;, monospace; font-size: 14px; font-weight: normal;&quot;&gt; &lt;/span&gt;&lt;span style=&quot;color: rgb(86, 156, 214); font-family: Consolas, &amp;quot;Courier New&amp;quot;, monospace; font-size: 14px; font-weight: normal;&quot;&gt;STT_NOTYPE&lt;/span&gt;&lt;span style=&quot;color: rgb(86, 156, 214); font-family: Consolas, &amp;quot;Courier New&amp;quot;, monospace; font-size: 14px; font-weight: normal;&quot;&gt; &amp;nbsp;&lt;/span&gt;&lt;span style=&quot;color: rgb(181, 206, 168); font-family: Consolas, &amp;quot;Courier New&amp;quot;, monospace; font-size: 14px; font-weight: normal;&quot;&gt;0&lt;/span&gt;&lt;font face=&quot;Consolas, Courier New, monospace&quot; color=&quot;#6a9955&quot;&gt; &amp;nbsp; /* 符号类型未指定&amp;nbsp;*/&lt;/font&gt;&lt;/div&gt;&lt;div style=&quot;color: rgb(204, 204, 204); font-family: Consolas, &amp;quot;Courier New&amp;quot;, monospace; font-size: 14px; font-weight: normal;&quot;&gt;&lt;span style=&quot;color: rgb(197, 134, 192); font-family: Consolas, &amp;quot;Courier New&amp;quot;, monospace; font-size: 14px; font-weight: normal;&quot;&gt;#define&lt;/span&gt;&lt;span style=&quot;color: rgb(86, 156, 214); font-family: Consolas, &amp;quot;Courier New&amp;quot;, monospace; font-size: 14px; font-weight: normal;&quot;&gt; &lt;/span&gt;&lt;span style=&quot;color: rgb(86, 156, 214); font-family: Consolas, &amp;quot;Courier New&amp;quot;, monospace; font-size: 14px; font-weight: normal;&quot;&gt;STT_OBJECT&lt;/span&gt;&lt;span style=&quot;color: rgb(86, 156, 214); font-family: Consolas, &amp;quot;Courier New&amp;quot;, monospace; font-size: 14px; font-weight: normal;&quot;&gt; &amp;nbsp;&lt;/span&gt;&lt;span style=&quot;color: rgb(181, 206, 168); font-family: Consolas, &amp;quot;Courier New&amp;quot;, monospace; font-size: 14px; font-weight: normal;&quot;&gt;1&lt;/span&gt;&lt;font face=&quot;Consolas, Courier New, monospace&quot; color=&quot;#6a9955&quot;&gt; &amp;nbsp; /* 符号是一个数据对象&amp;nbsp;*/&lt;/font&gt;&lt;/div&gt;&lt;div style=&quot;color: rgb(204, 204, 204); font-family: Consolas, &amp;quot;Courier New&amp;quot;, monospace; font-size: 14px; font-weight: normal;&quot;&gt;&lt;span style=&quot;color: rgb(197, 134, 192); font-family: Consolas, &amp;quot;Courier New&amp;quot;, monospace; font-size: 14px; font-weight: normal;&quot;&gt;#define&lt;/span&gt;&lt;span style=&quot;color: rgb(86, 156, 214); font-family: Consolas, &amp;quot;Courier New&amp;quot;, monospace; font-size: 14px; font-weight: normal;&quot;&gt; &lt;/span&gt;&lt;span style=&quot;color: rgb(86, 156, 214); font-family: Consolas, &amp;quot;Courier New&amp;quot;, monospace; font-size: 14px; font-weight: normal;&quot;&gt;STT_FUNC&lt;/span&gt;&lt;span style=&quot;color: rgb(86, 156, 214); font-family: Consolas, &amp;quot;Courier New&amp;quot;, monospace; font-size: 14px; font-weight: normal;&quot;&gt; &amp;nbsp;&lt;/span&gt;&lt;span style=&quot;color: rgb(181, 206, 168); font-family: Consolas, &amp;quot;Courier New&amp;quot;, monospace; font-size: 14px; font-weight: normal;&quot;&gt;2&lt;/span&gt;&lt;font face=&quot;Consolas, Courier New, monospace&quot; color=&quot;#6a9955&quot;&gt; &amp;nbsp; /* 符号是一个代码对象&amp;nbsp;*/&lt;/font&gt;&lt;/div&gt;&lt;div style=&quot;color: rgb(204, 204, 204); font-family: Consolas, &amp;quot;Courier New&amp;quot;, monospace; font-size: 14px; font-weight: normal;&quot;&gt;&lt;span style=&quot;color: rgb(197, 134, 192); font-family: Consolas, &amp;quot;Courier New&amp;quot;, monospace; font-size: 14px; font-weight: normal;&quot;&gt;#define&lt;/span&gt;&lt;span style=&quot;color: rgb(86, 156, 214); font-family: Consolas, &amp;quot;Courier New&amp;quot;, monospace; font-size: 14px; font-weight: normal;&quot;&gt; &lt;/span&gt;&lt;span style=&quot;color: rgb(86, 156, 214); font-family: Consolas, &amp;quot;Courier New&amp;quot;, monospace; font-size: 14px; font-weight: normal;&quot;&gt;STT_SECTION&lt;/span&gt;&lt;span style=&quot;color: rgb(86, 156, 214); font-family: Consolas, &amp;quot;Courier New&amp;quot;, monospace; font-size: 14px; font-weight: normal;&quot;&gt; &lt;/span&gt;&lt;span style=&quot;color: rgb(181, 206, 168); font-family: Consolas, &amp;quot;Courier New&amp;quot;, monospace; font-size: 14px; font-weight: normal;&quot;&gt;3&lt;/span&gt;&lt;font face=&quot;Consolas, Courier New, monospace&quot; color=&quot;#6a9955&quot;&gt; &amp;nbsp; /* 与节相关的符号&amp;nbsp;*/&lt;/font&gt;&lt;/div&gt;&lt;div style=&quot;color: rgb(204, 204, 204); font-family: Consolas, &amp;quot;Courier New&amp;quot;, monospace; font-size: 14px; font-weight: normal;&quot;&gt;&lt;span style=&quot;color: rgb(197, 134, 192); font-family: Consolas, &amp;quot;Courier New&amp;quot;, monospace; font-size: 14px; font-weight: normal;&quot;&gt;#define&lt;/span&gt;&lt;span style=&quot;color: rgb(86, 156, 214); font-family: Consolas, &amp;quot;Courier New&amp;quot;, monospace; font-size: 14px; font-weight: normal;&quot;&gt; &lt;/span&gt;&lt;span style=&quot;color: rgb(86, 156, 214); font-family: Consolas, &amp;quot;Courier New&amp;quot;, monospace; font-size: 14px; font-weight: normal;&quot;&gt;STT_FILE&lt;/span&gt;&lt;span style=&quot;color: rgb(86, 156, 214); font-family: Consolas, &amp;quot;Courier New&amp;quot;, monospace; font-size: 14px; font-weight: normal;&quot;&gt; &amp;nbsp;&lt;/span&gt;&lt;span style=&quot;color: rgb(181, 206, 168); font-family: Consolas, &amp;quot;Courier New&amp;quot;, monospace; font-size: 14px; font-weight: normal;&quot;&gt;4&lt;/span&gt;&lt;font face=&quot;Consolas, Courier New, monospace&quot; color=&quot;#6a9955&quot;&gt; &amp;nbsp; /* 符号的名称是文件名&amp;nbsp;*/&lt;/font&gt;&lt;/div&gt;&lt;div style=&quot;color: rgb(204, 204, 204); font-family: Consolas, &amp;quot;Courier New&amp;quot;, monospace; font-size: 14px; font-weight: normal;&quot;&gt;&lt;span style=&quot;color: rgb(197, 134, 192); font-family: Consolas, &amp;quot;Courier New&amp;quot;, monospace; font-size: 14px; font-weight: normal;&quot;&gt;#define&lt;/span&gt;&lt;span style=&quot;color: rgb(86, 156, 214); font-family: Consolas, &amp;quot;Courier New&amp;quot;, monospace; font-size: 14px; font-weight: normal;&quot;&gt; &lt;/span&gt;&lt;span style=&quot;color: rgb(86, 156, 214); font-family: Consolas, &amp;quot;Courier New&amp;quot;, monospace; font-size: 14px; font-weight: normal;&quot;&gt;STT_COMMON&lt;/span&gt;&lt;span style=&quot;color: rgb(86, 156, 214); font-family: Consolas, &amp;quot;Courier New&amp;quot;, monospace; font-size: 14px; font-weight: normal;&quot;&gt; &amp;nbsp;&lt;/span&gt;&lt;span style=&quot;color: rgb(181, 206, 168); font-family: Consolas, &amp;quot;Courier New&amp;quot;, monospace; font-size: 14px; font-weight: normal;&quot;&gt;5&lt;/span&gt;&lt;font face=&quot;Consolas, Courier New, monospace&quot; color=&quot;#6a9955&quot;&gt; &amp;nbsp; /* 符号是一个常见的数据对象&amp;nbsp;*/&lt;/font&gt;&lt;/div&gt;&lt;div style=&quot;&quot;&gt;&lt;span style=&quot;color: rgb(197, 134, 192); font-family: Consolas, &amp;quot;Courier New&amp;quot;, monospace; font-size: 14px; font-weight: normal;&quot;&gt;#define&lt;/span&gt;&lt;span style=&quot;color: rgb(86, 156, 214); font-family: Consolas, &amp;quot;Courier New&amp;quot;, monospace; font-size: 14px; font-weight: normal;&quot;&gt; &lt;/span&gt;&lt;span style=&quot;color: rgb(86, 156, 214); font-family: Consolas, &amp;quot;Courier New&amp;quot;, monospace; font-size: 14px; font-weight: normal;&quot;&gt;STT_TLS&lt;/span&gt;&lt;span style=&quot;color: rgb(86, 156, 214); font-family: Consolas, &amp;quot;Courier New&amp;quot;, monospace; font-size: 14px; font-weight: normal;&quot;&gt; &amp;nbsp; &lt;/span&gt;&lt;span style=&quot;color: rgb(181, 206, 168); font-family: Consolas, &amp;quot;Courier New&amp;quot;, monospace; font-size: 14px; font-weight: normal;&quot;&gt;6&lt;/span&gt;&lt;font face=&quot;Consolas, Courier New, monospace&quot; color=&quot;#6a9955&quot;&gt; &amp;nbsp; /* Symbol是线程本地数据对象*/&lt;/font&gt;&lt;/div&gt;&lt;div style=&quot;color: rgb(204, 204, 204); font-family: Consolas, &amp;quot;Courier New&amp;quot;, monospace; font-size: 14px; font-weight: normal;&quot;&gt;&lt;span style=&quot;color: #c586c0;&quot;&gt;#define&lt;/span&gt;&lt;span style=&quot;color: #569cd6;&quot;&gt; &lt;/span&gt;&lt;span style=&quot;color: #569cd6;&quot;&gt;STT_XXX&lt;/span&gt;&lt;/div&gt;&lt;/div&gt;" style="text;whiteSpace=wrap;html=1;" parent="1" vertex="1">
          <mxGeometry x="2030" y="1330" width="410" height="160" as="geometry" />
        </mxCell>
        <mxCell id="mXNCd9asIf8t3rm5nd_7-2" value="" style="shape=flexArrow;endArrow=classic;html=1;rounded=0;strokeColor=#6c8ebf;fillColor=#dae8fc;exitX=0.804;exitY=0.389;exitDx=0;exitDy=0;exitPerimeter=0;entryX=0;entryY=0.25;entryDx=0;entryDy=0;" parent="1" source="ifZyqwG-hICFNkMZj-hm-8" target="mXNCd9asIf8t3rm5nd_7-1" edge="1">
          <mxGeometry width="50" height="50" relative="1" as="geometry">
            <mxPoint x="2061" y="1710" as="sourcePoint" />
            <mxPoint x="1760" y="1790" as="targetPoint" />
            <Array as="points">
              <mxPoint x="1860" y="1720" />
              <mxPoint x="1860" y="1370" />
            </Array>
          </mxGeometry>
        </mxCell>
        <mxCell id="mXNCd9asIf8t3rm5nd_7-29" value="&lt;div style=&quot;color: rgb(204, 204, 204); background-color: rgb(31, 31, 31); font-family: Consolas, &amp;quot;Courier New&amp;quot;, monospace; font-size: 14px; line-height: 19px;&quot;&gt;ELF64_ST_TYPE(st_info)&lt;/div&gt;" style="edgeLabel;html=1;align=center;verticalAlign=middle;resizable=0;points=[];" parent="mXNCd9asIf8t3rm5nd_7-2" vertex="1" connectable="0">
          <mxGeometry x="0.0431" relative="1" as="geometry">
            <mxPoint x="80" y="-228" as="offset" />
          </mxGeometry>
        </mxCell>
        <mxCell id="mXNCd9asIf8t3rm5nd_7-9" value="" style="endArrow=classic;html=1;rounded=0;dashed=1;entryX=1;entryY=0.5;entryDx=0;entryDy=0;exitX=0.022;exitY=0.278;exitDx=0;exitDy=0;exitPerimeter=0;fillColor=#dae8fc;strokeColor=#6c8ebf;strokeWidth=3;" parent="1" source="ifZyqwG-hICFNkMZj-hm-8" target="mXNCd9asIf8t3rm5nd_7-25" edge="1">
          <mxGeometry width="50" height="50" relative="1" as="geometry">
            <mxPoint x="547" y="1679" as="sourcePoint" />
            <mxPoint x="380" y="1500" as="targetPoint" />
            <Array as="points">
              <mxPoint x="490" y="1700" />
              <mxPoint x="240" y="1700" />
              <mxPoint x="240" y="1280" />
              <mxPoint x="240" y="1061" />
            </Array>
          </mxGeometry>
        </mxCell>
        <mxCell id="mXNCd9asIf8t3rm5nd_7-10" value="下标" style="edgeLabel;html=1;align=center;verticalAlign=middle;resizable=0;points=[];" parent="mXNCd9asIf8t3rm5nd_7-9" vertex="1" connectable="0">
          <mxGeometry x="0.1891" relative="1" as="geometry">
            <mxPoint x="-3" y="-160" as="offset" />
          </mxGeometry>
        </mxCell>
        <mxCell id="mXNCd9asIf8t3rm5nd_7-16" value="" style="shape=flexArrow;endArrow=classic;html=1;rounded=0;strokeColor=#6c8ebf;fillColor=#dae8fc;exitX=0.682;exitY=0.346;exitDx=0;exitDy=0;exitPerimeter=0;entryX=0.5;entryY=0;entryDx=0;entryDy=0;" parent="1" target="mXNCd9asIf8t3rm5nd_7-14" edge="1">
          <mxGeometry width="50" height="50" relative="1" as="geometry">
            <mxPoint x="891" y="1300" as="sourcePoint" />
            <mxPoint x="230" y="1750" as="targetPoint" />
            <Array as="points">
              <mxPoint x="1120" y="1300" />
            </Array>
          </mxGeometry>
        </mxCell>
        <mxCell id="mXNCd9asIf8t3rm5nd_7-14" value="sh_type in [SHT_SYMTAB,SHT_DYNSYM]" style="rhombus;whiteSpace=wrap;html=1;fontStyle=0" parent="1" vertex="1">
          <mxGeometry x="1030" y="1480" width="180" height="105" as="geometry" />
        </mxCell>
        <mxCell id="mXNCd9asIf8t3rm5nd_7-21" value="Elf64_Shdr[Sym段下标+1].sh_offset" style="text;html=1;strokeColor=#6c8ebf;fillColor=#dae8fc;align=center;verticalAlign=middle;whiteSpace=wrap;rounded=0;" parent="1" vertex="1">
          <mxGeometry x="30" y="928" width="210" height="30" as="geometry" />
        </mxCell>
        <mxCell id="mXNCd9asIf8t3rm5nd_7-23" value="" style="shape=flexArrow;endArrow=classic;html=1;rounded=0;fillColor=#fff2cc;strokeColor=#d6b656;entryX=0.5;entryY=0;entryDx=0;entryDy=0;" parent="1" source="mXNCd9asIf8t3rm5nd_7-21" target="mXNCd9asIf8t3rm5nd_7-25" edge="1">
          <mxGeometry width="50" height="50" relative="1" as="geometry">
            <mxPoint x="134.79" y="958" as="sourcePoint" />
            <mxPoint x="134.79" y="1030" as="targetPoint" />
            <Array as="points" />
          </mxGeometry>
        </mxCell>
        <mxCell id="mXNCd9asIf8t3rm5nd_7-24" value="FOA" style="edgeLabel;html=1;align=center;verticalAlign=middle;resizable=0;points=[];" parent="mXNCd9asIf8t3rm5nd_7-23" vertex="1" connectable="0">
          <mxGeometry x="-0.3696" y="-3" relative="1" as="geometry">
            <mxPoint as="offset" />
          </mxGeometry>
        </mxCell>
        <mxCell id="mXNCd9asIf8t3rm5nd_7-25" value="节字符串表内存" style="rounded=0;whiteSpace=wrap;html=1;" parent="1" vertex="1">
          <mxGeometry x="75" y="1031" width="120" height="60" as="geometry" />
        </mxCell>
        <mxCell id="mXNCd9asIf8t3rm5nd_7-30" value="" style="shape=flexArrow;endArrow=classic;html=1;rounded=0;strokeColor=#6c8ebf;fillColor=#dae8fc;exitX=0.804;exitY=0.389;exitDx=0;exitDy=0;exitPerimeter=0;entryX=0;entryY=0.25;entryDx=0;entryDy=0;" parent="1" target="mXNCd9asIf8t3rm5nd_7-32" edge="1">
          <mxGeometry width="50" height="50" relative="1" as="geometry">
            <mxPoint x="1610" y="1720" as="sourcePoint" />
            <mxPoint x="1650" y="1930" as="targetPoint" />
            <Array as="points">
              <mxPoint x="1880" y="1720" />
              <mxPoint x="1880" y="1530" />
            </Array>
          </mxGeometry>
        </mxCell>
        <mxCell id="mXNCd9asIf8t3rm5nd_7-31" value="&lt;div style=&quot;color: rgb(204, 204, 204); background-color: rgb(31, 31, 31); font-family: Consolas, &amp;quot;Courier New&amp;quot;, monospace; font-size: 14px; line-height: 19px;&quot;&gt;ELF64_ST_BIND(st_info)&lt;/div&gt;" style="edgeLabel;html=1;align=center;verticalAlign=middle;resizable=0;points=[];" parent="mXNCd9asIf8t3rm5nd_7-30" vertex="1" connectable="0">
          <mxGeometry x="0.0431" relative="1" as="geometry">
            <mxPoint x="80" y="-172" as="offset" />
          </mxGeometry>
        </mxCell>
        <mxCell id="mXNCd9asIf8t3rm5nd_7-32" value="&lt;div style=&quot;background-color: rgb(31, 31, 31); line-height: 19px; font-weight: normal; font-size: 14px; font-family: Consolas, &amp;quot;Courier New&amp;quot;, monospace; color: rgb(204, 204, 204);&quot;&gt;&lt;div style=&quot;color: rgb(204, 204, 204); font-family: Consolas, &amp;quot;Courier New&amp;quot;, monospace; font-size: 14px; font-weight: normal;&quot;&gt;&lt;span style=&quot;color: #c586c0;&quot;&gt;#define&lt;/span&gt;&lt;span style=&quot;color: #569cd6;&quot;&gt; &lt;/span&gt;&lt;span style=&quot;color: #569cd6;&quot;&gt;STB_LOCAL&lt;/span&gt;&lt;span style=&quot;color: #569cd6;&quot;&gt; &lt;/span&gt;&lt;span style=&quot;color: #b5cea8;&quot;&gt;0&lt;/span&gt;&lt;span style=&quot;color: #6a9955;&quot;&gt; &amp;nbsp; /* 本地符号 */&lt;/span&gt;&lt;/div&gt;&lt;div style=&quot;color: rgb(204, 204, 204); font-family: Consolas, &amp;quot;Courier New&amp;quot;, monospace; font-size: 14px; font-weight: normal;&quot;&gt;&lt;span style=&quot;color: #c586c0;&quot;&gt;#define&lt;/span&gt;&lt;span style=&quot;color: #569cd6;&quot;&gt; &lt;/span&gt;&lt;span style=&quot;color: #569cd6;&quot;&gt;STB_GLOBAL&lt;/span&gt;&lt;span style=&quot;color: #569cd6;&quot;&gt; &amp;nbsp;&lt;/span&gt;&lt;span style=&quot;color: #b5cea8;&quot;&gt;1&lt;/span&gt;&lt;span style=&quot;color: #6a9955;&quot;&gt; &amp;nbsp; /* 全局符号 */&lt;/span&gt;&lt;/div&gt;&lt;div style=&quot;&quot;&gt;&lt;span style=&quot;color: rgb(197, 134, 192); font-family: Consolas, &amp;quot;Courier New&amp;quot;, monospace; font-size: 14px; font-weight: normal;&quot;&gt;#define&lt;/span&gt;&lt;span style=&quot;color: rgb(86, 156, 214); font-family: Consolas, &amp;quot;Courier New&amp;quot;, monospace; font-size: 14px; font-weight: normal;&quot;&gt; &lt;/span&gt;&lt;span style=&quot;color: rgb(86, 156, 214); font-family: Consolas, &amp;quot;Courier New&amp;quot;, monospace; font-size: 14px; font-weight: normal;&quot;&gt;STB_WEAK&lt;/span&gt;&lt;span style=&quot;color: rgb(86, 156, 214); font-family: Consolas, &amp;quot;Courier New&amp;quot;, monospace; font-size: 14px; font-weight: normal;&quot;&gt; &amp;nbsp;&lt;/span&gt;&lt;span style=&quot;color: rgb(181, 206, 168); font-family: Consolas, &amp;quot;Courier New&amp;quot;, monospace; font-size: 14px; font-weight: normal;&quot;&gt;2&lt;/span&gt;&lt;font face=&quot;Consolas, Courier New, monospace&quot; color=&quot;#6a9955&quot;&gt; &amp;nbsp; /* 弱符号&amp;nbsp;*/&lt;/font&gt;&lt;/div&gt;&lt;div style=&quot;color: rgb(204, 204, 204); font-family: Consolas, &amp;quot;Courier New&amp;quot;, monospace; font-size: 14px; font-weight: normal;&quot;&gt;&lt;span style=&quot;color: #c586c0;&quot;&gt;#define&lt;/span&gt;&lt;span style=&quot;color: #569cd6;&quot;&gt; &lt;/span&gt;&lt;span style=&quot;color: #569cd6;&quot;&gt;STB_XXX&lt;/span&gt;&lt;/div&gt;&lt;/div&gt;" style="text;whiteSpace=wrap;html=1;" parent="1" vertex="1">
          <mxGeometry x="2030" y="1507.5" width="300" height="90" as="geometry" />
        </mxCell>
        <mxCell id="mXNCd9asIf8t3rm5nd_7-34" value="" style="shape=flexArrow;endArrow=classic;html=1;rounded=0;strokeColor=#6c8ebf;fillColor=#dae8fc;exitX=0.804;exitY=0.389;exitDx=0;exitDy=0;exitPerimeter=0;entryX=0;entryY=0.25;entryDx=0;entryDy=0;" parent="1" target="mXNCd9asIf8t3rm5nd_7-36" edge="1">
          <mxGeometry width="50" height="50" relative="1" as="geometry">
            <mxPoint x="1580" y="1740" as="sourcePoint" />
            <mxPoint x="2020" y="1680" as="targetPoint" />
            <Array as="points">
              <mxPoint x="1900" y="1740" />
              <mxPoint x="1900" y="1663" />
            </Array>
          </mxGeometry>
        </mxCell>
        <mxCell id="mXNCd9asIf8t3rm5nd_7-35" value="&lt;div style=&quot;color: rgb(204, 204, 204); background-color: rgb(31, 31, 31); font-family: Consolas, &amp;quot;Courier New&amp;quot;, monospace; font-size: 14px; line-height: 19px;&quot;&gt;&lt;div style=&quot;line-height: 19px;&quot;&gt;ELF64_ST_VISIBILITY(&lt;span style=&quot;color: #9cdcfe;&quot;&gt;st_other)&lt;/span&gt;&lt;/div&gt;&lt;/div&gt;" style="edgeLabel;html=1;align=center;verticalAlign=middle;resizable=0;points=[];" parent="mXNCd9asIf8t3rm5nd_7-34" vertex="1" connectable="0">
          <mxGeometry x="0.0431" relative="1" as="geometry">
            <mxPoint x="159" y="-110" as="offset" />
          </mxGeometry>
        </mxCell>
        <mxCell id="mXNCd9asIf8t3rm5nd_7-36" value="&lt;div style=&quot;background-color: rgb(31, 31, 31); line-height: 19px;&quot;&gt;&lt;div style=&quot;color: rgb(204, 204, 204); font-family: Consolas, &amp;quot;Courier New&amp;quot;, monospace; font-size: 14px; font-weight: normal;&quot;&gt;&lt;span style=&quot;color: rgb(197, 134, 192); font-family: Consolas, &amp;quot;Courier New&amp;quot;, monospace; font-size: 14px; font-weight: normal;&quot;&gt;#define&lt;/span&gt;&lt;span style=&quot;color: rgb(86, 156, 214); font-family: Consolas, &amp;quot;Courier New&amp;quot;, monospace; font-size: 14px; font-weight: normal;&quot;&gt; &lt;/span&gt;&lt;span style=&quot;color: rgb(86, 156, 214); font-family: Consolas, &amp;quot;Courier New&amp;quot;, monospace; font-size: 14px; font-weight: normal;&quot;&gt;STV_DEFAULT&lt;/span&gt;&lt;span style=&quot;color: rgb(86, 156, 214); font-family: Consolas, &amp;quot;Courier New&amp;quot;, monospace; font-size: 14px; font-weight: normal;&quot;&gt; &lt;/span&gt;&lt;span style=&quot;color: rgb(181, 206, 168); font-family: Consolas, &amp;quot;Courier New&amp;quot;, monospace; font-size: 14px; font-weight: normal;&quot;&gt;0&lt;/span&gt;&lt;font face=&quot;Consolas, Courier New, monospace&quot; color=&quot;#6a9955&quot;&gt; &amp;nbsp; /* 默认符号可见性规则&amp;nbsp;*/&lt;/font&gt;&lt;/div&gt;&lt;div style=&quot;&quot;&gt;&lt;span style=&quot;color: rgb(197, 134, 192); font-family: Consolas, &amp;quot;Courier New&amp;quot;, monospace; font-size: 14px; font-weight: normal;&quot;&gt;#define&lt;/span&gt;&lt;span style=&quot;color: rgb(86, 156, 214); font-family: Consolas, &amp;quot;Courier New&amp;quot;, monospace; font-size: 14px; font-weight: normal;&quot;&gt; &lt;/span&gt;&lt;span style=&quot;color: rgb(86, 156, 214); font-family: Consolas, &amp;quot;Courier New&amp;quot;, monospace; font-size: 14px; font-weight: normal;&quot;&gt;STV_INTERNAL&lt;/span&gt;&lt;span style=&quot;color: rgb(86, 156, 214); font-family: Consolas, &amp;quot;Courier New&amp;quot;, monospace; font-size: 14px; font-weight: normal;&quot;&gt; &amp;nbsp;&lt;/span&gt;&lt;span style=&quot;color: rgb(181, 206, 168); font-family: Consolas, &amp;quot;Courier New&amp;quot;, monospace; font-size: 14px; font-weight: normal;&quot;&gt;1&lt;/span&gt;&lt;font face=&quot;Consolas, Courier New, monospace&quot; color=&quot;#6a9955&quot;&gt; &amp;nbsp; /* 处理器特定的隐藏类&amp;nbsp;*/&lt;/font&gt;&lt;/div&gt;&lt;div style=&quot;&quot;&gt;&lt;span style=&quot;color: rgb(197, 134, 192); font-family: Consolas, &amp;quot;Courier New&amp;quot;, monospace; font-size: 14px; font-weight: normal;&quot;&gt;#define&lt;/span&gt;&lt;span style=&quot;color: rgb(86, 156, 214); font-family: Consolas, &amp;quot;Courier New&amp;quot;, monospace; font-size: 14px; font-weight: normal;&quot;&gt; &lt;/span&gt;&lt;span style=&quot;color: rgb(86, 156, 214); font-family: Consolas, &amp;quot;Courier New&amp;quot;, monospace; font-size: 14px; font-weight: normal;&quot;&gt;STV_HIDDEN&lt;/span&gt;&lt;span style=&quot;color: rgb(86, 156, 214); font-family: Consolas, &amp;quot;Courier New&amp;quot;, monospace; font-size: 14px; font-weight: normal;&quot;&gt; &amp;nbsp;&lt;/span&gt;&lt;span style=&quot;color: rgb(181, 206, 168); font-family: Consolas, &amp;quot;Courier New&amp;quot;, monospace; font-size: 14px; font-weight: normal;&quot;&gt;2&lt;/span&gt;&lt;font face=&quot;Consolas, Courier New, monospace&quot; color=&quot;#6a9955&quot;&gt; &amp;nbsp; /* Sym 在其他模块中不可用&amp;nbsp;*/&lt;/font&gt;&lt;/div&gt;&lt;div style=&quot;&quot;&gt;&lt;span style=&quot;color: rgb(197, 134, 192); font-family: Consolas, &amp;quot;Courier New&amp;quot;, monospace; font-size: 14px; font-weight: normal;&quot;&gt;#define&lt;/span&gt;&lt;span style=&quot;color: rgb(86, 156, 214); font-family: Consolas, &amp;quot;Courier New&amp;quot;, monospace; font-size: 14px; font-weight: normal;&quot;&gt; &lt;/span&gt;&lt;span style=&quot;color: rgb(86, 156, 214); font-family: Consolas, &amp;quot;Courier New&amp;quot;, monospace; font-size: 14px; font-weight: normal;&quot;&gt;STV_PROTECTED&lt;/span&gt;&lt;span style=&quot;color: rgb(86, 156, 214); font-family: Consolas, &amp;quot;Courier New&amp;quot;, monospace; font-size: 14px; font-weight: normal;&quot;&gt; &lt;/span&gt;&lt;span style=&quot;color: rgb(181, 206, 168); font-family: Consolas, &amp;quot;Courier New&amp;quot;, monospace; font-size: 14px; font-weight: normal;&quot;&gt;3&lt;/span&gt;&lt;font face=&quot;Consolas, Courier New, monospace&quot; color=&quot;#6a9955&quot;&gt; &amp;nbsp; /* 不可抢占，不可导出&amp;nbsp;*/&lt;/font&gt;&lt;/div&gt;&lt;/div&gt;" style="text;whiteSpace=wrap;html=1;" parent="1" vertex="1">
          <mxGeometry x="2030" y="1640" width="370" height="90" as="geometry" />
        </mxCell>
        <mxCell id="mXNCd9asIf8t3rm5nd_7-37" value="&lt;div style=&quot;background-color: rgb(31, 31, 31); line-height: 19px;&quot;&gt;&lt;div style=&quot;color: rgb(204, 204, 204); font-family: Consolas, &amp;quot;Courier New&amp;quot;, monospace; font-size: 14px; font-weight: normal;&quot;&gt;&lt;span style=&quot;color: #c586c0;&quot;&gt;#define&lt;/span&gt;&lt;span style=&quot;color: #569cd6;&quot;&gt; &lt;/span&gt;&lt;span style=&quot;color: #569cd6;&quot;&gt;SHN_UNDEF&lt;/span&gt;&lt;span style=&quot;color: #569cd6;&quot;&gt; &lt;/span&gt;&lt;span style=&quot;color: #b5cea8;&quot;&gt;0&lt;/span&gt;&lt;span style=&quot;color: #6a9955;&quot;&gt; &amp;nbsp; /* Undefined section */&lt;/span&gt;&lt;/div&gt;&lt;div style=&quot;color: rgb(204, 204, 204); font-family: Consolas, &amp;quot;Courier New&amp;quot;, monospace; font-size: 14px; font-weight: normal;&quot;&gt;&lt;span style=&quot;color: rgb(197, 134, 192); font-family: Consolas, &amp;quot;Courier New&amp;quot;, monospace; font-size: 14px; font-weight: normal;&quot;&gt;#define&lt;/span&gt;&lt;span style=&quot;color: rgb(86, 156, 214); font-family: Consolas, &amp;quot;Courier New&amp;quot;, monospace; font-size: 14px; font-weight: normal;&quot;&gt; &lt;/span&gt;&lt;span style=&quot;color: rgb(86, 156, 214); font-family: Consolas, &amp;quot;Courier New&amp;quot;, monospace; font-size: 14px; font-weight: normal;&quot;&gt;SHN_LORESERVE&lt;/span&gt;&lt;span style=&quot;color: rgb(86, 156, 214); font-family: Consolas, &amp;quot;Courier New&amp;quot;, monospace; font-size: 14px; font-weight: normal;&quot;&gt; &lt;/span&gt;&lt;span style=&quot;color: rgb(181, 206, 168); font-family: Consolas, &amp;quot;Courier New&amp;quot;, monospace; font-size: 14px; font-weight: normal;&quot;&gt;0xff00&lt;/span&gt;&lt;font face=&quot;Consolas, Courier New, monospace&quot; color=&quot;#6a9955&quot;&gt; &amp;nbsp; &amp;nbsp;/* 保留索引的开始&amp;nbsp;*/&lt;/font&gt;&lt;/div&gt;&lt;div style=&quot;color: rgb(204, 204, 204); font-family: Consolas, &amp;quot;Courier New&amp;quot;, monospace; font-size: 14px; font-weight: normal;&quot;&gt;&lt;span style=&quot;color: rgb(197, 134, 192); font-family: Consolas, &amp;quot;Courier New&amp;quot;, monospace; font-size: 14px; font-weight: normal;&quot;&gt;#define&lt;/span&gt;&lt;span style=&quot;color: rgb(86, 156, 214); font-family: Consolas, &amp;quot;Courier New&amp;quot;, monospace; font-size: 14px; font-weight: normal;&quot;&gt; &lt;/span&gt;&lt;span style=&quot;color: rgb(86, 156, 214); font-family: Consolas, &amp;quot;Courier New&amp;quot;, monospace; font-size: 14px; font-weight: normal;&quot;&gt;SHN_LOPROC&lt;/span&gt;&lt;span style=&quot;color: rgb(86, 156, 214); font-family: Consolas, &amp;quot;Courier New&amp;quot;, monospace; font-size: 14px; font-weight: normal;&quot;&gt; &amp;nbsp;&lt;/span&gt;&lt;span style=&quot;color: rgb(181, 206, 168); font-family: Consolas, &amp;quot;Courier New&amp;quot;, monospace; font-size: 14px; font-weight: normal;&quot;&gt;0xff00&lt;/span&gt;&lt;font face=&quot;Consolas, Courier New, monospace&quot; color=&quot;#6a9955&quot;&gt; &amp;nbsp; &amp;nbsp;/* 特定于处理器的开始 */&lt;/font&gt;&lt;/div&gt;&lt;div style=&quot;&quot;&gt;&lt;span style=&quot;color: rgb(197, 134, 192); font-family: Consolas, &amp;quot;Courier New&amp;quot;, monospace; font-size: 14px; font-weight: normal;&quot;&gt;#define&lt;/span&gt;&lt;span style=&quot;color: rgb(86, 156, 214); font-family: Consolas, &amp;quot;Courier New&amp;quot;, monospace; font-size: 14px; font-weight: normal;&quot;&gt; &lt;/span&gt;&lt;span style=&quot;color: rgb(86, 156, 214); font-family: Consolas, &amp;quot;Courier New&amp;quot;, monospace; font-size: 14px; font-weight: normal;&quot;&gt;SHN_BEFORE&lt;/span&gt;&lt;span style=&quot;color: rgb(86, 156, 214); font-family: Consolas, &amp;quot;Courier New&amp;quot;, monospace; font-size: 14px; font-weight: normal;&quot;&gt; &amp;nbsp;&lt;/span&gt;&lt;span style=&quot;color: rgb(181, 206, 168); font-family: Consolas, &amp;quot;Courier New&amp;quot;, monospace; font-size: 14px; font-weight: normal;&quot;&gt;0xff00&lt;/span&gt;&lt;span style=&quot;color: rgb(106, 153, 85); font-family: Consolas, &amp;quot;Courier New&amp;quot;, monospace; font-size: 14px; font-weight: normal;&quot;&gt; &amp;nbsp; &amp;nbsp;/*&amp;nbsp;&lt;/span&gt;&lt;font face=&quot;Consolas, Courier New, monospace&quot; color=&quot;#6a9955&quot;&gt;将节排序在所有其他节之前&lt;/font&gt;&lt;font face=&quot;Consolas, Courier New, monospace&quot; color=&quot;#cccccc&quot;&gt;&lt;span style=&quot;font-size: 14px;&quot;&gt;(Solaris). &amp;nbsp;&lt;/span&gt;&lt;/font&gt;&lt;span style=&quot;color: rgb(244, 71, 71); font-family: Consolas, &amp;quot;Courier New&amp;quot;, monospace; font-size: 14px; font-weight: normal;&quot;&gt;*/&lt;/span&gt;&lt;/div&gt;&lt;div style=&quot;color: rgb(204, 204, 204); font-family: Consolas, &amp;quot;Courier New&amp;quot;, monospace; font-size: 14px; font-weight: normal;&quot;&gt;&lt;span style=&quot;color: #c586c0;&quot;&gt;#define&lt;/span&gt;&lt;span style=&quot;color: #569cd6;&quot;&gt; &lt;/span&gt;&lt;span style=&quot;color: #569cd6;&quot;&gt;SHN_AFTER&lt;/span&gt;&lt;span style=&quot;color: #569cd6;&quot;&gt; &lt;/span&gt;&lt;span style=&quot;color: #b5cea8;&quot;&gt;0xff01&lt;/span&gt;&lt;span style=&quot;color: #6a9955;&quot;&gt; &amp;nbsp; &amp;nbsp;/*&amp;nbsp;&lt;/span&gt;&lt;font style=&quot;font-size: 12px; border-color: var(--border-color);&quot; face=&quot;Consolas, Courier New, monospace&quot; color=&quot;#6a9955&quot;&gt;将节排序在所有其他节之后&lt;/font&gt;&lt;font style=&quot;font-size: 12px; border-color: var(--border-color);&quot; face=&quot;Consolas, Courier New, monospace&quot; color=&quot;#cccccc&quot;&gt;(Solaris).&lt;/font&gt;&amp;nbsp;&amp;nbsp;&lt;span style=&quot;color: rgb(244, 71, 71);&quot;&gt;*/&lt;/span&gt;&lt;/div&gt;&lt;div style=&quot;color: rgb(204, 204, 204); font-family: Consolas, &amp;quot;Courier New&amp;quot;, monospace; font-size: 14px; font-weight: normal;&quot;&gt;&lt;span style=&quot;color: #c586c0;&quot;&gt;#define&lt;/span&gt;&lt;span style=&quot;color: #569cd6;&quot;&gt; &lt;/span&gt;&lt;span style=&quot;color: #569cd6;&quot;&gt;SHN_HIPROC&lt;/span&gt;&lt;span style=&quot;color: #569cd6;&quot;&gt; &amp;nbsp;&lt;/span&gt;&lt;span style=&quot;color: #b5cea8;&quot;&gt;0xff1f&lt;/span&gt; &amp;nbsp; &amp;nbsp;/*&amp;nbsp;&lt;span style=&quot;color: rgb(106, 153, 85);&quot;&gt;特定于处理器的结束&lt;/span&gt;&lt;span style=&quot;color: #6a9955;&quot;&gt;&amp;nbsp;*/&lt;/span&gt;&lt;/div&gt;&lt;div style=&quot;color: rgb(204, 204, 204); font-family: Consolas, &amp;quot;Courier New&amp;quot;, monospace; font-size: 14px; font-weight: normal;&quot;&gt;&lt;span style=&quot;color: #c586c0;&quot;&gt;#define&lt;/span&gt;&lt;span style=&quot;color: #569cd6;&quot;&gt; &lt;/span&gt;&lt;span style=&quot;color: #569cd6;&quot;&gt;SHN_LOOS&lt;/span&gt;&lt;span style=&quot;color: #569cd6;&quot;&gt; &amp;nbsp;&lt;/span&gt;&lt;span style=&quot;color: #b5cea8;&quot;&gt;0xff20&lt;/span&gt;&lt;span style=&quot;color: #6a9955;&quot;&gt; &amp;nbsp; &amp;nbsp;/* 特定于操作系统的开始 */&lt;/span&gt;&lt;/div&gt;&lt;div style=&quot;color: rgb(204, 204, 204); font-family: Consolas, &amp;quot;Courier New&amp;quot;, monospace; font-size: 14px; font-weight: normal;&quot;&gt;&lt;span style=&quot;color: #c586c0;&quot;&gt;#define&lt;/span&gt;&lt;span style=&quot;color: #569cd6;&quot;&gt; &lt;/span&gt;&lt;span style=&quot;color: #569cd6;&quot;&gt;SHN_HIOS&lt;/span&gt;&lt;span style=&quot;color: #569cd6;&quot;&gt; &amp;nbsp;&lt;/span&gt;&lt;span style=&quot;color: #b5cea8;&quot;&gt;0xff3f&lt;/span&gt;&lt;span style=&quot;color: #6a9955;&quot;&gt; &amp;nbsp; &amp;nbsp;/* 特定于操作系统的结束 */&lt;/span&gt;&lt;/div&gt;&lt;div style=&quot;&quot;&gt;&lt;span style=&quot;color: rgb(197, 134, 192); font-family: Consolas, &amp;quot;Courier New&amp;quot;, monospace; font-size: 14px; font-weight: normal;&quot;&gt;#define&lt;/span&gt;&lt;span style=&quot;color: rgb(86, 156, 214); font-family: Consolas, &amp;quot;Courier New&amp;quot;, monospace; font-size: 14px; font-weight: normal;&quot;&gt; &lt;/span&gt;&lt;span style=&quot;color: rgb(86, 156, 214); font-family: Consolas, &amp;quot;Courier New&amp;quot;, monospace; font-size: 14px; font-weight: normal;&quot;&gt;SHN_ABS&lt;/span&gt;&lt;span style=&quot;color: rgb(86, 156, 214); font-family: Consolas, &amp;quot;Courier New&amp;quot;, monospace; font-size: 14px; font-weight: normal;&quot;&gt; &amp;nbsp; &lt;/span&gt;&lt;span style=&quot;color: rgb(181, 206, 168); font-family: Consolas, &amp;quot;Courier New&amp;quot;, monospace; font-size: 14px; font-weight: normal;&quot;&gt;0xfff1&lt;/span&gt;&lt;font face=&quot;Consolas, Courier New, monospace&quot; color=&quot;#6a9955&quot;&gt; &amp;nbsp; &amp;nbsp;/* 关联符号是绝对的&amp;nbsp;*/&lt;/font&gt;&lt;/div&gt;&lt;div style=&quot;color: rgb(204, 204, 204); font-family: Consolas, &amp;quot;Courier New&amp;quot;, monospace; font-size: 14px; font-weight: normal;&quot;&gt;&lt;span style=&quot;color: #c586c0;&quot;&gt;#define&lt;/span&gt;&lt;span style=&quot;color: #569cd6;&quot;&gt; &lt;/span&gt;&lt;span style=&quot;color: #569cd6;&quot;&gt;SHN_COMMON&lt;/span&gt;&lt;span style=&quot;color: #569cd6;&quot;&gt; &amp;nbsp;&lt;/span&gt;&lt;span style=&quot;color: #b5cea8;&quot;&gt;0xfff2&lt;/span&gt; &amp;nbsp; &amp;nbsp;/*&amp;nbsp;&lt;span style=&quot;color: rgb(106, 153, 85); font-size: 12px;&quot;&gt;关联符号是通用的&lt;/span&gt;&lt;span style=&quot;color: #6a9955;&quot;&gt;&amp;nbsp;*/&lt;/span&gt;&lt;/div&gt;&lt;div style=&quot;&quot;&gt;&lt;span style=&quot;color: rgb(197, 134, 192); font-family: Consolas, &amp;quot;Courier New&amp;quot;, monospace; font-size: 14px; font-weight: normal;&quot;&gt;#define&lt;/span&gt;&lt;span style=&quot;color: rgb(86, 156, 214); font-family: Consolas, &amp;quot;Courier New&amp;quot;, monospace; font-size: 14px; font-weight: normal;&quot;&gt; &lt;/span&gt;&lt;span style=&quot;color: rgb(86, 156, 214); font-family: Consolas, &amp;quot;Courier New&amp;quot;, monospace; font-size: 14px; font-weight: normal;&quot;&gt;SHN_XINDEX&lt;/span&gt;&lt;span style=&quot;color: rgb(86, 156, 214); font-family: Consolas, &amp;quot;Courier New&amp;quot;, monospace; font-size: 14px; font-weight: normal;&quot;&gt; &amp;nbsp;&lt;/span&gt;&lt;span style=&quot;color: rgb(181, 206, 168); font-family: Consolas, &amp;quot;Courier New&amp;quot;, monospace; font-size: 14px; font-weight: normal;&quot;&gt;0xffff&lt;/span&gt;&lt;font face=&quot;Consolas, Courier New, monospace&quot; color=&quot;#6a9955&quot;&gt; &amp;nbsp; &amp;nbsp;/* 索引在额外表中&amp;nbsp; */&lt;/font&gt;&lt;/div&gt;&lt;div style=&quot;&quot;&gt;&lt;span style=&quot;color: rgb(197, 134, 192); font-family: Consolas, &amp;quot;Courier New&amp;quot;, monospace; font-size: 14px; font-weight: normal;&quot;&gt;#define&lt;/span&gt;&lt;span style=&quot;color: rgb(86, 156, 214); font-family: Consolas, &amp;quot;Courier New&amp;quot;, monospace; font-size: 14px; font-weight: normal;&quot;&gt; &lt;/span&gt;&lt;span style=&quot;color: rgb(86, 156, 214); font-family: Consolas, &amp;quot;Courier New&amp;quot;, monospace; font-size: 14px; font-weight: normal;&quot;&gt;SHN_HIRESERVE&lt;/span&gt;&lt;span style=&quot;color: rgb(86, 156, 214); font-family: Consolas, &amp;quot;Courier New&amp;quot;, monospace; font-size: 14px; font-weight: normal;&quot;&gt; &lt;/span&gt;&lt;span style=&quot;color: rgb(181, 206, 168); font-family: Consolas, &amp;quot;Courier New&amp;quot;, monospace; font-size: 14px; font-weight: normal;&quot;&gt;0xffff&lt;/span&gt;&lt;font face=&quot;Consolas, Courier New, monospace&quot; color=&quot;#6a9955&quot;&gt; &amp;nbsp; &amp;nbsp;/* 保留索引结束&amp;nbsp;*/&lt;/font&gt;&lt;/div&gt;&lt;/div&gt;" style="text;whiteSpace=wrap;html=1;" parent="1" vertex="1">
          <mxGeometry x="2030" y="1750" width="520" height="240" as="geometry" />
        </mxCell>
        <mxCell id="mXNCd9asIf8t3rm5nd_7-38" value="" style="shape=flexArrow;endArrow=classic;html=1;rounded=0;strokeColor=#6c8ebf;fillColor=#dae8fc;exitX=1;exitY=0.5;exitDx=0;exitDy=0;entryX=0;entryY=0.25;entryDx=0;entryDy=0;" parent="1" source="mXNCd9asIf8t3rm5nd_7-48" target="mXNCd9asIf8t3rm5nd_7-37" edge="1">
          <mxGeometry width="50" height="50" relative="1" as="geometry">
            <mxPoint x="1560" y="1765" as="sourcePoint" />
            <mxPoint x="2000" y="1780" as="targetPoint" />
            <Array as="points">
              <mxPoint x="1920" y="1850" />
              <mxPoint x="1920" y="1810" />
            </Array>
          </mxGeometry>
        </mxCell>
        <mxCell id="mXNCd9asIf8t3rm5nd_7-49" value="Y" style="edgeLabel;html=1;align=center;verticalAlign=middle;resizable=0;points=[];fontStyle=1" parent="mXNCd9asIf8t3rm5nd_7-38" vertex="1" connectable="0">
          <mxGeometry x="-0.5723" y="-1" relative="1" as="geometry">
            <mxPoint as="offset" />
          </mxGeometry>
        </mxCell>
        <mxCell id="mXNCd9asIf8t3rm5nd_7-43" value="" style="shape=flexArrow;endArrow=classic;html=1;rounded=0;strokeColor=#d6b656;fillColor=#fff2cc;entryX=0.5;entryY=0;entryDx=0;entryDy=0;exitX=0.811;exitY=0.5;exitDx=0;exitDy=0;exitPerimeter=0;" parent="1" source="cGnAWdVKwM5nVpl3sOE8-60" target="mXNCd9asIf8t3rm5nd_7-21" edge="1">
          <mxGeometry width="50" height="50" relative="1" as="geometry">
            <mxPoint x="430" y="640" as="sourcePoint" />
            <mxPoint x="808" y="1190" as="targetPoint" />
            <Array as="points">
              <mxPoint x="500" y="640" />
              <mxPoint x="500" y="840" />
              <mxPoint x="135" y="840" />
            </Array>
          </mxGeometry>
        </mxCell>
        <mxCell id="mXNCd9asIf8t3rm5nd_7-44" value="FOA" style="edgeLabel;html=1;align=center;verticalAlign=middle;resizable=0;points=[];" parent="mXNCd9asIf8t3rm5nd_7-43" vertex="1" connectable="0">
          <mxGeometry x="-0.9189" relative="1" as="geometry">
            <mxPoint x="-9" as="offset" />
          </mxGeometry>
        </mxCell>
        <mxCell id="mXNCd9asIf8t3rm5nd_7-45" value="" style="shape=flexArrow;endArrow=classic;html=1;rounded=0;strokeColor=#d6b656;fillColor=#fff2cc;entryX=0.5;entryY=0;entryDx=0;entryDy=0;exitX=0.811;exitY=0.5;exitDx=0;exitDy=0;exitPerimeter=0;" parent="1" target="cGnAWdVKwM5nVpl3sOE8-136" edge="1">
          <mxGeometry width="50" height="50" relative="1" as="geometry">
            <mxPoint x="430" y="640" as="sourcePoint" />
            <mxPoint x="135" y="928" as="targetPoint" />
            <Array as="points">
              <mxPoint x="500" y="640" />
              <mxPoint x="500" y="840" />
              <mxPoint x="380" y="840" />
            </Array>
          </mxGeometry>
        </mxCell>
        <mxCell id="mXNCd9asIf8t3rm5nd_7-46" value="FOA" style="edgeLabel;html=1;align=center;verticalAlign=middle;resizable=0;points=[];" parent="mXNCd9asIf8t3rm5nd_7-45" vertex="1" connectable="0">
          <mxGeometry x="-0.9189" relative="1" as="geometry">
            <mxPoint as="offset" />
          </mxGeometry>
        </mxCell>
        <mxCell id="cGnAWdVKwM5nVpl3sOE8-135" value="" style="endArrow=classic;html=1;rounded=0;dashed=1;entryX=1;entryY=0.5;entryDx=0;entryDy=0;exitX=0.868;exitY=0.882;exitDx=0;exitDy=0;exitPerimeter=0;fillColor=#dae8fc;strokeColor=#6c8ebf;dashPattern=12 12;" parent="1" source="cGnAWdVKwM5nVpl3sOE8-60" target="cGnAWdVKwM5nVpl3sOE8-136" edge="1">
          <mxGeometry width="50" height="50" relative="1" as="geometry">
            <mxPoint x="230" y="900" as="sourcePoint" />
            <mxPoint x="390" y="930" as="targetPoint" />
            <Array as="points">
              <mxPoint x="480" y="770" />
              <mxPoint x="480" y="870" />
              <mxPoint x="480" y="943" />
            </Array>
          </mxGeometry>
        </mxCell>
        <mxCell id="cGnAWdVKwM5nVpl3sOE8-138" value="下标" style="edgeLabel;html=1;align=center;verticalAlign=middle;resizable=0;points=[];" parent="cGnAWdVKwM5nVpl3sOE8-135" vertex="1" connectable="0">
          <mxGeometry x="-0.5359" relative="1" as="geometry">
            <mxPoint as="offset" />
          </mxGeometry>
        </mxCell>
        <mxCell id="cGnAWdVKwM5nVpl3sOE8-123" value="" style="endArrow=classic;html=1;rounded=0;exitX=0.87;exitY=0.676;exitDx=0;exitDy=0;exitPerimeter=0;entryX=0;entryY=0.25;entryDx=0;entryDy=0;fillColor=#dae8fc;strokeColor=#6c8ebf;strokeWidth=2;" parent="1" source="cGnAWdVKwM5nVpl3sOE8-60" target="cGnAWdVKwM5nVpl3sOE8-103" edge="1">
          <mxGeometry width="50" height="50" relative="1" as="geometry">
            <mxPoint x="550" y="720" as="sourcePoint" />
            <mxPoint x="530" y="700" as="targetPoint" />
            <Array as="points">
              <mxPoint x="530" y="700" />
            </Array>
          </mxGeometry>
        </mxCell>
        <mxCell id="cGnAWdVKwM5nVpl3sOE8-124" value="结构大小" style="edgeLabel;html=1;align=center;verticalAlign=middle;resizable=0;points=[];" parent="cGnAWdVKwM5nVpl3sOE8-123" vertex="1" connectable="0">
          <mxGeometry x="0.6557" y="1" relative="1" as="geometry">
            <mxPoint x="-87" y="-227" as="offset" />
          </mxGeometry>
        </mxCell>
        <mxCell id="cGnAWdVKwM5nVpl3sOE8-125" value="" style="endArrow=classic;html=1;rounded=0;entryX=0;entryY=0.25;entryDx=0;entryDy=0;exitX=0.87;exitY=0.735;exitDx=0;exitDy=0;exitPerimeter=0;fillColor=#dae8fc;strokeColor=#6c8ebf;strokeWidth=2;" parent="1" source="cGnAWdVKwM5nVpl3sOE8-60" target="cGnAWdVKwM5nVpl3sOE8-103" edge="1">
          <mxGeometry width="50" height="50" relative="1" as="geometry">
            <mxPoint x="270" y="940" as="sourcePoint" />
            <mxPoint x="320" y="890" as="targetPoint" />
            <Array as="points">
              <mxPoint x="530" y="720" />
            </Array>
          </mxGeometry>
        </mxCell>
        <mxCell id="cGnAWdVKwM5nVpl3sOE8-126" value="数量" style="edgeLabel;html=1;align=center;verticalAlign=middle;resizable=0;points=[];" parent="cGnAWdVKwM5nVpl3sOE8-125" vertex="1" connectable="0">
          <mxGeometry x="-0.8893" relative="1" as="geometry">
            <mxPoint as="offset" />
          </mxGeometry>
        </mxCell>
        <mxCell id="cGnAWdVKwM5nVpl3sOE8-127" value="" style="endArrow=classic;html=1;rounded=0;exitX=0.87;exitY=0.794;exitDx=0;exitDy=0;exitPerimeter=0;entryX=0;entryY=0;entryDx=0;entryDy=0;fillColor=#dae8fc;strokeColor=#6c8ebf;strokeWidth=2;" parent="1" source="cGnAWdVKwM5nVpl3sOE8-60" target="cGnAWdVKwM5nVpl3sOE8-105" edge="1">
          <mxGeometry width="50" height="50" relative="1" as="geometry">
            <mxPoint x="270" y="960" as="sourcePoint" />
            <mxPoint x="320" y="910" as="targetPoint" />
            <Array as="points">
              <mxPoint x="520" y="740" />
            </Array>
          </mxGeometry>
        </mxCell>
        <mxCell id="cGnAWdVKwM5nVpl3sOE8-128" value="结构大小" style="edgeLabel;html=1;align=center;verticalAlign=middle;resizable=0;points=[];" parent="cGnAWdVKwM5nVpl3sOE8-127" vertex="1" connectable="0">
          <mxGeometry x="-0.9341" y="-1" relative="1" as="geometry">
            <mxPoint x="12" y="-1" as="offset" />
          </mxGeometry>
        </mxCell>
        <mxCell id="cGnAWdVKwM5nVpl3sOE8-129" value="" style="endArrow=classic;html=1;rounded=0;fillColor=#dae8fc;strokeColor=#6c8ebf;exitX=0.87;exitY=0.85;exitDx=0;exitDy=0;exitPerimeter=0;entryX=0;entryY=0;entryDx=0;entryDy=0;strokeWidth=2;" parent="1" source="cGnAWdVKwM5nVpl3sOE8-60" target="cGnAWdVKwM5nVpl3sOE8-105" edge="1">
          <mxGeometry width="50" height="50" relative="1" as="geometry">
            <mxPoint x="493" y="759" as="sourcePoint" />
            <mxPoint x="500" y="1200" as="targetPoint" />
            <Array as="points">
              <mxPoint x="520" y="759" />
            </Array>
          </mxGeometry>
        </mxCell>
        <mxCell id="cGnAWdVKwM5nVpl3sOE8-130" value="数量" style="edgeLabel;html=1;align=center;verticalAlign=middle;resizable=0;points=[];" parent="cGnAWdVKwM5nVpl3sOE8-129" vertex="1" connectable="0">
          <mxGeometry x="-0.9341" y="-1" relative="1" as="geometry">
            <mxPoint as="offset" />
          </mxGeometry>
        </mxCell>
        <mxCell id="mXNCd9asIf8t3rm5nd_7-47" value="" style="shape=flexArrow;endArrow=classic;html=1;rounded=0;strokeColor=#6c8ebf;fillColor=#dae8fc;exitX=0.674;exitY=0.611;exitDx=0;exitDy=0;exitPerimeter=0;entryX=0;entryY=0.5;entryDx=0;entryDy=0;" parent="1" source="ifZyqwG-hICFNkMZj-hm-8" target="mXNCd9asIf8t3rm5nd_7-48" edge="1">
          <mxGeometry width="50" height="50" relative="1" as="geometry">
            <mxPoint x="1550" y="1760" as="sourcePoint" />
            <mxPoint x="2030" y="1810" as="targetPoint" />
            <Array as="points">
              <mxPoint x="1730" y="1760" />
              <mxPoint x="1730" y="1850" />
            </Array>
          </mxGeometry>
        </mxCell>
        <mxCell id="mXNCd9asIf8t3rm5nd_7-48" value="st_shndx in SHN_XXX" style="rhombus;whiteSpace=wrap;html=1;" parent="1" vertex="1">
          <mxGeometry x="1760" y="1810" width="150" height="80" as="geometry" />
        </mxCell>
        <mxCell id="mXNCd9asIf8t3rm5nd_7-52" value="" style="endArrow=classic;html=1;rounded=0;exitX=0.5;exitY=1;exitDx=0;exitDy=0;entryX=-0.005;entryY=0.115;entryDx=0;entryDy=0;entryPerimeter=0;dashed=1;fillColor=#dae8fc;strokeColor=#6c8ebf;strokeWidth=3;" parent="1" source="mXNCd9asIf8t3rm5nd_7-48" target="cGnAWdVKwM5nVpl3sOE8-105" edge="1">
          <mxGeometry width="50" height="50" relative="1" as="geometry">
            <mxPoint x="1700" y="2020" as="sourcePoint" />
            <mxPoint x="1060" y="1710" as="targetPoint" />
            <Array as="points">
              <mxPoint x="1835" y="1920" />
              <mxPoint x="540" y="1920" />
              <mxPoint x="540" y="1220" />
            </Array>
          </mxGeometry>
        </mxCell>
        <mxCell id="mXNCd9asIf8t3rm5nd_7-53" value="N" style="edgeLabel;html=1;align=center;verticalAlign=middle;resizable=0;points=[];fontStyle=1" parent="mXNCd9asIf8t3rm5nd_7-52" vertex="1" connectable="0">
          <mxGeometry x="-0.9828" y="1" relative="1" as="geometry">
            <mxPoint as="offset" />
          </mxGeometry>
        </mxCell>
        <mxCell id="mXNCd9asIf8t3rm5nd_7-54" value="下标" style="edgeLabel;html=1;align=center;verticalAlign=middle;resizable=0;points=[];" parent="mXNCd9asIf8t3rm5nd_7-52" vertex="1" connectable="0">
          <mxGeometry x="-0.7657" y="1" relative="1" as="geometry">
            <mxPoint x="-62" as="offset" />
          </mxGeometry>
        </mxCell>
        <mxCell id="mXNCd9asIf8t3rm5nd_7-57" value="&lt;div style=&quot;background-color: rgb(31, 31, 31); line-height: 19px;&quot;&gt;&lt;div style=&quot;color: rgb(204, 204, 204); font-family: Consolas, &amp;quot;Courier New&amp;quot;, monospace; font-size: 14px; font-weight: normal;&quot;&gt;&lt;span style=&quot;color: #569cd6;&quot;&gt;typedef&lt;/span&gt;&lt;span style=&quot;color: #cccccc;&quot;&gt; &lt;/span&gt;&lt;span style=&quot;color: #569cd6;&quot;&gt;struct&lt;/span&gt;&lt;/div&gt;&lt;div style=&quot;color: rgb(204, 204, 204); font-family: Consolas, &amp;quot;Courier New&amp;quot;, monospace; font-size: 14px; font-weight: normal;&quot;&gt;&lt;span style=&quot;color: #cccccc;&quot;&gt;{&lt;/span&gt;&lt;/div&gt;&lt;div style=&quot;color: rgb(204, 204, 204); font-family: Consolas, &amp;quot;Courier New&amp;quot;, monospace; font-size: 14px; font-weight: normal;&quot;&gt;&lt;span style=&quot;color: #cccccc;&quot;&gt;&amp;nbsp; &lt;/span&gt;&lt;span style=&quot;color: #4ec9b0;&quot;&gt;Elf64_Addr&lt;/span&gt;&lt;span style=&quot;color: #cccccc;&quot;&gt; &amp;nbsp;&lt;/span&gt;&lt;span style=&quot;color: #9cdcfe;&quot;&gt;r_offset&lt;/span&gt;&lt;span style=&quot;color: #cccccc;&quot;&gt;;&lt;/span&gt;&lt;span style=&quot;color: #6a9955;&quot;&gt; &amp;nbsp; /* 地址VA */&lt;/span&gt;&lt;/div&gt;&lt;div style=&quot;&quot;&gt;&lt;span style=&quot;color: rgb(204, 204, 204); font-family: Consolas, &amp;quot;Courier New&amp;quot;, monospace; font-size: 14px; font-weight: normal;&quot;&gt;&amp;nbsp; &lt;/span&gt;&lt;span style=&quot;color: rgb(78, 201, 176); font-family: Consolas, &amp;quot;Courier New&amp;quot;, monospace; font-size: 14px; font-weight: normal;&quot;&gt;Elf64_Xword&lt;/span&gt;&lt;span style=&quot;color: rgb(204, 204, 204); font-family: Consolas, &amp;quot;Courier New&amp;quot;, monospace; font-size: 14px; font-weight: normal;&quot;&gt; &lt;/span&gt;&lt;span style=&quot;color: rgb(156, 220, 254); font-family: Consolas, &amp;quot;Courier New&amp;quot;, monospace; font-size: 14px; font-weight: normal;&quot;&gt;r_info&lt;/span&gt;&lt;span style=&quot;color: rgb(204, 204, 204); font-family: Consolas, &amp;quot;Courier New&amp;quot;, monospace; font-size: 14px; font-weight: normal;&quot;&gt;;&lt;/span&gt;&lt;font face=&quot;Consolas, Courier New, monospace&quot; color=&quot;#6a9955&quot;&gt; &amp;nbsp; &amp;nbsp; /* 重定位类型和符号索引&amp;nbsp;*/&lt;/font&gt;&lt;/div&gt;&lt;div style=&quot;color: rgb(204, 204, 204); font-family: Consolas, &amp;quot;Courier New&amp;quot;, monospace; font-size: 14px; font-weight: normal;&quot;&gt;&lt;span style=&quot;color: #cccccc;&quot;&gt;&amp;nbsp; &lt;/span&gt;&lt;span style=&quot;color: #4ec9b0;&quot;&gt;Elf64_Sxword&lt;/span&gt;&lt;span style=&quot;color: #cccccc;&quot;&gt; &amp;nbsp;&lt;/span&gt;&lt;span style=&quot;color: #9cdcfe;&quot;&gt;r_addend&lt;/span&gt;&lt;span style=&quot;color: #cccccc;&quot;&gt;;&lt;/span&gt;&lt;span style=&quot;color: #6a9955;&quot;&gt; &amp;nbsp; /* 加值 */&lt;/span&gt;&lt;/div&gt;&lt;div style=&quot;color: rgb(204, 204, 204); font-family: Consolas, &amp;quot;Courier New&amp;quot;, monospace; font-size: 14px; font-weight: normal;&quot;&gt;&lt;span style=&quot;color: #cccccc;&quot;&gt;} &lt;/span&gt;&lt;span style=&quot;color: #4ec9b0;&quot;&gt;Elf64_Rela&lt;/span&gt;&lt;span style=&quot;color: #cccccc;&quot;&gt;;&lt;/span&gt;&lt;/div&gt;&lt;/div&gt;" style="text;whiteSpace=wrap;html=1;" parent="1" vertex="1">
          <mxGeometry x="1240" y="2073" width="370" height="130" as="geometry" />
        </mxCell>
        <mxCell id="mXNCd9asIf8t3rm5nd_7-58" value="sh_type==SHT_RELA" style="rhombus;whiteSpace=wrap;html=1;fontStyle=0" parent="1" vertex="1">
          <mxGeometry x="1020" y="2080" width="180" height="50" as="geometry" />
        </mxCell>
        <mxCell id="mXNCd9asIf8t3rm5nd_7-59" value="" style="shape=flexArrow;endArrow=classic;html=1;rounded=0;strokeColor=#6c8ebf;fillColor=#dae8fc;entryX=0;entryY=0.25;entryDx=0;entryDy=0;exitX=1;exitY=0.5;exitDx=0;exitDy=0;" parent="1" source="mXNCd9asIf8t3rm5nd_7-58" target="mXNCd9asIf8t3rm5nd_7-57" edge="1">
          <mxGeometry width="50" height="50" relative="1" as="geometry">
            <mxPoint x="890" y="2120" as="sourcePoint" />
            <mxPoint x="1050" y="2108" as="targetPoint" />
            <Array as="points" />
          </mxGeometry>
        </mxCell>
        <mxCell id="mXNCd9asIf8t3rm5nd_7-60" value="Y" style="edgeLabel;html=1;align=center;verticalAlign=middle;resizable=0;points=[];" parent="mXNCd9asIf8t3rm5nd_7-59" vertex="1" connectable="0">
          <mxGeometry x="-0.6508" y="2" relative="1" as="geometry">
            <mxPoint x="-2" as="offset" />
          </mxGeometry>
        </mxCell>
        <mxCell id="mXNCd9asIf8t3rm5nd_7-61" value="" style="shape=flexArrow;endArrow=classic;html=1;rounded=0;strokeColor=#6c8ebf;fillColor=#dae8fc;exitX=0;exitY=0.5;exitDx=0;exitDy=0;entryX=0.5;entryY=0;entryDx=0;entryDy=0;" parent="1" source="mXNCd9asIf8t3rm5nd_7-14" target="mXNCd9asIf8t3rm5nd_7-58" edge="1">
          <mxGeometry width="50" height="50" relative="1" as="geometry">
            <mxPoint x="731" y="1660" as="sourcePoint" />
            <mxPoint x="960" y="1840" as="targetPoint" />
            <Array as="points">
              <mxPoint x="1000" y="1533" />
              <mxPoint x="1000" y="1880" />
              <mxPoint x="1110" y="1880" />
            </Array>
          </mxGeometry>
        </mxCell>
        <mxCell id="mXNCd9asIf8t3rm5nd_7-62" value="N" style="edgeLabel;html=1;align=center;verticalAlign=middle;resizable=0;points=[];" parent="mXNCd9asIf8t3rm5nd_7-61" vertex="1" connectable="0">
          <mxGeometry x="-0.9254" y="-1" relative="1" as="geometry">
            <mxPoint as="offset" />
          </mxGeometry>
        </mxCell>
        <mxCell id="mXNCd9asIf8t3rm5nd_7-63" value="" style="shape=flexArrow;endArrow=classic;html=1;rounded=0;strokeColor=#6c8ebf;fillColor=#dae8fc;exitX=0.5;exitY=1;exitDx=0;exitDy=0;entryX=0.5;entryY=0;entryDx=0;entryDy=0;" parent="1" source="mXNCd9asIf8t3rm5nd_7-58" target="mXNCd9asIf8t3rm5nd_7-66" edge="1">
          <mxGeometry width="50" height="50" relative="1" as="geometry">
            <mxPoint x="1140" y="2040" as="sourcePoint" />
            <mxPoint x="1110" y="2130" as="targetPoint" />
            <Array as="points" />
          </mxGeometry>
        </mxCell>
        <mxCell id="mXNCd9asIf8t3rm5nd_7-64" value="N" style="edgeLabel;html=1;align=center;verticalAlign=middle;resizable=0;points=[];" parent="mXNCd9asIf8t3rm5nd_7-63" vertex="1" connectable="0">
          <mxGeometry x="-0.9254" y="-1" relative="1" as="geometry">
            <mxPoint as="offset" />
          </mxGeometry>
        </mxCell>
        <mxCell id="mXNCd9asIf8t3rm5nd_7-66" value="sh_type==SHT_DYNAMIC" style="rhombus;whiteSpace=wrap;html=1;fontStyle=0" parent="1" vertex="1">
          <mxGeometry x="1020" y="2350" width="180" height="50" as="geometry" />
        </mxCell>
        <mxCell id="mXNCd9asIf8t3rm5nd_7-67" value="&lt;div style=&quot;color: rgb(204, 204, 204); background-color: rgb(31, 31, 31); font-family: Consolas, &amp;quot;Courier New&amp;quot;, monospace; font-weight: normal; font-size: 14px; line-height: 19px;&quot;&gt;&lt;div&gt;&lt;span style=&quot;color: #569cd6;&quot;&gt;typedef&lt;/span&gt;&lt;span style=&quot;color: #cccccc;&quot;&gt; &lt;/span&gt;&lt;span style=&quot;color: #569cd6;&quot;&gt;struct&lt;/span&gt;&lt;/div&gt;&lt;div&gt;&lt;span style=&quot;color: #cccccc;&quot;&gt;{&lt;/span&gt;&lt;/div&gt;&lt;div&gt;&lt;span style=&quot;color: #cccccc;&quot;&gt;&amp;nbsp; &lt;/span&gt;&lt;span style=&quot;color: #4ec9b0;&quot;&gt;Elf64_Sxword&lt;/span&gt;&lt;span style=&quot;color: #cccccc;&quot;&gt; &amp;nbsp;&lt;/span&gt;&lt;span style=&quot;color: #9cdcfe;&quot;&gt;d_tag&lt;/span&gt;&lt;span style=&quot;color: #cccccc;&quot;&gt;;&lt;/span&gt;&lt;span style=&quot;color: #6a9955;&quot;&gt; &amp;nbsp; &amp;nbsp; &amp;nbsp;/* 动态条目类型 */&lt;/span&gt;&lt;/div&gt;&lt;div&gt;&lt;span style=&quot;color: #cccccc;&quot;&gt;&amp;nbsp; &lt;/span&gt;&lt;span style=&quot;color: #569cd6;&quot;&gt;union&lt;/span&gt;&lt;/div&gt;&lt;div&gt;&lt;span style=&quot;color: #cccccc;&quot;&gt;&amp;nbsp; &amp;nbsp; {&lt;/span&gt;&lt;/div&gt;&lt;div&gt;&lt;span style=&quot;color: #cccccc;&quot;&gt;&amp;nbsp; &amp;nbsp; &amp;nbsp; &lt;/span&gt;&lt;span style=&quot;color: #4ec9b0;&quot;&gt;Elf64_Xword&lt;/span&gt;&lt;span style=&quot;color: #cccccc;&quot;&gt; &lt;/span&gt;&lt;span style=&quot;color: #9cdcfe;&quot;&gt;d_val&lt;/span&gt;&lt;span style=&quot;color: #cccccc;&quot;&gt;;&lt;/span&gt;&lt;span style=&quot;color: #6a9955;&quot;&gt; &amp;nbsp; &amp;nbsp;/* 整型数值 */&lt;/span&gt;&lt;/div&gt;&lt;div&gt;&lt;span style=&quot;color: #cccccc;&quot;&gt;&amp;nbsp; &amp;nbsp; &amp;nbsp; &lt;/span&gt;&lt;span style=&quot;color: #4ec9b0;&quot;&gt;Elf64_Addr&lt;/span&gt;&lt;span style=&quot;color: #cccccc;&quot;&gt; &lt;/span&gt;&lt;span style=&quot;color: #9cdcfe;&quot;&gt;d_ptr&lt;/span&gt;&lt;span style=&quot;color: #cccccc;&quot;&gt;;&lt;/span&gt;&lt;span style=&quot;color: #6a9955;&quot;&gt; &amp;nbsp; &amp;nbsp; /* 地址值 */&lt;/span&gt;&lt;/div&gt;&lt;div&gt;&lt;span style=&quot;color: #cccccc;&quot;&gt;&amp;nbsp; &amp;nbsp; } &lt;/span&gt;&lt;span style=&quot;color: #9cdcfe;&quot;&gt;d_un&lt;/span&gt;&lt;span style=&quot;color: #cccccc;&quot;&gt;;&lt;/span&gt;&lt;/div&gt;&lt;div&gt;&lt;span style=&quot;color: #cccccc;&quot;&gt;} &lt;/span&gt;&lt;span style=&quot;color: #4ec9b0;&quot;&gt;Elf64_Dyn&lt;/span&gt;&lt;span style=&quot;color: #cccccc;&quot;&gt;;&lt;/span&gt;&lt;/div&gt;&lt;/div&gt;" style="text;whiteSpace=wrap;html=1;" parent="1" vertex="1">
          <mxGeometry x="1240" y="2360" width="360" height="180" as="geometry" />
        </mxCell>
        <mxCell id="mXNCd9asIf8t3rm5nd_7-68" value="" style="shape=flexArrow;endArrow=classic;html=1;rounded=0;strokeColor=#6c8ebf;fillColor=#dae8fc;entryX=0.002;entryY=0.081;entryDx=0;entryDy=0;exitX=1;exitY=0.5;exitDx=0;exitDy=0;entryPerimeter=0;" parent="1" source="mXNCd9asIf8t3rm5nd_7-66" target="mXNCd9asIf8t3rm5nd_7-67" edge="1">
          <mxGeometry width="50" height="50" relative="1" as="geometry">
            <mxPoint x="1200" y="2144.5" as="sourcePoint" />
            <mxPoint x="1240" y="2145.5" as="targetPoint" />
            <Array as="points" />
          </mxGeometry>
        </mxCell>
        <mxCell id="mXNCd9asIf8t3rm5nd_7-69" value="Y" style="edgeLabel;html=1;align=center;verticalAlign=middle;resizable=0;points=[];" parent="mXNCd9asIf8t3rm5nd_7-68" vertex="1" connectable="0">
          <mxGeometry x="-0.6508" y="2" relative="1" as="geometry">
            <mxPoint x="-2" as="offset" />
          </mxGeometry>
        </mxCell>
        <mxCell id="mXNCd9asIf8t3rm5nd_7-71" value="" style="shape=flexArrow;endArrow=classic;html=1;rounded=0;strokeColor=#6c8ebf;fillColor=#dae8fc;exitX=0.5;exitY=1;exitDx=0;exitDy=0;entryX=0.5;entryY=0;entryDx=0;entryDy=0;" parent="1" source="mXNCd9asIf8t3rm5nd_7-66" target="mXNCd9asIf8t3rm5nd_7-73" edge="1">
          <mxGeometry width="50" height="50" relative="1" as="geometry">
            <mxPoint x="1109.79" y="2170" as="sourcePoint" />
            <mxPoint x="1109.79" y="2283" as="targetPoint" />
            <Array as="points" />
          </mxGeometry>
        </mxCell>
        <mxCell id="mXNCd9asIf8t3rm5nd_7-72" value="N" style="edgeLabel;html=1;align=center;verticalAlign=middle;resizable=0;points=[];" parent="mXNCd9asIf8t3rm5nd_7-71" vertex="1" connectable="0">
          <mxGeometry x="-0.9254" y="-1" relative="1" as="geometry">
            <mxPoint as="offset" />
          </mxGeometry>
        </mxCell>
        <mxCell id="mXNCd9asIf8t3rm5nd_7-73" value="sh_type==SHT_NOTE" style="rhombus;whiteSpace=wrap;html=1;fontStyle=0" parent="1" vertex="1">
          <mxGeometry x="1020" y="2790" width="180" height="50" as="geometry" />
        </mxCell>
        <mxCell id="mXNCd9asIf8t3rm5nd_7-74" value="" style="shape=flexArrow;endArrow=classic;html=1;rounded=0;strokeColor=#6c8ebf;fillColor=#dae8fc;entryX=0;entryY=0.25;entryDx=0;entryDy=0;exitX=1;exitY=0.5;exitDx=0;exitDy=0;" parent="1" source="mXNCd9asIf8t3rm5nd_7-73" target="mXNCd9asIf8t3rm5nd_7-79" edge="1">
          <mxGeometry width="50" height="50" relative="1" as="geometry">
            <mxPoint x="1200" y="2344.64" as="sourcePoint" />
            <mxPoint x="1241" y="2344.64" as="targetPoint" />
            <Array as="points" />
          </mxGeometry>
        </mxCell>
        <mxCell id="mXNCd9asIf8t3rm5nd_7-75" value="Y" style="edgeLabel;html=1;align=center;verticalAlign=middle;resizable=0;points=[];" parent="mXNCd9asIf8t3rm5nd_7-74" vertex="1" connectable="0">
          <mxGeometry x="-0.6508" y="2" relative="1" as="geometry">
            <mxPoint x="-2" as="offset" />
          </mxGeometry>
        </mxCell>
        <mxCell id="mXNCd9asIf8t3rm5nd_7-76" value="&lt;div style=&quot;color: rgb(204, 204, 204); background-color: rgb(31, 31, 31); font-family: Consolas, &amp;quot;Courier New&amp;quot;, monospace; font-weight: normal; font-size: 14px; line-height: 19px;&quot;&gt;&lt;div style=&quot;line-height: 19px;&quot;&gt;&lt;div&gt;#define&lt;span style=&quot;color: #569cd6;&quot;&gt; DT_NULL &lt;/span&gt;&lt;span style=&quot;color: #b5cea8;&quot;&gt;0&lt;/span&gt;&lt;span style=&quot;color: #6a9955;&quot;&gt; /* 标记动态节结束 */&lt;/span&gt;&lt;/div&gt;&lt;div&gt;&lt;span style=&quot;color: #c586c0;&quot;&gt;#define&lt;/span&gt;&lt;span style=&quot;color: #569cd6;&quot;&gt; DT_NEEDED &lt;/span&gt;&lt;span style=&quot;color: #b5cea8;&quot;&gt;1&lt;/span&gt;&lt;span style=&quot;color: #6a9955;&quot;&gt; /* 所需库的名称 */&lt;/span&gt;&lt;/div&gt;&lt;div&gt;&lt;span style=&quot;color: #c586c0;&quot;&gt;#define&lt;/span&gt;&lt;span style=&quot;color: #569cd6;&quot;&gt; DT_PLTRELSZ &lt;/span&gt;&lt;span style=&quot;color: #b5cea8;&quot;&gt;2&lt;/span&gt;&lt;span style=&quot;color: #6a9955;&quot;&gt; /* PLT 重新定位的大小（以字节为单位）*/&lt;/span&gt;&lt;/div&gt;&lt;div&gt;&lt;span style=&quot;color: #c586c0;&quot;&gt;#define&lt;/span&gt;&lt;span style=&quot;color: #569cd6;&quot;&gt; DT_PLTGOT &lt;/span&gt;&lt;span style=&quot;color: #b5cea8;&quot;&gt;3&lt;/span&gt;&lt;span style=&quot;color: #6a9955;&quot;&gt; /* 处理器定义值 */&lt;/span&gt;&lt;/div&gt;&lt;div&gt;&lt;span style=&quot;color: #c586c0;&quot;&gt;#define&lt;/span&gt;&lt;span style=&quot;color: #569cd6;&quot;&gt; DT_HASH &lt;/span&gt;&lt;span style=&quot;color: #b5cea8;&quot;&gt;4&lt;/span&gt;&lt;span style=&quot;color: #6a9955;&quot;&gt; /* 符号哈希表地址 */&lt;/span&gt;&lt;/div&gt;&lt;div&gt;&lt;span style=&quot;color: #c586c0;&quot;&gt;#define&lt;/span&gt;&lt;span style=&quot;color: #569cd6;&quot;&gt; DT_STRTAB &lt;/span&gt;&lt;span style=&quot;color: #b5cea8;&quot;&gt;5&lt;/span&gt;&lt;span style=&quot;color: #6a9955;&quot;&gt; /* 字符串表地址 */&lt;/span&gt;&lt;/div&gt;&lt;div&gt;&lt;span style=&quot;color: #c586c0;&quot;&gt;#define&lt;/span&gt;&lt;span style=&quot;color: #569cd6;&quot;&gt; DT_SYMTAB &lt;/span&gt;&lt;span style=&quot;color: #b5cea8;&quot;&gt;6&lt;/span&gt;&lt;span style=&quot;color: #6a9955;&quot;&gt; /* 符号表地址 */&lt;/span&gt;&lt;/div&gt;&lt;div&gt;&lt;span style=&quot;color: #c586c0;&quot;&gt;#define&lt;/span&gt;&lt;span style=&quot;color: #569cd6;&quot;&gt; DT_RELA &lt;/span&gt;&lt;span style=&quot;color: #b5cea8;&quot;&gt;7&lt;/span&gt;&lt;span style=&quot;color: #6a9955;&quot;&gt; /* Rela 重定位地址 */&lt;/span&gt;&lt;/div&gt;&lt;div&gt;&lt;span style=&quot;color: #c586c0;&quot;&gt;#define&lt;/span&gt;&lt;span style=&quot;color: #569cd6;&quot;&gt; DT_RELASZ &lt;/span&gt;&lt;span style=&quot;color: #b5cea8;&quot;&gt;8&lt;/span&gt;&lt;span style=&quot;color: #6a9955;&quot;&gt; /* Rela relocs 的总大小 */&lt;/span&gt;&lt;/div&gt;&lt;div&gt;&lt;span style=&quot;color: #c586c0;&quot;&gt;#define&lt;/span&gt;&lt;span style=&quot;color: #569cd6;&quot;&gt; DT_RELAENT &lt;/span&gt;&lt;span style=&quot;color: #b5cea8;&quot;&gt;9&lt;/span&gt;&lt;span style=&quot;color: #6a9955;&quot;&gt; /* 一个 Rela reloc 的大小 */&lt;/span&gt;&lt;/div&gt;&lt;div&gt;&lt;span style=&quot;color: #c586c0;&quot;&gt;#define&lt;/span&gt;&lt;span style=&quot;color: #569cd6;&quot;&gt; DT_STRSZ &lt;/span&gt;&lt;span style=&quot;color: #b5cea8;&quot;&gt;10&lt;/span&gt;&lt;span style=&quot;color: #6a9955;&quot;&gt; /* 字符串表的大小 */&lt;/span&gt;&lt;/div&gt;&lt;div&gt;&lt;span style=&quot;color: #c586c0;&quot;&gt;#define&lt;/span&gt;&lt;span style=&quot;color: #569cd6;&quot;&gt; DT_SYMENT &lt;/span&gt;&lt;span style=&quot;color: #b5cea8;&quot;&gt;11&lt;/span&gt;&lt;span style=&quot;color: #6a9955;&quot;&gt; /* 一个符号表条目的大小 */&lt;/span&gt;&lt;/div&gt;&lt;div&gt;&lt;span style=&quot;color: #c586c0;&quot;&gt;#define&lt;/span&gt;&lt;span style=&quot;color: #569cd6;&quot;&gt; DT_INIT &lt;/span&gt;&lt;span style=&quot;color: #b5cea8;&quot;&gt;12&lt;/span&gt;&lt;span style=&quot;color: #6a9955;&quot;&gt; /* 初始化函数地址 */&lt;/span&gt;&lt;/div&gt;&lt;div&gt;&lt;span style=&quot;color: #c586c0;&quot;&gt;#define&lt;/span&gt;&lt;span style=&quot;color: #569cd6;&quot;&gt; DT_FINI &lt;/span&gt;&lt;span style=&quot;color: #b5cea8;&quot;&gt;13&lt;/span&gt;&lt;span style=&quot;color: #6a9955;&quot;&gt; /* 终止函数地址 */&lt;/span&gt;&lt;/div&gt;&lt;div&gt;&lt;span style=&quot;color: #c586c0;&quot;&gt;#define&lt;/span&gt;&lt;span style=&quot;color: #569cd6;&quot;&gt; DT_SONAME &lt;/span&gt;&lt;span style=&quot;color: #b5cea8;&quot;&gt;14&lt;/span&gt;&lt;span style=&quot;color: #6a9955;&quot;&gt; /* 共享对象的名称 */&lt;/span&gt;&lt;/div&gt;&lt;div&gt;&lt;span style=&quot;color: #c586c0;&quot;&gt;#define&lt;/span&gt;&lt;span style=&quot;color: #569cd6;&quot;&gt; DT_RPATH &lt;/span&gt;&lt;span style=&quot;color: #b5cea8;&quot;&gt;15&lt;/span&gt;&lt;span style=&quot;color: #6a9955;&quot;&gt; /* 库搜索路径（已弃用）*/&lt;/span&gt;&lt;/div&gt;&lt;div&gt;&lt;span style=&quot;color: #c586c0;&quot;&gt;#define&lt;/span&gt;&lt;span style=&quot;color: #569cd6;&quot;&gt; DT_SYMBOLIC &lt;/span&gt;&lt;span style=&quot;color: #b5cea8;&quot;&gt;16&lt;/span&gt;&lt;span style=&quot;color: #6a9955;&quot;&gt; /* 在此开始符号搜索 */&lt;/span&gt;&lt;/div&gt;&lt;div&gt;&lt;span style=&quot;color: #c586c0;&quot;&gt;#define&lt;/span&gt;&lt;span style=&quot;color: #569cd6;&quot;&gt; DT_REL &lt;/span&gt;&lt;span style=&quot;color: #b5cea8;&quot;&gt;17&lt;/span&gt;&lt;span style=&quot;color: #6a9955;&quot;&gt; /* Rel 重定位地址 */&lt;/span&gt;&lt;/div&gt;&lt;div&gt;&lt;span style=&quot;color: #c586c0;&quot;&gt;#define&lt;/span&gt;&lt;span style=&quot;color: #569cd6;&quot;&gt; DT_RELSZ &lt;/span&gt;&lt;span style=&quot;color: #b5cea8;&quot;&gt;18&lt;/span&gt;&lt;span style=&quot;color: #6a9955;&quot;&gt; /* Rel 重定位的总大小 */&lt;/span&gt;&lt;/div&gt;&lt;/div&gt;&lt;/div&gt;" style="text;whiteSpace=wrap;html=1;" parent="1" vertex="1">
          <mxGeometry x="1760" y="2320" width="490" height="370" as="geometry" />
        </mxCell>
        <mxCell id="mXNCd9asIf8t3rm5nd_7-77" value="" style="shape=flexArrow;endArrow=classic;html=1;rounded=0;strokeColor=#6c8ebf;fillColor=#dae8fc;entryX=0;entryY=0.25;entryDx=0;entryDy=0;exitX=0.972;exitY=0.297;exitDx=0;exitDy=0;exitPerimeter=0;" parent="1" source="mXNCd9asIf8t3rm5nd_7-67" target="mXNCd9asIf8t3rm5nd_7-76" edge="1">
          <mxGeometry width="50" height="50" relative="1" as="geometry">
            <mxPoint x="1660" y="2160" as="sourcePoint" />
            <mxPoint x="1750" y="2220" as="targetPoint" />
            <Array as="points" />
          </mxGeometry>
        </mxCell>
        <mxCell id="mXNCd9asIf8t3rm5nd_7-79" value="&lt;div style=&quot;background-color: rgb(31, 31, 31); font-family: Consolas, &amp;quot;Courier New&amp;quot;, monospace; font-weight: normal; font-size: 14px; line-height: 19px;&quot;&gt;&lt;div style=&quot;color: rgb(204, 204, 204);&quot;&gt;&lt;span style=&quot;color: #569cd6;&quot;&gt;typedef&lt;/span&gt;&lt;span style=&quot;color: #cccccc;&quot;&gt; &lt;/span&gt;&lt;span style=&quot;color: #569cd6;&quot;&gt;struct&lt;/span&gt;&lt;/div&gt;&lt;div style=&quot;color: rgb(204, 204, 204);&quot;&gt;&lt;span style=&quot;color: #cccccc;&quot;&gt;{&lt;/span&gt;&lt;/div&gt;&lt;div style=&quot;color: rgb(204, 204, 204);&quot;&gt;&lt;span style=&quot;color: #cccccc;&quot;&gt;&amp;nbsp; &lt;/span&gt;&lt;span style=&quot;color: #4ec9b0;&quot;&gt;Elf64_Word&lt;/span&gt;&lt;span style=&quot;color: #cccccc;&quot;&gt; &lt;/span&gt;&lt;span style=&quot;color: #9cdcfe;&quot;&gt;n_namesz&lt;/span&gt;&lt;span style=&quot;color: #cccccc;&quot;&gt;;&lt;/span&gt;&lt;span style=&quot;color: #6a9955;&quot;&gt; &amp;nbsp; &amp;nbsp; &amp;nbsp;/* Note名称长度. &amp;nbsp;*/&lt;/span&gt;&lt;/div&gt;&lt;div style=&quot;color: rgb(204, 204, 204);&quot;&gt;&lt;span style=&quot;color: #cccccc;&quot;&gt;&amp;nbsp; &lt;/span&gt;&lt;span style=&quot;color: #4ec9b0;&quot;&gt;Elf64_Word&lt;/span&gt;&lt;span style=&quot;color: #cccccc;&quot;&gt; &lt;/span&gt;&lt;span style=&quot;color: #9cdcfe;&quot;&gt;n_descsz&lt;/span&gt;&lt;span style=&quot;color: #cccccc;&quot;&gt;;&lt;/span&gt;&lt;span style=&quot;color: #6a9955;&quot;&gt; &amp;nbsp; &amp;nbsp; &amp;nbsp;/* Note描述符长度. &amp;nbsp;*/&lt;/span&gt;&lt;/div&gt;&lt;div style=&quot;color: rgb(204, 204, 204);&quot;&gt;&lt;span style=&quot;color: #cccccc;&quot;&gt;&amp;nbsp; &lt;/span&gt;&lt;span style=&quot;color: #4ec9b0;&quot;&gt;Elf64_Word&lt;/span&gt;&lt;span style=&quot;color: #cccccc;&quot;&gt; &lt;/span&gt;&lt;span style=&quot;color: #9cdcfe;&quot;&gt;n_type&lt;/span&gt;&lt;span style=&quot;color: #cccccc;&quot;&gt;;&lt;/span&gt;&lt;span style=&quot;color: #6a9955;&quot;&gt; &amp;nbsp; &amp;nbsp; &amp;nbsp;/* Note类型. &amp;nbsp;*/&lt;/span&gt;&lt;/div&gt;&lt;div style=&quot;color: rgb(204, 204, 204);&quot;&gt;&lt;span style=&quot;color: #cccccc;&quot;&gt;} &lt;/span&gt;&lt;span style=&quot;color: #4ec9b0;&quot;&gt;Elf64_Nhdr&lt;/span&gt;&lt;span style=&quot;color: #cccccc;&quot;&gt;;&lt;/span&gt;&lt;/div&gt;&lt;div style=&quot;&quot;&gt;&lt;div style=&quot;line-height: 19px;&quot;&gt;&lt;div style=&quot;color: rgb(204, 204, 204);&quot;&gt;&lt;span style=&quot;color: rgb(86, 156, 214);&quot;&gt;char&lt;/span&gt; &lt;span style=&quot;color: rgb(156, 220, 254);&quot;&gt;n_name&lt;/span&gt;[n_namesz];&amp;nbsp;&amp;nbsp;/* Note名称. &amp;nbsp;*/&lt;br&gt;&lt;/div&gt;&lt;div style=&quot;color: rgb(204, 204, 204);&quot;&gt;ALIGN(4);&lt;/div&gt;&lt;div style=&quot;&quot;&gt;&lt;font color=&quot;#569cd6&quot;&gt;unsigned char&lt;/font&gt;&lt;font color=&quot;#cccccc&quot;&gt;&amp;nbsp;&lt;/font&gt;&lt;span style=&quot;color: rgb(156, 220, 254);&quot;&gt;n_&lt;/span&gt;&lt;font color=&quot;#cccccc&quot;&gt;desc[n_descsz];&amp;nbsp; /* Note描述符. &amp;nbsp;*/&lt;/font&gt;&lt;/div&gt;&lt;/div&gt;&lt;/div&gt;&lt;/div&gt;" style="text;whiteSpace=wrap;html=1;" parent="1" vertex="1">
          <mxGeometry x="1250" y="2770" width="400" height="180" as="geometry" />
        </mxCell>
        <mxCell id="mXNCd9asIf8t3rm5nd_7-80" value="&lt;div style=&quot;background-color: rgb(31, 31, 31); line-height: 19px;&quot;&gt;&lt;div style=&quot;color: rgb(204, 204, 204); font-family: Consolas, &amp;quot;Courier New&amp;quot;, monospace; font-size: 14px; font-weight: normal;&quot;&gt;&lt;span style=&quot;color: #6a9955;&quot;&gt;/* 已知的Note名称. &amp;nbsp;*/&lt;/span&gt;&lt;/div&gt;&lt;br&gt;&lt;div style=&quot;&quot;&gt;&lt;font face=&quot;Consolas, Courier New, monospace&quot; color=&quot;#6a9955&quot;&gt;/* Node部分中的 Solaris 条目具有此名称. &amp;nbsp;*/&lt;/font&gt;&lt;/div&gt;&lt;div style=&quot;color: rgb(204, 204, 204); font-family: Consolas, &amp;quot;Courier New&amp;quot;, monospace; font-size: 14px; font-weight: normal;&quot;&gt;&lt;span style=&quot;color: #c586c0;&quot;&gt;#define&lt;/span&gt;&lt;span style=&quot;color: #569cd6;&quot;&gt; ELF_NOTE_SOLARIS &amp;nbsp;&lt;/span&gt;&lt;span style=&quot;color: #ce9178;&quot;&gt;&quot;SUNW Solaris&quot;&lt;/span&gt;&lt;/div&gt;&lt;br&gt;&lt;div style=&quot;&quot;&gt;&lt;font face=&quot;Consolas, Courier New, monospace&quot; color=&quot;#6a9955&quot;&gt;/* GNU 系统的Node条目具有此名称。&amp;nbsp;&amp;nbsp;*/&lt;/font&gt;&lt;/div&gt;&lt;div style=&quot;color: rgb(204, 204, 204); font-family: Consolas, &amp;quot;Courier New&amp;quot;, monospace; font-size: 14px; font-weight: normal;&quot;&gt;&lt;span style=&quot;color: #c586c0;&quot;&gt;#define&lt;/span&gt;&lt;span style=&quot;color: #569cd6;&quot;&gt; ELF_NOTE_GNU &amp;nbsp; &amp;nbsp;&lt;/span&gt;&lt;span style=&quot;color: #ce9178;&quot;&gt;&quot;GNU&quot;&lt;/span&gt;&lt;/div&gt;&lt;br&gt;&lt;div style=&quot;&quot;&gt;&lt;font face=&quot;Consolas, Courier New, monospace&quot; color=&quot;#6a9955&quot;&gt;/* freedesktop.org 的Node条目具有此名称。&amp;nbsp;&amp;nbsp;*/&lt;/font&gt;&lt;/div&gt;&lt;div style=&quot;color: rgb(204, 204, 204); font-family: Consolas, &amp;quot;Courier New&amp;quot;, monospace; font-size: 14px; font-weight: normal;&quot;&gt;&lt;span style=&quot;color: #c586c0;&quot;&gt;#define&lt;/span&gt;&lt;span style=&quot;color: #569cd6;&quot;&gt; ELF_NOTE_FDO &amp;nbsp; &amp;nbsp;&lt;/span&gt;&lt;span style=&quot;color: #ce9178;&quot;&gt;&quot;FDO&quot;&lt;/span&gt;&lt;/div&gt;&lt;br&gt;&lt;/div&gt;" style="text;whiteSpace=wrap;html=1;" parent="1" vertex="1">
          <mxGeometry x="1760" y="2880" width="310" height="223" as="geometry" />
        </mxCell>
        <mxCell id="mXNCd9asIf8t3rm5nd_7-81" value="" style="shape=flexArrow;endArrow=classic;html=1;rounded=0;strokeColor=#6c8ebf;fillColor=#dae8fc;entryX=0;entryY=0.25;entryDx=0;entryDy=0;exitX=0.795;exitY=0.739;exitDx=0;exitDy=0;exitPerimeter=0;" parent="1" source="mXNCd9asIf8t3rm5nd_7-79" target="mXNCd9asIf8t3rm5nd_7-80" edge="1">
          <mxGeometry width="50" height="50" relative="1" as="geometry">
            <mxPoint x="1590" y="2640" as="sourcePoint" />
            <mxPoint x="1760" y="2680" as="targetPoint" />
            <Array as="points">
              <mxPoint x="1680" y="2903" />
              <mxPoint x="1680" y="2936" />
            </Array>
          </mxGeometry>
        </mxCell>
        <mxCell id="mXNCd9asIf8t3rm5nd_7-82" value="&lt;div style=&quot;color: rgb(204, 204, 204); background-color: rgb(31, 31, 31); font-family: Consolas, &amp;quot;Courier New&amp;quot;, monospace; font-weight: normal; font-size: 14px; line-height: 19px;&quot;&gt;&lt;div style=&quot;line-height: 19px;&quot;&gt;&lt;div&gt;#define&lt;span style=&quot;color: #569cd6;&quot;&gt; NT_PRSTATUS &lt;/span&gt;&lt;span style=&quot;color: #b5cea8;&quot;&gt;1&lt;/span&gt;&lt;span style=&quot;color: #6a9955;&quot;&gt; /* 包含 prstatus 结构的副本 */&lt;/span&gt;&lt;/div&gt;&lt;div&gt;&lt;span style=&quot;color: #c586c0;&quot;&gt;#define&lt;/span&gt;&lt;span style=&quot;color: #569cd6;&quot;&gt; NT_PRFPREG &lt;/span&gt;&lt;span style=&quot;color: #b5cea8;&quot;&gt;2&lt;/span&gt;&lt;span style=&quot;color: #6a9955;&quot;&gt; /* 包含 fpregset 结构的副本。 */&lt;/span&gt;&lt;/div&gt;&lt;div&gt;&lt;span style=&quot;color: #c586c0;&quot;&gt;#define&lt;/span&gt;&lt;span style=&quot;color: #569cd6;&quot;&gt; NT_FPREGSET &lt;/span&gt;&lt;span style=&quot;color: #b5cea8;&quot;&gt;2&lt;/span&gt;&lt;span style=&quot;color: #6a9955;&quot;&gt; /* 包含 fpregset 结构的副本 */&lt;/span&gt;&lt;/div&gt;&lt;div&gt;&lt;span style=&quot;color: #c586c0;&quot;&gt;#define&lt;/span&gt;&lt;span style=&quot;color: #569cd6;&quot;&gt; NT_PRPSINFO &lt;/span&gt;&lt;span style=&quot;color: #b5cea8;&quot;&gt;3&lt;/span&gt;&lt;span style=&quot;color: #6a9955;&quot;&gt; /* 包含 prpsinfo 结构的副本 */&lt;/span&gt;&lt;/div&gt;&lt;div&gt;&lt;span style=&quot;color: #c586c0;&quot;&gt;#define&lt;/span&gt;&lt;span style=&quot;color: #569cd6;&quot;&gt; NT_PRXREG &lt;/span&gt;&lt;span style=&quot;color: #b5cea8;&quot;&gt;4&lt;/span&gt;&lt;span style=&quot;color: #6a9955;&quot;&gt; /* 包含 prxregset 结构的副本 */&lt;/span&gt;&lt;/div&gt;&lt;div&gt;&lt;span style=&quot;color: #c586c0;&quot;&gt;#define&lt;/span&gt;&lt;span style=&quot;color: #569cd6;&quot;&gt; NT_TASKSTRUCT &lt;/span&gt;&lt;span style=&quot;color: #b5cea8;&quot;&gt;4&lt;/span&gt;&lt;span style=&quot;color: #6a9955;&quot;&gt; /* 包含任务结构的副本 */&lt;/span&gt;&lt;/div&gt;&lt;div&gt;&lt;span style=&quot;color: #c586c0;&quot;&gt;#define&lt;/span&gt;&lt;span style=&quot;color: #569cd6;&quot;&gt; NT_PLATFORM &lt;/span&gt;&lt;span style=&quot;color: #b5cea8;&quot;&gt;5&lt;/span&gt;&lt;span style=&quot;color: #6a9955;&quot;&gt; /* 来自 sysinfo(SI_PLATFORM) 的字符串 */&lt;/span&gt;&lt;/div&gt;&lt;/div&gt;&lt;div&gt;&lt;span style=&quot;color: #c586c0;&quot;&gt;#define&lt;/span&gt;&lt;span style=&quot;color: #569cd6;&quot;&gt; &lt;/span&gt;&lt;span style=&quot;color: #569cd6;&quot;&gt;NT_XXX&lt;br&gt;&lt;/span&gt;&lt;/div&gt;&lt;/div&gt;" style="text;whiteSpace=wrap;html=1;" parent="1" vertex="1">
          <mxGeometry x="1760" y="2710" width="500" height="160" as="geometry" />
        </mxCell>
        <mxCell id="mXNCd9asIf8t3rm5nd_7-83" value="" style="shape=flexArrow;endArrow=classic;html=1;rounded=0;strokeColor=#6c8ebf;fillColor=#dae8fc;exitX=0.8;exitY=0.5;exitDx=0;exitDy=0;exitPerimeter=0;entryX=0.001;entryY=0.215;entryDx=0;entryDy=0;entryPerimeter=0;" parent="1" source="mXNCd9asIf8t3rm5nd_7-79" target="mXNCd9asIf8t3rm5nd_7-82" edge="1">
          <mxGeometry width="50" height="50" relative="1" as="geometry">
            <mxPoint x="1568" y="2480" as="sourcePoint" />
            <mxPoint x="1770" y="2613" as="targetPoint" />
            <Array as="points">
              <mxPoint x="1680" y="2860" />
              <mxPoint x="1680" y="2744" />
            </Array>
          </mxGeometry>
        </mxCell>
        <mxCell id="zFexa_omxLumXcc_W_2--2" value="" style="shape=flexArrow;endArrow=classic;html=1;rounded=0;strokeColor=#6c8ebf;fillColor=#dae8fc;entryX=0;entryY=0.25;entryDx=0;entryDy=0;exitX=1;exitY=0.592;exitDx=0;exitDy=0;exitPerimeter=0;" edge="1" parent="1" source="mXNCd9asIf8t3rm5nd_7-57" target="zFexa_omxLumXcc_W_2--4">
          <mxGeometry width="50" height="50" relative="1" as="geometry">
            <mxPoint x="1660" y="2160" as="sourcePoint" />
            <mxPoint x="1830" y="2080" as="targetPoint" />
            <Array as="points">
              <mxPoint x="1660" y="2150" />
              <mxPoint x="1660" y="2093" />
            </Array>
          </mxGeometry>
        </mxCell>
        <mxCell id="zFexa_omxLumXcc_W_2--3" value="&lt;div style=&quot;color: rgb(204, 204, 204); background-color: rgb(31, 31, 31); font-family: Consolas, &amp;quot;Courier New&amp;quot;, monospace; font-size: 14px; line-height: 19px;&quot;&gt;ELF64_R_TYPE(r_info)&lt;/div&gt;" style="edgeLabel;html=1;align=center;verticalAlign=middle;resizable=0;points=[];" vertex="1" connectable="0" parent="zFexa_omxLumXcc_W_2--2">
          <mxGeometry x="0.0431" relative="1" as="geometry">
            <mxPoint x="48" y="-20" as="offset" />
          </mxGeometry>
        </mxCell>
        <mxCell id="zFexa_omxLumXcc_W_2--4" value="&lt;div style=&quot;color: rgb(204, 204, 204); background-color: rgb(31, 31, 31); font-family: Consolas, &amp;quot;Courier New&amp;quot;, monospace; font-weight: normal; font-size: 14px; line-height: 19px;&quot;&gt;&lt;div style=&quot;line-height: 19px;&quot;&gt;&lt;div&gt;#define&lt;span style=&quot;color: #569cd6;&quot;&gt; &lt;/span&gt;&lt;span style=&quot;color: #569cd6;&quot;&gt;R_X86_64_64&lt;/span&gt;&lt;span style=&quot;color: #569cd6;&quot;&gt; &lt;/span&gt;&lt;span style=&quot;color: #b5cea8;&quot;&gt;1&lt;/span&gt;&lt;span style=&quot;color: #6a9955;&quot;&gt; /* 直接64位*/&lt;/span&gt;&lt;/div&gt;&lt;div&gt;&lt;span style=&quot;color: #c586c0;&quot;&gt;#define&lt;/span&gt;&lt;span style=&quot;color: #569cd6;&quot;&gt; &lt;/span&gt;&lt;span style=&quot;color: #569cd6;&quot;&gt;R_X86_64_PC32&lt;/span&gt;&lt;span style=&quot;color: #569cd6;&quot;&gt; &lt;/span&gt;&lt;span style=&quot;color: #b5cea8;&quot;&gt;2&lt;/span&gt;&lt;span style=&quot;color: #6a9955;&quot;&gt; /* PC相对32位有符号*/&lt;/span&gt;&lt;/div&gt;&lt;div&gt;&lt;span style=&quot;color: #c586c0;&quot;&gt;#define&lt;/span&gt;&lt;span style=&quot;color: #569cd6;&quot;&gt; &lt;/span&gt;&lt;span style=&quot;color: #569cd6;&quot;&gt;R_X86_64_GOT32&lt;/span&gt;&lt;span style=&quot;color: #569cd6;&quot;&gt; &lt;/span&gt;&lt;span style=&quot;color: #b5cea8;&quot;&gt;3&lt;/span&gt;&lt;span style=&quot;color: #6a9955;&quot;&gt; /* 32位GOT条目*/&lt;/span&gt;&lt;/div&gt;&lt;div&gt;&lt;span style=&quot;color: #c586c0;&quot;&gt;#define&lt;/span&gt;&lt;span style=&quot;color: #569cd6;&quot;&gt; &lt;/span&gt;&lt;span style=&quot;color: #569cd6;&quot;&gt;R_X86_64_PLT32&lt;/span&gt;&lt;span style=&quot;color: #569cd6;&quot;&gt; &lt;/span&gt;&lt;span style=&quot;color: #b5cea8;&quot;&gt;4&lt;/span&gt;&lt;span style=&quot;color: #6a9955;&quot;&gt; /* 32位PLT地址 */&lt;/span&gt;&lt;/div&gt;&lt;div&gt;&lt;span style=&quot;color: #c586c0;&quot;&gt;#define&lt;/span&gt;&lt;span style=&quot;color: #569cd6;&quot;&gt; &lt;/span&gt;&lt;span style=&quot;color: #569cd6;&quot;&gt;R_X86_64_COPY&lt;/span&gt;&lt;span style=&quot;color: #569cd6;&quot;&gt; &lt;/span&gt;&lt;span style=&quot;color: #b5cea8;&quot;&gt;5&lt;/span&gt;&lt;span style=&quot;color: #6a9955;&quot;&gt; /* 在运行时复制符号 */&lt;/span&gt;&lt;/div&gt;&lt;div&gt;&lt;div style=&quot;line-height: 19px;&quot;&gt;#define&lt;span style=&quot;color: #569cd6;&quot;&gt; &lt;/span&gt;&lt;span style=&quot;color: #569cd6;&quot;&gt;R_[ARCH]_XXX&lt;/span&gt;&lt;/div&gt;&lt;/div&gt;&lt;/div&gt;&lt;/div&gt;" style="text;whiteSpace=wrap;html=1;" vertex="1" parent="1">
          <mxGeometry x="1835" y="2060" width="350" height="130" as="geometry" />
        </mxCell>
        <mxCell id="zFexa_omxLumXcc_W_2--5" value="" style="endArrow=classic;html=1;rounded=0;strokeColor=#6c8ebf;fillColor=#dae8fc;exitX=1;exitY=0.592;exitDx=0;exitDy=0;exitPerimeter=0;dashed=1;entryX=0.5;entryY=1;entryDx=0;entryDy=0;strokeWidth=3;" edge="1" parent="1" target="ifZyqwG-hICFNkMZj-hm-8">
          <mxGeometry width="50" height="50" relative="1" as="geometry">
            <mxPoint x="1610" y="2150" as="sourcePoint" />
            <mxPoint x="1640" y="1930" as="targetPoint" />
            <Array as="points">
              <mxPoint x="1660" y="2150" />
              <mxPoint x="1660" y="1980" />
              <mxPoint x="1470" y="1980" />
            </Array>
          </mxGeometry>
        </mxCell>
        <mxCell id="zFexa_omxLumXcc_W_2--6" value="&lt;div style=&quot;color: rgb(204, 204, 204); background-color: rgb(31, 31, 31); font-family: Consolas, &amp;quot;Courier New&amp;quot;, monospace; font-size: 14px; line-height: 19px;&quot;&gt;ELF64_R_SYM(r_info)&lt;/div&gt;" style="edgeLabel;html=1;align=center;verticalAlign=middle;resizable=0;points=[];" vertex="1" connectable="0" parent="zFexa_omxLumXcc_W_2--5">
          <mxGeometry x="0.0431" relative="1" as="geometry">
            <mxPoint x="-18" as="offset" />
          </mxGeometry>
        </mxCell>
        <mxCell id="zFexa_omxLumXcc_W_2--8" value="下标" style="edgeLabel;html=1;align=center;verticalAlign=middle;resizable=0;points=[];" vertex="1" connectable="0" parent="zFexa_omxLumXcc_W_2--5">
          <mxGeometry x="0.6644" y="-2" relative="1" as="geometry">
            <mxPoint y="-54" as="offset" />
          </mxGeometry>
        </mxCell>
      </root>
    </mxGraphModel>
  </diagram>
</mxfile>
